<svg version="1.1" xmlns="http://www.w3.org/2000/svg" xmlns:xlink="http://www.w3.org/1999/xlink" width="55.99712" height="70.01636" viewBox="0,0,55.99712,70.01636"><g transform="translate(-207.4,-149.05864)"><g stroke-miterlimit="10"><path d="M227.60339,207.64657c-3.46652,4.21476 -5.50197,1.36489 -7.38766,-3.35173c-1.88569,-4.71662 -2.90753,-9.51389 0.55899,-13.72866c3.46652,-4.21476 12.17793,-8.76684 14.06361,-4.05022c1.88569,4.71662 -3.76843,16.91585 -7.23494,21.1306z" fill="#66a8fe" stroke="#000000" stroke-width="2.5"/><path d="M229.13715,202.89123c-2.68146,3.26025 -4.25594,1.05578 -5.71458,-2.59267c-1.45864,-3.64845 -2.24907,-7.35929 0.43239,-10.61954c2.68146,-3.26025 9.42,-6.78142 10.87864,-3.13297c1.45864,3.64845 -2.915,13.08493 -5.59645,16.34518z" fill="#9cdffa" stroke="#000000" stroke-width="0"/><path d="M235.60891,178.82733c-2.09239,13.60444 -4.6464,21.90194 -11.07089,18.89696c-6.4245,-3.00499 -8.65609,-12.24653 -6.5637,-25.85097c0.05058,-0.32885 0.33851,-6.52278 2.02435,-11.91608c1.65401,-5.29145 2.73633,-9.50833 5.00348,-9.6486c4.85223,-0.3002 7.02048,7.34037 8.94249,14.48371c1.13871,4.23217 2.44274,8.97356 1.66428,14.03498z" fill="#9cdffa" stroke="#000000" stroke-width="2.5"/><path d="M232.35124,176.14712c0.05423,8.83732 -2.396,16.04794 -5.47274,16.10536c-3.07674,0.05742 -5.6149,-7.0601 -5.66913,-15.89743c-0.05423,-8.83732 2.396,-16.04794 5.47273,-16.10536c3.07674,-0.05742 5.6149,7.0601 5.66913,15.89742z" fill="#67acfa" stroke="none" stroke-width="0"/><path d="M236.98639,189.15249c2.47405,-2.79124 10.10267,3.42843 12.79152,7.64738c2.68885,4.21895 1.02477,7.35793 -1.44928,10.14917c-2.47405,2.79124 -4.82119,4.17776 -7.51004,-0.04119c-2.68885,-4.21895 -6.30625,-14.96413 -3.8322,-17.75537z" fill="#66a8fe" stroke="#000000" stroke-width="2.5"/><path d="M237.08167,189.20937c1.91375,-2.15912 7.81473,2.652 9.89464,5.91549c2.07992,3.26349 0.79269,5.69159 -1.12106,7.8507c-1.91375,2.15912 -3.72934,3.23163 -5.80925,-0.03186c-2.07992,-3.26349 -4.87808,-11.57521 -2.96433,-13.73433z" fill="#9cdffa" stroke="#000000" stroke-width="0"/><path d="M249.5222,165.51555c4.58083,-2.36751 9.5549,-4.78507 12.62492,0.34724c1.43442,2.39801 0.19645,6.05738 -1.1613,10.95113c-1.38389,4.98793 -4.06327,9.03481 -4.18218,9.28567c-4.91944,10.37813 -10.67717,13.70115 -16.3184,8.96749c-5.64123,-4.73366 -3.48592,-12.36708 1.43352,-22.74521c1.83024,-3.8611 4.88948,-5.40366 7.60345,-6.80632z" fill="#9cdffa" stroke="#000000" stroke-width="2.5"/><path d="M256.4301,170.17245c2.00824,3.17379 0.28789,10.04275 -3.84253,15.34226c-4.13042,5.29951 -9.10679,7.02275 -11.11504,3.84897c-2.00824,-3.17379 -0.28789,-10.04275 3.84253,-15.34226c4.13042,-5.29951 9.10679,-7.02275 11.11504,-3.84897z" fill="#67acfa" stroke="none" stroke-width="0"/><path d="M241.76447,187.42371c-1.65311,6.81567 -8.72633,10.90882 -8.63061,10.97353c0.25224,0.17052 -4.39447,-6.91609 -2.74137,-13.73176c1.65311,-6.81567 6.33725,-11.63912 8.75285,-11.05323c2.4156,0.58589 4.27223,6.99578 2.61912,13.81145z" fill="#2ed5e7" stroke="#000000" stroke-width="1.5"/><path d="M246.24677,174.92799c-0.90325,3.72405 -4.73602,5.99097 -8.56072,5.06331c-3.82471,-0.92766 -6.19301,-4.69863 -5.28975,-8.42268c0.90325,-3.72405 4.73602,-5.99097 8.56072,-5.06331c3.82471,0.92766 6.19301,4.69863 5.28975,8.42268z" fill="#7888bc" stroke="#000000" stroke-width="1.5"/><path d="M246.55111,175.08757c-0.67541,2.78465 -3.48034,4.49453 -6.26499,3.81913c-2.78465,-0.67541 -4.49453,-3.48034 -3.81913,-6.26499c0.67541,-2.78465 3.48034,-4.49453 6.26499,-3.81913c2.78465,0.67541 4.49453,3.48034 3.81913,6.26499z" fill="#dcf9ff" stroke="#000000" stroke-width="1.5"/><path d="M231.14953,185.19513l0.39122,-1.61296c0,0 2.18529,3.10289 3.78447,3.49076c1.63968,0.3977 5.93516,-1.13331 5.93516,-1.13331l-0.39122,1.61296c0,0 -4.33095,1.90833 -6.02356,1.4978c-1.53103,-0.37134 -3.69607,-3.85525 -3.69607,-3.85525z" fill="#67acfa" stroke="#000000" stroke-width="0"/><path d="M233.48683,197.3044c0,0 -0.97587,-2.40757 -1.31594,-3.49741c-0.30822,-0.98775 -0.63837,-2.76552 -0.63837,-2.76552c0,0 1.83942,1.69632 2.87831,1.92839c1.18027,0.26364 3.83341,-0.42913 3.83341,-0.42913c0,0 -1.03596,1.25416 -1.58785,1.80677c-0.87747,0.87863 -3.16956,2.95691 -3.16956,2.95691z" fill="#67acfa" stroke="none" stroke-width="0"/><path d="M263.15,216.7c0,1.31168 -12.48006,2.375 -27.875,2.375c-15.39494,0 -27.875,-1.06332 -27.875,-2.375c0,-1.31168 12.48006,-2.375 27.875,-2.375c15.39494,0 27.875,1.06332 27.875,2.375z" fill-opacity="0.85098" fill="#423b34" stroke="#000000" stroke-width="0"/></g></g></svg>