<svg version="1.1" xmlns="http://www.w3.org/2000/svg" xmlns:xlink="http://www.w3.org/1999/xlink" width="534.51952" height="714.93843" viewBox="0,0,534.51952,714.93843"><g transform="translate(27.25976,177.46921)"><g data-paper-data="{&quot;isPaintingLayer&quot;:true}" fill-rule="nonzero" stroke-linecap="butt" stroke-linejoin="miter" stroke-miterlimit="10" stroke-dasharray="" stroke-dashoffset="0" style="mix-blend-mode: normal"><path d="M499.75976,529.96921h-519.51952v-699.93843h519.51952z" fill="none" stroke="#e60000" stroke-width="15"/><path d="M192.92238,180c0,-26.00025 21.07737,-47.07762 47.07762,-47.07762c26.00025,0 47.07762,21.07737 47.07762,47.07762c0,26.00025 -21.07737,47.07762 -47.07762,47.07762c-26.00025,0 -47.07762,-21.07737 -47.07762,-47.07762z" fill="none" stroke="#e60000" stroke-width="5"/><path d="M215.47159,210.7544c0,0 0,-27.60773 0,-36.59792c0,-5.24542 6.03661,-12.45887 10.70684,-12.45887c4.67414,0 11.33343,0 20.14833,0c0.45998,0 2.13887,-8.37435 2.97892,-11.82912c0.30247,-1.2439 3.86865,-0.24041 4.02919,-0.24041c0.15389,0 0.72734,0.1015 0.77629,1.01815c0.17278,3.23576 -0.61255,11.05138 -0.09494,11.05138c0.45938,0 1.74684,-4.16978 2.52825,-6.33478c0.48091,-1.33242 1.01496,-1.1194 1.27798,-1.04225c0.24805,0.07277 1.76003,0.00462 1.86455,0.99505c0.26185,2.48137 -0.53607,8.47163 0.01239,8.83933c3.55962,2.38644 4.82901,6.21897 4.82901,10.00149c0,8.9902 0,36.59792 0,36.59792zM247.0081,194.11495c3.62857,0 6.57011,-2.94154 6.57011,-6.57011c0,-3.62857 -2.94154,-6.57011 -6.57011,-6.57011c-3.62857,0 -6.57011,2.94154 -6.57011,6.57011c0,3.62857 2.94154,6.57011 6.57011,6.57011zM229.48781,193.23894c2.82222,0 5.11009,-2.28786 5.11009,-5.11009c0,-2.82222 -2.28786,-5.11009 -5.11009,-5.11009c-2.82222,0 -5.11009,2.28786 -5.11009,5.11009c0,2.82222 2.28786,5.11009 5.11009,5.11009z" fill="#e60000" stroke="none" stroke-width="0"/></g></g></svg>