<svg version="1.1" xmlns="http://www.w3.org/2000/svg" xmlns:xlink="http://www.w3.org/1999/xlink" width="79.29445" height="89.58103" viewBox="0,0,79.29445,89.58103"><g transform="translate(-196.0346,-140.06124)"><g stroke-miterlimit="10"><path d="M258.81001,217.03077c0,2.24384 -11.24157,4.06283 -25.10874,4.06283c-13.86718,0 -25.10874,-1.81899 -25.10874,-4.06283c0,-2.24384 11.24157,-4.06283 25.10875,-4.06283c13.86718,0 25.10875,1.81899 25.10875,4.06283z" fill-opacity="0.85098" fill="#423b34" stroke="#000000" stroke-width="0"/><path d="M267.78461,217.07627c0,5.14508 -15.33425,9.316 -34.25,9.316c-18.91575,0 -34.25,-4.17092 -34.25,-9.316c0,-5.14508 15.33425,-9.316 34.25,-9.316c18.91575,0 34.25,4.17092 34.25,9.316z" fill="none" stroke="#f71933" stroke-width="6.5"/><path d="M222.54016,216.02434c-5.85037,5.49198 -9.28558,1.77848 -12.46801,-4.36742c-3.18243,-6.1459 -4.90699,-12.39689 0.94339,-17.88887c5.85037,-5.49196 20.55247,-11.42346 23.7349,-5.27756c3.18243,6.1459 -6.3599,22.04186 -12.21029,27.53384z" fill="#ffa766" stroke="#000000" stroke-width="2.5"/><path d="M225.12867,209.82797c-4.52545,4.24821 -7.18268,1.37571 -9.6444,-3.37833c-2.46171,-4.75404 -3.7957,-9.5894 0.72974,-13.8376c4.52545,-4.24821 15.89797,-8.83639 18.35969,-4.08234c2.46171,4.75404 -4.91959,17.05007 -9.44503,21.29828z" fill="#f0fa9b" stroke="#000000" stroke-width="0"/><path d="M236.05093,178.47197c-3.53129,17.72701 -7.84164,28.53892 -18.68415,24.62332c-10.84251,-3.9156 -14.60872,-15.95761 -11.07743,-33.68461c0.08536,-0.4285 0.57129,-8.49938 3.41646,-15.52702c2.79144,-6.89494 4.61806,-12.38965 8.44428,-12.57242c8.18902,-0.39117 11.84834,9.56473 15.09207,18.87272c1.92179,5.51465 4.12256,11.69283 2.80877,18.28801z" fill="#f0fa9b" stroke="#000000" stroke-width="2.5"/><path d="M230.55304,174.97958c0.09152,11.5153 -4.04368,20.91096 -9.23625,20.98578c-5.19255,0.07482 -9.47615,-9.19954 -9.56767,-20.71484c-0.09152,-11.5153 4.04367,-20.91096 9.23624,-20.98578c5.19255,-0.07482 9.47615,9.19953 9.56769,20.71483z" fill="#ffa766" stroke="none" stroke-width="0"/><path d="M238.04324,191.92597c3.5434,-3.63709 14.4693,4.46735 18.32034,9.96477c3.85104,5.49742 1.46769,9.58761 -2.07569,13.2247c-3.5434,3.63709 -6.90503,5.44375 -10.75608,-0.05367c-3.85104,-5.49742 -9.03196,-19.49871 -5.48856,-23.1358z" fill="#ffa766" stroke="#000000" stroke-width="2.5"/><path d="M238.17969,192.0001c2.74093,-2.8134 11.19245,3.45564 14.17136,7.70807c2.97891,4.25243 1.1353,7.41632 -1.60562,10.22971c-2.74093,2.8134 -5.34125,4.21091 -8.32015,-0.04151c-2.97891,-4.25243 -6.98651,-15.08286 -4.24559,-17.89624z" fill="#f0fa9b" stroke="#000000" stroke-width="0"/><path d="M255.99734,161.12631c6.56077,-3.08493 13.68478,-6.23509 18.08172,0.45246c2.05441,3.12468 0.28136,7.89295 -1.66325,14.26966c-1.98204,6.49943 -5.81952,11.77264 -5.98982,12.09952c-7.04575,13.52302 -15.2921,17.85304 -23.37161,11.68492c-8.07951,-6.16811 -4.99263,-16.11469 2.05312,-29.6377c2.62132,-5.03113 7.00284,-7.04115 10.88986,-8.86885z" fill="#f0fa9b" stroke="#000000" stroke-width="2.5"/><path d="M265.89101,167.1944c2.87626,4.13555 0.41233,13.086 -5.50335,19.99143c-5.91568,6.90543 -13.04298,9.15086 -15.91923,5.01531c-2.87626,-4.13555 -0.41232,-13.086 5.50336,-19.99143c5.91568,-6.90543 13.04298,-9.15086 15.91922,-5.01531z" fill="#ffa766" stroke="none" stroke-width="0"/><path d="M244.16249,189.67332c-2.15405,8.88103 -11.37068,14.21454 -11.24595,14.29885c0.32868,0.22219 -5.72613,-9.01187 -3.57209,-17.8929c2.15405,-8.88103 8.25763,-15.16615 11.40525,-14.4027c3.1476,0.76343 5.56685,9.11572 3.41278,17.99675z" fill="#ff9900" stroke="#000000" stroke-width="1.5"/><path d="M250.00307,173.39102c-1.17696,4.85255 -6.17118,7.80642 -11.15488,6.59765c-4.9837,-1.20877 -8.06968,-6.12246 -6.89272,-10.97501c1.17696,-4.85255 6.17118,-7.80642 11.15488,-6.59765c4.9837,1.20877 8.06968,6.12246 6.89272,10.97501z" fill="#ffcc87" stroke="#000000" stroke-width="1.5"/><path d="M250.39964,173.59894c-0.88008,3.62849 -4.53498,5.85651 -8.16346,4.97644c-3.62849,-0.88008 -5.85652,-4.53499 -4.97646,-8.16348c0.88008,-3.62849 4.53499,-5.85651 8.16348,-4.97644c3.62849,0.88008 5.85651,4.53498 4.97644,8.16346z" fill="#dcf9ff" stroke="#000000" stroke-width="1.5"/><path d="M230.3309,186.76942l0.50976,-2.10174c0,0 2.8475,4.04316 4.93129,4.54857c2.13655,0.5182 7.7337,-1.47674 7.7337,-1.47674l-0.50977,2.10174c0,0 -5.64336,2.48661 -7.84889,1.95167c-1.99497,-0.48387 -4.81609,-5.02351 -4.81609,-5.02351z" fill="#c58c32" stroke="#000000" stroke-width="0"/><path d="M233.37648,202.54816c0,0 -1.27158,-3.13714 -1.71471,-4.55723c-0.40162,-1.28706 -0.83182,-3.60356 -0.83182,-3.60356c0,0 2.39682,2.21034 3.75053,2.51274c1.53792,0.34353 4.99505,-0.55917 4.99505,-0.55917c0,0 -1.3499,1.63421 -2.06902,2.35428c-1.14337,1.14488 -4.13003,3.85295 -4.13003,3.85295z" fill="#c58c32" stroke="none" stroke-width="0"/></g></g></svg>