<svg version="1.1" xmlns="http://www.w3.org/2000/svg" xmlns:xlink="http://www.w3.org/1999/xlink" width="59.48539" height="70.01636" viewBox="0,0,59.48539,70.01636"><g transform="translate(-207.4,-149.05864)"><g stroke-miterlimit="10"><path d="M227.27329,207.64657c-4.53075,4.21476 -7.1911,1.36489 -9.6557,-3.35173c-2.4646,-4.71662 -3.80016,-9.51389 0.7306,-13.72866c4.53075,-4.21476 15.91661,-8.76684 18.38121,-4.05022c2.4646,4.71662 -4.92536,16.91585 -9.45611,21.1306z" fill="#66a8fe" stroke="#000000" stroke-width="2.5"/><path d="M229.27791,202.89123c-3.50468,3.26025 -5.56254,1.05578 -7.46898,-2.59267c-1.90644,-3.64845 -2.93954,-7.35929 0.56514,-10.61954c3.50468,-3.26025 12.31199,-6.78142 14.21844,-3.13297c1.90644,3.64845 -3.80991,13.08493 -7.31459,16.34518z" fill="#9cdffa" stroke="#000000" stroke-width="0"/><path d="M237.73654,178.82733c-2.73476,13.60444 -6.07286,21.90194 -14.46971,18.89696c-8.39685,-3.00499 -11.31355,-12.24653 -8.57879,-25.85097c0.0661,-0.32885 0.44243,-6.52278 2.64583,-11.91608c2.1618,-5.29145 3.57641,-9.50833 6.53957,-9.6486c6.34189,-0.3002 9.1758,7.34037 11.68787,14.48371c1.4883,4.23217 3.19267,8.97356 2.17522,14.03498z" fill="#9cdffa" stroke="#000000" stroke-width="2.5"/><path d="M233.47875,176.14712c0.07088,8.83732 -3.13158,16.04794 -7.1529,16.10536c-4.02132,0.05742 -7.3387,-7.0601 -7.40958,-15.89743c-0.07088,-8.83732 3.13158,-16.04794 7.15289,-16.10536c4.02132,-0.05742 7.3387,7.0601 7.40958,15.89742z" fill="#67acfa" stroke="none" stroke-width="0"/><path d="M239.22735,189.15249c2.5967,-2.79124 10.6035,3.42843 13.42565,7.64738c2.82215,4.21895 1.07557,7.35793 -1.52112,10.14917c-2.5967,2.79124 -5.0602,4.17776 -7.88235,-0.04119c-2.82215,-4.21895 -6.61888,-14.96413 -4.02218,-17.75537z" fill="#66a8fe" stroke="#000000" stroke-width="2.5"/><path d="M239.32734,189.20937c2.00862,-2.15912 8.20214,2.652 10.38516,5.91549c2.18302,3.26349 0.83199,5.69159 -1.17664,7.8507c-2.00862,2.15912 -3.91421,3.23163 -6.09724,-0.03186c-2.18302,-3.26349 -5.11991,-11.57521 -3.11128,-13.73433z" fill="#9cdffa" stroke="#000000" stroke-width="0"/><path d="M252.3846,165.51555c4.80792,-2.36751 10.02858,-4.78507 13.25079,0.34724c1.50553,2.39801 0.20619,6.05738 -1.21888,10.95113c-1.45249,4.98793 -4.2647,9.03481 -4.38951,9.28567c-5.16331,10.37813 -11.20648,13.70115 -17.12737,8.96749c-5.92089,-4.73366 -3.65873,-12.36708 1.50459,-22.74521c1.92097,-3.8611 5.13187,-5.40366 7.98039,-6.80632z" fill="#9cdffa" stroke="#000000" stroke-width="2.5"/><path d="M259.63496,170.17245c2.1078,3.17379 0.30216,10.04275 -4.03302,15.34226c-4.33518,5.29951 -9.55825,7.02275 -11.66606,3.84897c-2.1078,-3.17379 -0.30216,-10.04275 4.03302,-15.34226c4.33518,-5.29951 9.55825,-7.02275 11.66606,-3.84897z" fill="#67acfa" stroke="none" stroke-width="0"/><path d="M243.96447,187.42371c-1.65311,6.81567 -8.72633,10.90882 -8.63061,10.97353c0.25224,0.17052 -4.39447,-6.91609 -2.74137,-13.73176c1.65311,-6.81567 6.33725,-11.63912 8.75285,-11.05323c2.4156,0.58589 4.27223,6.99578 2.61912,13.81145z" fill="#2ed5e7" stroke="#000000" stroke-width="1.5"/><path d="M248.44677,174.92799c-0.90325,3.72405 -4.73602,5.99097 -8.56072,5.06331c-3.82471,-0.92766 -6.19301,-4.69863 -5.28975,-8.42268c0.90325,-3.72405 4.73602,-5.99097 8.56072,-5.06331c3.82471,0.92766 6.19301,4.69863 5.28975,8.42268z" fill="#7888bc" stroke="#000000" stroke-width="1.5"/><path d="M248.75111,175.08757c-0.67541,2.78465 -3.48034,4.49453 -6.26499,3.81913c-2.78465,-0.67541 -4.49453,-3.48034 -3.81913,-6.26499c0.67541,-2.78465 3.48034,-4.49453 6.26499,-3.81913c2.78465,0.67541 4.49453,3.48034 3.81913,6.26499z" fill="#dcf9ff" stroke="#000000" stroke-width="1.5"/><path d="M233.34953,185.19513l0.39122,-1.61296c0,0 2.18529,3.10289 3.78447,3.49076c1.63968,0.3977 5.93516,-1.13331 5.93516,-1.13331l-0.39122,1.61296c0,0 -4.33095,1.90833 -6.02356,1.4978c-1.53103,-0.37134 -3.69607,-3.85525 -3.69607,-3.85525z" fill="#67acfa" stroke="#000000" stroke-width="0"/><path d="M235.68683,197.3044c0,0 -0.97587,-2.40757 -1.31594,-3.49741c-0.30822,-0.98775 -0.63837,-2.76552 -0.63837,-2.76552c0,0 1.83942,1.69632 2.87831,1.92839c1.18027,0.26364 3.83341,-0.42913 3.83341,-0.42913c0,0 -1.03596,1.25416 -1.58785,1.80677c-0.87747,0.87863 -3.16956,2.95691 -3.16956,2.95691z" fill="#67acfa" stroke="none" stroke-width="0"/><path d="M263.15,216.7c0,1.31168 -12.48006,2.375 -27.875,2.375c-15.39494,0 -27.875,-1.06332 -27.875,-2.375c0,-1.31168 12.48006,-2.375 27.875,-2.375c15.39494,0 27.875,1.06332 27.875,2.375z" fill-opacity="0.85098" fill="#423b34" stroke="#000000" stroke-width="0"/></g></g></svg>