<svg version="1.1" xmlns="http://www.w3.org/2000/svg" xmlns:xlink="http://www.w3.org/1999/xlink" width="75" height="89.55638" viewBox="0,0,75,89.55638"><g transform="translate(-196.03459,-140.08588)"><g data-paper-data="{&quot;isPaintingLayer&quot;:true}" fill-rule="nonzero" stroke-linecap="butt" stroke-linejoin="miter" stroke-miterlimit="10" stroke-dasharray="" stroke-dashoffset="0" style="mix-blend-mode: normal"><path d="M267.7846,217.07627c0,5.14508 -15.33425,9.316 -34.25,9.316c-18.91575,0 -34.25,-4.17092 -34.25,-9.316c0,-5.14508 15.33425,-9.316 34.25,-9.316c18.91575,0 34.25,4.17092 34.25,9.316z" fill="none" stroke="#f71933" stroke-width="6.5"/><path d="M228.2867,216.00139c-3.55466,5.48846 -5.64188,1.77736 -7.57552,-4.36463c-1.93364,-6.14199 -2.98147,-12.389 0.5732,-17.87748c3.55466,-5.48846 12.4876,-11.41619 14.42124,-5.2742c1.93364,6.14199 -3.86426,22.02784 -7.41893,27.51629z" fill="#ffa766" stroke="#000000" stroke-width="2.5"/><path d="M229.85945,209.80898c-2.74964,4.2455 -4.36417,1.37484 -5.85989,-3.37618c-1.49573,-4.75102 -2.30626,-9.58328 0.44339,-13.82878c2.74964,-4.2455 9.65954,-8.83077 11.15528,-4.07976c1.49573,4.75102 -2.98912,17.03921 -5.73876,21.28471z" fill="#f0fa9b" stroke="#000000" stroke-width="0"/><path d="M236.49579,178.47295c-2.1456,17.71572 -4.76455,28.52073 -11.35241,24.60764c-6.58786,-3.9131 -8.87621,-15.94744 -6.73061,-33.66316c0.05187,-0.42823 0.34711,-8.49397 2.07583,-15.51713c1.69606,-6.89053 2.80592,-12.38176 5.13071,-12.56442c4.97562,-0.39092 7.19901,9.55864 9.16988,18.8607c1.16767,5.51114 2.50485,11.68538 1.7066,18.27637z" fill="#f0fa9b" stroke="#000000" stroke-width="2.5"/><path d="M233.15528,174.98278c0.05562,11.50797 -2.45693,20.89764 -5.6119,20.97242c-3.15497,0.07477 -5.75768,-9.19367 -5.81329,-20.70165c-0.05562,-11.50797 2.45693,-20.89764 5.6119,-20.97242c3.15497,-0.07477 5.75768,9.19367 5.81329,20.70164z" fill="#ffa766" stroke="none" stroke-width="0"/><path d="M237.93098,191.91838c2.34328,-3.63476 9.56869,4.46451 12.11543,9.95843c2.54673,5.49392 0.97061,9.5815 -1.37268,13.21626c-2.34328,3.63476 -4.56636,5.44028 -7.1131,-0.05364c-2.54673,-5.49392 -5.97294,-19.48631 -3.62965,-23.12106z" data-paper-data="{&quot;index&quot;:null}" fill="#ffa766" stroke="#000000" stroke-width="2.5"/><path d="M238.02123,191.99245c1.8126,-2.81161 7.40167,3.45344 9.37165,7.70316c1.96998,4.24972 0.75078,7.41159 -1.06181,10.22319c-1.8126,2.81161 -3.53222,4.20823 -5.5022,-0.04149c-1.96998,-4.24972 -4.62025,-15.07325 -2.80765,-17.88486z" data-paper-data="{&quot;index&quot;:null}" fill="#f0fa9b" stroke="#000000" stroke-width="0"/><path d="M249.80422,161.13834c4.33871,-3.08297 9.04988,-6.23112 11.95762,0.45218c1.35861,3.12269 0.18607,7.88793 -1.09992,14.26057c-1.31074,6.49529 -3.8485,11.76514 -3.96113,12.09181c-4.65942,13.51441 -10.11283,17.84165 -15.45589,11.67747c-5.34306,-6.16418 -3.30168,-16.10442 1.35775,-29.61884c1.7335,-5.02793 4.63104,-7.03665 7.20158,-8.8632z" data-paper-data="{&quot;index&quot;:null}" fill="#f0fa9b" stroke="#000000" stroke-width="2.5"/><path d="M256.347,167.20256c1.9021,4.13291 0.27268,13.07768 -3.63943,19.97871c-3.9121,6.90103 -8.62545,9.14503 -10.52755,5.01213c-1.9021,-4.13291 -0.27268,-13.07768 3.63943,-19.97871c3.9121,-6.90103 8.62545,-9.14503 10.52755,-5.01213z" data-paper-data="{&quot;index&quot;:null}" fill="#ffa766" stroke="none" stroke-width="0"/><path d="M244.44632,189.66716c-2.15268,8.87537 -11.36344,14.20548 -11.23879,14.28974c0.32847,0.22205 -5.72248,-9.00614 -3.56981,-17.88151c2.15268,-8.87537 8.25237,-15.15647 11.39797,-14.39353c3.1456,0.76295 5.5633,9.10991 3.41062,17.98528z" fill="#ff9900" stroke="#000000" stroke-width="1.5"/><path d="M250.28318,173.39522c-1.17621,4.84946 -6.16725,7.80145 -11.14778,6.59345c-4.98054,-1.208 -8.06454,-6.11856 -6.88832,-10.96802c1.17621,-4.84946 6.16725,-7.80145 11.14778,-6.59345c4.98054,1.208 8.06454,6.11856 6.88832,10.96802z" fill="#ffcc87" stroke="#000000" stroke-width="1.5"/><path d="M250.67949,173.60303c-0.87952,3.62617 -4.5321,5.85278 -8.15828,4.97328c-3.62617,-0.87952 -5.85278,-4.5321 -4.97328,-8.15828c0.87952,-3.62617 4.5321,-5.85278 8.15828,-4.97328c3.62617,0.87952 5.85278,4.5321 4.97328,8.15828z" fill="#dcf9ff" stroke="#000000" stroke-width="1.5"/><path d="M230.62354,186.7651l0.50945,-2.1004c0,0 2.84569,4.04059 4.92814,4.54567c2.13519,0.51789 7.72877,-1.4758 7.72877,-1.4758l-0.50945,2.1004c0,0 -5.63977,2.48503 -7.84389,1.95044c-1.99371,-0.48356 -4.81303,-5.02031 -4.81303,-5.02031z" fill="#c58c32" stroke="#000000" stroke-width="0"/><path d="M233.66717,202.53381c0,0 -1.27078,-3.13514 -1.71362,-4.55433c-0.40136,-1.28625 -0.83129,-3.60126 -0.83129,-3.60126c0,0 2.39529,2.20895 3.74814,2.51115c1.53695,0.34331 4.99187,-0.55881 4.99187,-0.55881c0,0 -1.34903,1.63317 -2.0677,2.35278c-1.14264,1.14415 -4.1274,3.85049 -4.1274,3.85049z" fill="#c58c32" stroke="none" stroke-width="0"/></g></g></svg>