<svg version="1.1" xmlns="http://www.w3.org/2000/svg" xmlns:xlink="http://www.w3.org/1999/xlink" width="50.12864" height="54.18551" viewBox="0,0,50.12864,54.18551"><g transform="translate(-216.58302,-156.04708)"><g stroke-miterlimit="10"><path d="M266.71166,202.91467c0,4.04157 -10.16285,7.31792 -22.69936,7.31792c-12.53652,0 -22.69936,-3.27634 -22.69936,-7.31792c0,-4.04157 10.16285,-7.31793 22.69937,-7.31793c12.53652,0 22.69937,3.27635 22.69937,7.31793z" fill-opacity="0.85098" fill="#423b34" stroke="#2c7fb5" stroke-width="0"/><path d="M219.16145,169.8351c3.42883,-9.61972 14.00678,-14.63843 23.6265,-11.2096c9.61972,3.42883 14.63845,14.00677 11.20961,23.62649c-3.42883,9.61971 -14.00678,14.63843 -23.6265,11.20961c-9.61971,-3.42883 -14.63844,-14.00678 -11.20961,-23.6265z" fill="#33ccfd" stroke="#2c7fb5" stroke-width="3"/><path d="M231.36638,171.23717c1.58202,-4.43843 6.46256,-6.754 10.90099,-5.17197c4.43843,1.58202 6.754,6.46255 5.17198,10.90098c-1.58202,4.43843 -6.46255,6.754 -10.90098,5.17198c-4.43843,-1.58202 -6.75401,-6.46255 -5.17199,-10.90098z" fill="#24a4eb" stroke="#2c7fb5" stroke-width="0"/><path d="M234.96986,191.28312c-1.17076,1.78804 -4.08912,1.76582 -6.8729,-0.05693c-1.61355,-1.05651 -3.42215,-2.44083 -3.84866,-3.80253c-0.30931,-0.98757 0.14844,-1.98966 0.6406,-2.7413c1.17076,-1.78804 4.37654,-1.7599 7.16033,0.06285c2.78378,1.82276 4.09141,4.74987 2.92065,6.5379z" fill="#33bcf1" stroke="#2c7fb5" stroke-width="0"/><path d="M227.32675,168.06629c-1.81193,2.27968 -4.12513,3.45661 -5.16671,2.62876c-0.42113,-0.33472 -0.82679,-1.03748 -0.73485,-1.79755c0.13548,-1.11981 1.05035,-2.47119 2.12967,-3.82915c1.13905,-1.4331 2.36599,-2.66272 3.46079,-3.00013c0.64674,-0.19932 1.31911,0.06395 1.70592,0.37138c1.04158,0.82787 0.41711,3.34702 -1.39483,5.62671z" fill="#33bcf1" stroke="#2c7fb5" stroke-width="0"/><path d="M252.1241,170.1629c-0.8552,0.88417 -2.92331,-0.23651 -4.96231,-2.2087c-2.039,-1.97217 -2.74516,-4.72817 -1.88997,-5.61235c0.09888,-0.10223 0.27239,-0.41862 0.55817,-0.35467c0.83495,0.18682 2.35024,1.33922 3.57106,2.58102c1.97523,2.00914 3.19048,5.11145 2.72306,5.5947z" fill="#33bcf1" stroke="#2c7fb5" stroke-width="0"/><path d="M251.87365,193.22369c0.03704,2.49546 -1.48504,10.10381 -3.624,10.13556c-2.13896,0.03175 -4.08481,-7.52513 -4.12185,-10.02058c-0.03704,-2.49546 1.6669,-4.54416 3.80586,-4.57591c2.13896,-0.03175 3.90295,1.96547 3.93999,4.46093z" fill="#000000" stroke="#000000" stroke-width="1.5"/><path d="M262.69028,191.64258c0.33556,2.47307 -0.2646,10.20893 -2.38437,10.49656c-2.11977,0.28763 -4.95643,-6.98191 -5.29199,-9.45498c-0.33556,-2.47307 1.11083,-4.71105 3.2306,-4.99868c2.11977,-0.28763 4.11021,1.48403 4.44577,3.95709z" fill="#000000" stroke="#000000" stroke-width="1.5"/><path d="M262.52523,185.40533c0,6.18233 -5.13401,11.1941 -11.46712,11.1941c-6.33312,0 -11.46712,-5.01177 -11.46712,-11.1941c0,-6.18233 5.13401,-11.1941 11.46712,-11.1941c6.33312,0 11.46712,5.01177 11.46712,11.1941z" fill="#2c415e" stroke="#000000" stroke-width="2.5"/><path d="M248.63565,193.56587c0,2.49572 -1.63484,10.08066 -3.77403,10.08066c-2.1392,0 -3.97268,-7.58493 -3.97268,-10.08066c0,-2.49572 1.73416,-4.51892 3.87335,-4.51892c2.1392,0 3.87335,2.02318 3.87335,4.51892z" fill="#7888ab" stroke="#000000" stroke-width="1.5"/><path d="M237.0811,195.22334c-0.83694,2.35121 -4.9207,8.94869 -6.93603,8.23132c-2.01532,-0.71737 -1.19905,-8.47795 -0.36211,-10.82916c0.83694,-2.35121 3.14916,-3.67569 5.16448,-2.95832c2.01532,0.71737 2.97059,3.20495 2.13366,5.55616z" fill="#7888ab" stroke="#000000" stroke-width="1.5"/><path d="M261.08552,180.80257c0,1.34641 -1.04782,2.43789 -2.34038,2.43789c-1.29256,0 -2.34038,-1.09148 -2.34038,-2.43789c0,-1.34641 1.04782,-2.43789 2.34038,-2.43789c1.29256,0 2.34038,1.09148 2.34038,2.43789z" fill="#ddffff" stroke="#000000" stroke-width="1.5"/><path d="M262.36654,186.50792c0,1.69549 -1.31948,3.06994 -2.94714,3.06994c-1.62766,0 -2.94714,-1.37446 -2.94714,-3.06994c0,-1.69549 1.31948,-3.06994 2.94714,-3.06994c1.62766,0 2.94714,1.37445 2.94714,3.06994z" fill="#ddffff" stroke="#000000" stroke-width="1.5"/><path d="M253.53483,186.70542c0,1.89495 -1.47471,3.43111 -3.29387,3.43111c-1.81916,0 -3.29387,-1.53616 -3.29387,-3.43111c0,-1.89495 1.47471,-3.43111 3.29387,-3.43111c1.81916,0 3.29387,1.53615 3.29387,3.43111z" fill="#ddffff" stroke="#000000" stroke-width="1.5"/><path d="M253.49397,181.0979c0,1.21136 -0.94272,2.19336 -2.10562,2.19336c-1.1629,0 -2.10562,-0.982 -2.10562,-2.19336c0,-1.21136 0.94272,-2.19335 2.10562,-2.19335c1.1629,0 2.10562,0.98199 2.10562,2.19335z" fill="#ddffff" stroke="#000000" stroke-width="1.5"/></g></g></svg>