<svg version="1.1" xmlns="http://www.w3.org/2000/svg" xmlns:xlink="http://www.w3.org/1999/xlink" width="100.54158" height="100.51902" viewBox="0,0,100.54158,100.51902"><g transform="translate(-189.72921,-129.80483)"><g data-paper-data="{&quot;isPaintingLayer&quot;:true}" fill-rule="nonzero" stroke-linejoin="miter" stroke-miterlimit="10" stroke-dasharray="" stroke-dashoffset="0" style="mix-blend-mode: normal"><path d="M191.72921,228.19517v-96.39034h96.54158v96.39034z" fill="#ffd966" stroke="#000000" stroke-width="4" stroke-linecap="butt"/><path d="M253.43199,208.11647c-0.0858,0.52212 -0.4201,0.62446 -0.67623,0.17722c-0.82933,-1.44809 -5.27186,-9.20517 -5.27186,-9.20517l7.38466,0.28438c0,0 -1.18965,7.24065 -1.43657,8.74357z" data-paper-data="{&quot;index&quot;:null}" fill="#000000" stroke="#000000" stroke-width="2" stroke-linecap="butt"/><path d="M234.12112,208.03669c-0.43226,-1.46044 -2.51475,-8.49645 -2.51475,-8.49645l7.29169,-1.20224c0,0 -3.44144,8.25015 -4.0839,9.79027c-0.19841,0.47567 -0.54287,0.41577 -0.69304,-0.0916z" fill="#000000" stroke="#000000" stroke-width="2" stroke-linecap="butt"/><path d="M235.39321,186.32765c0,6.75992 -3.72226,9.25413 -8.31391,9.25413c-2.20902,0 -5.0636,0.94762 -7.63024,-0.50557c-1.60593,-2.23165 -1.07626,-16.85997 0.72978,-19.10521c1.44741,-1.7994 4.8577,-0.31181 6.90046,-0.31181c4.59165,0 8.31391,3.90853 8.31391,10.66845z" fill="#000000" stroke="#000000" stroke-width="2" stroke-linecap="butt"/><path d="M229.23477,201.33887v-11.85501h30.1764v11.85501z" fill="#ababab" stroke="#000000" stroke-width="2.5" stroke-linecap="butt"/><path d="M256.61325,204.26086l-3.54111,-16.02269l6.95005,-2.7713c0,0 1.20198,11.80891 1.47523,14.49339c0.10512,1.03277 -0.55832,2.30544 -1.22864,2.44379c-1.52654,0.31507 -3.65553,1.85681 -3.65553,1.85681z" data-paper-data="{&quot;index&quot;:null}" fill="#894444" stroke="#000000" stroke-width="2.5" stroke-linecap="butt"/><path d="M221.23873,197.59412c0.2501,-2.4571 1.42798,-12.12725 1.42798,-12.12725h14.21163l-3.36486,18.15116c0,0 -8.2757,-4.43904 -10.40788,-4.33887c-0.94585,0.04443 -1.95598,-0.8095 -1.86687,-1.68504z" fill="#894444" stroke="#000000" stroke-width="2.5" stroke-linecap="butt"/><path d="M257.94621,162.00944c0,5.84623 -7.79133,10.58555 -17.40242,10.58555c-9.61109,0 -17.40241,-4.73931 -17.40241,-10.58555c0,-5.84623 7.79132,-10.58555 17.40241,-10.58555c9.61109,0 17.40242,4.73931 17.40242,10.58555z" fill="#000000" stroke="#000000" stroke-width="1" stroke-linecap="butt"/><path d="M222.92119,182.518v-18.2932h8.71215v18.2932z" fill="#894444" stroke="#000000" stroke-width="2.5" stroke-linecap="butt"/><path d="M222.23839,163.81051c0,-0.99318 0,-2.97329 0,-3.59407c0,-0.31371 0.27752,-0.71458 0.5335,-0.77766c0.65733,-0.16197 3.518,-0.86689 3.518,-0.86689l0.51425,6.75006c0,0 -3.29938,-0.67335 -4.0207,-0.82056c-0.26558,-0.0542 -0.54503,-0.33917 -0.54503,-0.69087z" fill="#653333" stroke="#000000" stroke-width="1.5" stroke-linecap="butt"/><path d="M230.32511,182.31042c0,0 0,-10.63575 0,-12.8116c0,-0.74379 0.4783,-1.49706 1.08096,-1.49706c3.07831,0 28.20314,0 28.20314,0v14.30867z" fill="#fcc9c4" stroke="#000000" stroke-width="1" stroke-linecap="butt"/><path d="M232.945,158.30144c1.20408,-0.02457 3.20629,-0.0666 5.56344,-0.03539c6.43185,0.08514 15.50639,0.40582 18.2193,0.39321c0.48118,-0.00224 1.06515,0.10958 1.40339,0.31989c0.40024,0.24888 1.07497,0.62123 1.47725,1.06066c0.91125,0.99541 1.62084,2.40207 1.68767,3.86824c0.05857,1.2851 -0.25484,2.61166 -0.87835,3.70197c-0.57033,0.99733 -1.49838,1.81003 -2.11557,2.19942c-0.24652,0.15553 -1.01893,0.27492 -1.29991,0.2872c-2.48593,0.10863 -5.82755,0.04908 -9.35115,0.01484c-5.13125,-0.04988 -10.64841,-0.13284 -14.4709,-0.28599c-0.26242,-0.01051 -1.15762,-0.10067 -1.46476,-0.20976c-0.27968,-0.09933 -0.56262,-0.48641 -0.85626,-0.72193c-0.17039,-0.13666 0.31379,-0.38247 0.14438,-0.55127c-1.34395,-1.33916 -3.24331,-3.51246 -3.29554,-5.34629c-0.06877,-2.41479 2.02113,-3.91598 3.76897,-4.55883c0.28379,-0.10438 1.14595,-0.12939 1.46801,-0.13597z" fill="#c16161" stroke="#000000" stroke-width="0" stroke-linecap="butt"/><path d="M259.16174,158.07907c-0.24035,0.45355 -0.95763,0.44556 -1.6021,-0.01783c-0.64447,-0.46339 -0.97207,-1.20672 -0.73173,-1.66026c0.24035,-0.45355 0.95763,-0.44556 1.6021,0.01783c0.64447,0.46339 0.97207,1.20672 0.73172,1.66027z" fill="#effbff" stroke="#000000" stroke-width="0" stroke-linecap="butt"/><path d="M235.96277,174.25709c0,-1.61742 1.31118,-2.92859 2.92859,-2.92859c1.61742,0 2.92859,1.31118 2.92859,2.92859c0,1.61742 -1.31118,2.92859 -2.92859,2.92859c-1.61742,0 -2.92859,-1.31118 -2.92859,-2.92859z" fill="#000000" stroke="none" stroke-width="0" stroke-linecap="butt"/><path d="M260.04419,167.24066v14.55572" fill="none" stroke="#000000" stroke-width="3" stroke-linecap="round"/><path d="M222.849,187.59893v-5.49333h37.58833v7.64879c0,0 -6.3229,0.0469 -8.69896,0.25832c-0.50763,0.04517 -6.776,5.93291 -7.50618,4.82671c-0.90033,-1.36397 -5.47153,-4.61876 -6.02514,-4.865c-6.23043,-2.7713 -15.35806,-2.37549 -15.35806,-2.37549z" fill="#ff4949" stroke="#000000" stroke-width="2.5" stroke-linecap="butt"/><path d="M231.02976,154.89515c1.03259,-0.02603 2.89065,-0.08141 5.1032,-0.04443c5.67406,0.09486 13.67946,0.37724 16.07274,0.36318c0.42448,-0.00249 0.67237,0.0207 0.69948,0.02681c0.82612,0.18611 2.38756,2.93195 2.49452,5.8961c0.1178,3.26462 -1.303,6.76945 -2.238,6.84655c-2.24254,0.18492 -5.50347,0.10754 -8.96327,0.06506c-4.58787,-0.05633 -9.52544,-0.15052 -12.90186,-0.3256c-0.18368,-0.00952 -0.81971,-0.08468 -1.03481,-0.17193c-1.4866,-0.603 -5.05036,-3.03336 -5.11404,-5.85682c-0.05841,-2.59003 2.96753,-5.69462 4.59287,-6.56181c0.33717,-0.17989 1.09172,-0.23214 1.28917,-0.23712z" fill="#439fc0" stroke="#000000" stroke-width="0" stroke-linecap="butt"/><path d="M234.41694,154.925c0.83346,-0.01234 2.96607,-0.09936 5.60172,-0.0553c5.67406,0.09486 13.67947,0.37723 16.07275,0.36318c0.42448,-0.00249 0.67237,0.02071 0.69948,0.02681c0.82612,0.18611 2.38756,2.93194 2.49452,5.8961c0.1178,3.26462 -1.303,6.76945 -2.238,6.84654c-2.24254,0.18492 -5.50347,0.10754 -8.96328,0.06507c-4.83745,-0.05939 -10.06369,-0.16088 -13.43874,-0.35489c-0.87998,-0.05059 -5.41046,-2.76747 -5.48334,-5.99945c-0.07053,-3.12731 4.22706,-7.00483 5.25488,-6.78807z" fill="#50bee6" stroke="#000000" stroke-width="0" stroke-linecap="butt"/><path d="M235.83279,155.60501c1.06222,-0.02457 2.82853,-0.0666 4.90797,-0.03539c5.67406,0.08514 13.67946,0.40582 16.07274,0.39321c0.42448,-0.00224 0.93966,0.10958 1.23805,0.31989c0.35309,0.24888 0.94831,0.62123 1.30321,1.06066c0.80389,0.99541 1.42988,2.40207 1.48883,3.86824c0.05167,1.2851 -0.22482,2.61167 -0.77487,3.70197c-0.50313,0.99733 -1.32184,1.81003 -1.86632,2.19942c-0.21747,0.15553 -0.89888,0.27492 -1.14676,0.28719c-2.19305,0.10863 -5.14096,0.04909 -8.24942,0.01484c-4.52669,-0.04988 -9.39383,-0.13284 -12.76597,-0.28599c-0.2315,-0.01051 -1.02122,-0.10067 -1.29218,-0.20976c-1.5257,-0.61423 -4.80203,-2.74417 -4.86392,-5.20752c-0.06067,-2.41479 3.11167,-5.32795 4.65358,-5.97081c0.25035,-0.10438 1.01093,-0.12939 1.29506,-0.13597z" fill="#ffffff" stroke="#000000" stroke-width="0" stroke-linecap="butt"/><path d="M235.72941,156.54499c1.0394,-0.02457 2.76778,-0.0666 4.80256,-0.03539c5.5522,0.08514 13.38567,0.40582 15.72755,0.39321c0.41537,-0.00224 0.91947,0.10958 1.21146,0.31989c0.34551,0.24888 0.92795,0.62123 1.27521,1.06066c0.78662,0.99541 1.39917,2.40207 1.45685,3.86824c0.05056,1.2851 -0.21999,2.61166 -0.75823,3.70197c-0.49232,0.99733 -1.29345,1.81003 -1.82623,2.19942c-0.21281,0.15553 -0.87957,0.27492 -1.12213,0.2872c-2.14595,0.10863 -5.03055,0.04908 -8.07225,0.01484c-4.42948,-0.04988 -9.19208,-0.13284 -12.4918,-0.28599c-0.22653,-0.01051 -0.99929,-0.10067 -1.26443,-0.20976c-1.49293,-0.61423 -4.6989,-2.74417 -4.75946,-5.20752c-0.05937,-2.41479 3.04484,-5.32795 4.55364,-5.97081c0.24498,-0.10438 0.98922,-0.12939 1.26724,-0.13597z" fill="#6cd8ff" stroke="#000000" stroke-width="0" stroke-linecap="butt"/><path d="M238.52533,167.92535l3.35653,-12.92455l9.71628,0.24393l-2.91489,12.86973z" fill="#effbff" stroke="none" stroke-width="0" stroke-linecap="butt"/><path d="M231.81831,154.88156c1.2345,-0.02603 3.45586,-0.08141 6.10105,-0.04443c6.78354,0.09486 16.35428,0.37724 19.21553,0.36319c0.50749,-0.00249 1.31446,0.23328 1.58961,0.49805c0.97289,0.93619 2.12926,3.1142 2.22895,5.42487c0.11687,2.709 -1.03288,5.58342 -2.06634,6.52741c-0.21197,0.19361 -0.99907,0.34426 -1.20296,0.35491c-2.64632,0.13826 -6.2818,0.06874 -10.12223,0.0293c-5.48497,-0.05633 -11.38801,-0.15052 -15.42463,-0.3256c-0.21959,-0.00952 -0.98,-0.08468 -1.23715,-0.17193c-1.77728,-0.603 -5.39475,-3.10826 -5.47087,-5.93173c-0.06983,-2.59003 2.90464,-5.61971 4.84779,-6.48689c0.4031,-0.17989 1.30519,-0.23215 1.54126,-0.23712z" fill="none" stroke="#000000" stroke-width="3" stroke-linecap="butt"/><path d="M230.63882,170.8338c0,0 -0.05272,-0.4155 -0.01559,-0.80942c0.01218,-0.12914 -0.03569,-0.28216 -0.00635,-0.39126c0.02554,-0.09494 0.03156,-0.30749 0.04182,-0.36545c0.03258,-0.18401 0.14122,-0.48101 0.14122,-0.48101c0,0 0.24807,0.25394 0.33032,0.2962c0.20414,0.10488 1.06618,0.58949 1.06618,0.58949c0,0 -0.09356,0.01925 -0.22637,-0.00172c-0.27562,-0.04351 -0.72029,-0.12236 -0.84884,0.06057c-0.20285,0.28868 -0.48239,1.10258 -0.48239,1.10258z" fill="#c16161" stroke="#000000" stroke-width="0" stroke-linecap="butt"/><path d="M259.11043,158.54095c-0.24035,0.45355 -0.95763,0.44556 -1.6021,-0.01783c-0.64447,-0.46339 -0.97207,-1.20672 -0.73173,-1.66026c0.24035,-0.45355 0.95763,-0.44556 1.6021,0.01783c0.64447,0.46339 0.97207,1.20672 0.73172,1.66027z" fill="#effbff" stroke="#000000" stroke-width="0" stroke-linecap="butt"/><path d="M223.34741,182.79468h36.33484v1.95018z" fill="#f27a7a" stroke="none" stroke-width="NaN" stroke-linecap="butt"/><path d="M250.74304,174.25709c0,-1.61742 1.31117,-2.92859 2.92859,-2.92859c1.61742,0 2.92859,1.31118 2.92859,2.92859c0,1.61742 -1.31117,2.92859 -2.92859,2.92859c-1.61742,0 -2.92859,-1.31117 -2.92859,-2.92859z" fill="#000000" stroke="none" stroke-width="0" stroke-linecap="butt"/><text transform="translate(214.96389,224.59472) scale(0.45833,0.45833)" font-size="40" xml:space="preserve" fill="#000000" fill-rule="nonzero" stroke="none" stroke-width="1" stroke-linecap="butt" stroke-linejoin="miter" stroke-miterlimit="10" stroke-dasharray="" stroke-dashoffset="0" font-family="Sans Serif" font-weight="normal" text-anchor="start" style="mix-blend-mode: normal"><tspan x="0" dy="0">コモン</tspan></text></g></g></svg>