<svg version="1.1" xmlns="http://www.w3.org/2000/svg" xmlns:xlink="http://www.w3.org/1999/xlink" width="53.52317" height="80.54401" viewBox="0,0,53.52317,80.54401"><g transform="translate(-212.34487,-139.26723)"><g stroke-miterlimit="10"><path d="M261.31473,216.7967c0,0.71944 -1.83175,1.83428 -5.25316,2.35114c-4.45799,0.67345 -11.36109,0.64886 -17.83774,0.64886c-5.5645,0 -11.29772,0.14216 -15.4405,-0.46265c-4.37979,-0.63941 -7.01404,-2.04952 -7.01404,-2.90099c0,-0.87095 2.8597,-1.82746 7.40786,-2.28018c4.10408,-0.40852 9.61678,-0.35618 15.04669,-0.35618c11.44736,0 23.09091,1.34314 23.09091,3z" fill-opacity="0.85098" fill="#423b34" stroke="#000000" stroke-width="0"/><path d="M250.93404,204.41789c0,0 -0.05727,7.9939 -0.53385,10.95107c-0.31035,1.92571 -2.40885,2.44869 -3.52541,0.86872c-1.72848,-2.44586 -5.32755,-9.64461 -5.32755,-9.64461z" fill="#000000" stroke="#000000" stroke-width="0"/><path d="M234.87754,207.45771c0,0 -4.5067,6.60268 -6.55183,8.79116c-1.33178,1.42514 -3.36518,0.6886 -3.41055,-1.24555c-0.07021,-2.99415 0.95832,-10.97648 0.95832,-10.97648z" fill="#000000" stroke="#000000" stroke-width="0"/><path d="M256.88216,187.28569c0,0 6.34668,5.32117 8.38515,7.69514c1.32745,1.54593 0.3198,3.75932 -1.70071,3.71192c-3.12785,-0.07338 -11.32294,-1.61453 -11.32294,-1.61453z" fill="#000000" stroke="#000000" stroke-width="0"/><path d="M213.83254,162.31612c0,0 0.23477,-1.2977 1.00257,-2.7797c0.4005,-0.77301 1.33629,-1.38465 1.62523,-2.34051c0.7234,-2.39318 0.42057,-5.03484 1.48615,-7.82846c1.25866,-3.2998 3.08761,-6.48457 5.05437,-7.99845c0.86602,-0.66661 2.24518,-0.87044 2.79069,-0.85245c4.22314,0.13932 13.95121,0.46026 22.36013,0.73768c3.4587,0.1141 9.03113,3.23662 11.40975,8.1359c1.44348,2.97316 1.53072,6.77839 2.28479,9.58389c0.22636,0.8422 1.14015,1.43855 1.41524,2.09364c0.72544,1.72757 0.83196,2.90662 0.83196,2.90662z" fill="#ffd253" stroke="#000000" stroke-width="2.5"/><path d="M214.80703,161.51496c0,0 0.34705,-1.10416 0.69117,-1.71239c0.3969,-0.70149 1.55456,-2.25686 1.55456,-2.25686l43.83833,1.44626c0,0 1.29635,1.62224 1.72383,2.3601c0.38115,0.6579 0.71806,1.85476 0.71806,1.85476z" fill="#fbe27d" stroke="none" stroke-width="0"/><path d="M218.57886,185.26755l0.73965,-22.41986l37.69378,1.24354l-0.73965,22.41986z" fill="#96bd79" stroke="#000000" stroke-width="2.5"/><path d="M229.11282,169.24728c0.09268,-2.8092 2.44512,-5.01138 5.25432,-4.91871c2.8092,0.09268 5.01138,2.44512 4.91871,5.25432c-0.09268,2.8092 -2.44512,5.01138 -5.25432,4.91871c-2.8092,-0.09268 -5.01138,-2.44512 -4.91871,-5.25432z" fill="#f1ffff" stroke="#000000" stroke-width="1.5"/><path d="M247.24854,170.84615c0.07642,-2.31637 2.01615,-4.1322 4.33251,-4.05578c2.31637,0.07642 4.1322,2.01615 4.05578,4.33252c-0.07642,2.31637 -2.01615,4.13219 -4.33252,4.05577c-2.31637,-0.07642 -4.13219,-2.01615 -4.05577,-4.33251z" fill="#f1ffff" stroke="#000000" stroke-width="1.5"/><path d="M230.06194,175.89848c0.68387,1.53477 0.54869,4.46386 -0.58889,5.83429c-0.56466,0.68023 -2.89519,1.49394 -3.79345,1.89419c-2.70791,1.2066 -4.41939,-0.49129 -5.44272,-2.78788c-1.02332,-2.29658 -0.11429,-4.29392 2.59362,-5.50052c2.70791,-1.2066 6.20811,-1.73667 7.23143,0.55991z" fill="#7fa866" stroke="none" stroke-width="0"/><path d="M220.93153,165.94539c0.03772,-1.1434 0.99521,-2.03972 2.1386,-2.002c1.1434,0.03772 2.03972,0.99521 2.002,2.1386c-0.03772,1.1434 -0.99521,2.03972 -2.1386,2.002c-1.1434,-0.03772 -2.03972,-0.99521 -2.002,-2.1386z" fill="#7fa866" stroke="none" stroke-width="0"/><path d="M215.27388,206.88255c0.17957,-5.44302 0.58067,-17.60089 0.66275,-20.08907c0.02866,-0.86887 0.96308,-1.72418 2.05011,-1.68832c4.23419,0.13969 31.37848,1.0352 38.67896,1.27605c1.14833,0.03788 1.77442,1.00722 1.74123,2.01351c-0.09002,2.72863 -0.51024,15.46605 -0.67594,20.48885c-0.04182,1.26763 -1.08142,2.01044 -2.2729,1.97113c-4.2322,-0.13962 -29.2548,-0.96514 -37.57956,-1.23978c-1.69002,-0.05575 -2.65806,-1.11365 -2.60465,-2.73237z" fill="#ff8819" stroke="#000000" stroke-width="2"/><path d="M216.06266,205.71959l0.19784,-5.99674l40.89442,1.34914l-0.19784,5.99674z" fill="#b8d6f1" stroke="none" stroke-width="0"/><path d="M226.05862,185.18783c2.31131,0.11522 9.92542,0.49483 11.96499,0.59651c0.96946,0.04833 1.19655,0.72883 0.42901,1.30077c-1.62218,1.20877 -7.70514,5.74147 -9.6022,7.15505c-0.35951,0.2679 -2.70496,-2.41736 -3.19605,-4.0318c-0.4724,-1.55301 -0.01969,-5.04168 0.40426,-5.02055z" fill="#96bd79" stroke="#000000" stroke-width="1"/><path d="M221.58617,191.85704c-0.18814,-0.61851 -0.40067,-2.57203 0.44397,-3.8267c1.02276,-1.51925 3.85505,-2.74278 3.85505,-2.74278c0,0 -0.6383,3.69957 -0.19704,5.15022c0.41276,1.35696 2.82809,3.86113 2.82809,3.86113c0,0 -2.40146,0.94267 -3.94538,0.44692c-1.48724,-0.47755 -2.76942,-2.18107 -2.98469,-2.8888z" fill="#ffd253" stroke="#000000" stroke-width="1"/></g></g></svg>