<svg version="1.1" xmlns="http://www.w3.org/2000/svg" xmlns:xlink="http://www.w3.org/1999/xlink" width="81.88595" height="75.47546" viewBox="0,0,81.88595,75.47546"><g transform="translate(-195.14729,-145.76235)"><g data-paper-data="{&quot;isPaintingLayer&quot;:true}" fill-rule="nonzero" stroke-linecap="butt" stroke-linejoin="miter" stroke-miterlimit="10" stroke-dasharray="" stroke-dashoffset="0" style="mix-blend-mode: normal"><path d="M262.86751,213.4857c2.44896,6.68505 -2.1019,7.0905 -8.65336,6.09351c-6.55146,-0.99699 -12.62259,-3.01889 -15.07156,-9.70394c-2.44896,-6.68505 -1.81022,-19.49217 4.74123,-18.49518c6.55146,0.99699 16.53472,15.42057 18.98368,22.10561z" fill="#ffa766" stroke="#000000" stroke-width="2.5"/><path d="M258.5329,208.61714c1.89435,5.17109 -1.62589,5.48471 -6.69365,4.71351c-5.06776,-0.77121 -9.76397,-2.33521 -11.65832,-7.5063c-1.89435,-5.17109 -1.40026,-15.07779 3.66749,-14.30659c5.06776,0.77121 12.79011,11.92829 14.68447,17.09937z" fill="#f0fa9b" stroke="#000000" stroke-width="0"/><path d="M235.74556,185.43087c13.9182,11.3465 21.56237,19.70408 13.9357,24.94349c-7.62668,5.23942 -19.49612,1.64031 -33.41433,-9.70618c-0.33643,-0.27428 -7.11262,-4.69257 -12.06423,-10.15389c-4.8581,-5.35819 -8.8855,-9.36305 -7.54458,-12.00572c2.86989,-5.65591 12.8968,-3.04386 22.20167,-0.48356c5.5128,1.5169 11.70762,3.18448 16.88577,7.40586z" fill="#f0fa9b" stroke="#000000" stroke-width="2.5"/><path d="M230.57757,187.32314c9.97548,5.78085 16.46579,13.30323 14.49651,16.8017c-1.96928,3.49847 -11.65241,1.64823 -21.6279,-4.13262c-9.97548,-5.78085 -16.46579,-13.30323 -14.49652,-16.80169c1.96928,-3.49847 11.65241,-1.64823 21.62789,4.13262z" fill="#ffa766" stroke="none" stroke-width="0"/><path d="M248.26917,190.70694c-1.50394,-4.62778 10.53437,-9.09646 17.057,-9.3318c6.52264,-0.23533 8.95312,3.71131 10.45707,8.33909c1.50394,4.62778 1.51185,8.18423 -5.01079,8.41956c-6.52264,0.23533 -20.99935,-2.79908 -22.5033,-7.42686z" data-paper-data="{&quot;index&quot;:null}" fill="#ffa766" stroke="#000000" stroke-width="2.5"/><path d="M248.39613,190.63738c-1.16337,-3.57973 8.14866,-7.0364 13.19413,-7.21844c5.04548,-0.18205 6.92552,2.87082 8.08888,6.45054c1.16337,3.57973 1.16947,6.33076 -3.87599,6.51279c-5.04548,0.18205 -16.24364,-2.16517 -17.40701,-5.7449z" data-paper-data="{&quot;index&quot;:null}" fill="#f0fa9b" stroke="#000000" stroke-width="0"/><path d="M229.97063,160.98247c0.36531,-6.71724 0.93427,-13.90985 8.73616,-13.97012c3.64533,-0.02816 6.9428,3.78324 11.54943,8.54532c4.69528,4.85374 7.47576,10.54249 7.6793,10.84207c8.42066,12.39344 8.35207,21.06601 -0.70112,24.28173c-9.0532,3.21572 -16.21401,-4.25444 -24.63467,-16.64788c-3.13284,-4.61089 -2.84552,-9.07141 -2.62909,-13.05112z" data-paper-data="{&quot;index&quot;:null}" fill="#f0fa9b" stroke="#000000" stroke-width="2.5"/><path d="M239.77482,156.29134c4.8972,-0.16073 11.48572,6.31489 14.71586,14.46371c3.23015,8.14882 1.87875,14.88505 -3.01845,15.04579c-4.8972,0.16073 -11.48572,-6.31489 -14.71586,-14.46371c-3.23015,-8.14882 -1.87875,-14.88505 3.01845,-15.04579z" data-paper-data="{&quot;index&quot;:null}" fill="#ffa766" stroke="none" stroke-width="0"/><path d="M249.48327,184.19008c6.57304,6.36476 6.50103,17.02599 6.63709,16.9611c0.35853,-0.17098 -10.68369,0.37077 -17.25672,-5.99397c-6.57304,-6.36476 -8.90171,-14.82167 -6.64592,-17.15128c2.25579,-2.3296 10.69251,-0.18061 17.26554,6.18415z" fill="#ff9900" stroke="#000000" stroke-width="1.5"/><path d="M238.39192,170.88848c3.59148,3.47768 3.60753,9.28705 0.03587,12.97558c-3.57167,3.68856 -9.37855,3.85949 -12.97002,0.3818c-3.59148,-3.47768 -3.60753,-9.28705 -0.03587,-12.97558c3.57167,-3.68856 9.37855,-3.85949 12.97002,-0.3818z" fill="#ffcc87" stroke="#000000" stroke-width="1.5"/><path d="M236.36926,173.2941c2.68551,2.60043 2.75449,6.88553 0.15408,9.57105c-2.60043,2.68551 -6.88553,2.75449 -9.57105,0.15408c-2.68551,-2.60043 -2.75449,-6.88553 -0.15408,-9.57105c2.60043,-2.68551 6.88553,-2.75449 9.57105,-0.15408z" fill="#dcf9ff" stroke="#000000" stroke-width="1.5"/><path d="M239.95979,194.65587l-1.55554,-1.50625c0,0 4.9345,-0.40673 6.42787,-1.94898c1.5312,-1.58131 2.64872,-7.42464 2.64872,-7.42464l1.55554,1.50625c0,0 -0.71658,6.13265 -2.29721,7.765c-1.42973,1.47653 -6.77939,1.6086 -6.77939,1.6086z" fill="#c58c32" stroke="#000000" stroke-width="0"/><path d="M255.12454,200.03177c0,0 -3.35297,-0.49391 -4.80355,-0.83185c-1.31471,-0.30628 -3.53246,-1.11013 -3.53246,-1.11013c0,0 3.12384,-0.94752 4.07161,-1.96259c1.07674,-1.15321 2.05139,-4.59524 2.05139,-4.59524c0,0 0.72578,1.99423 0.9825,2.98026c0.40818,1.56773 1.23052,5.51955 1.23052,5.51955z" fill="#c58c32" stroke="none" stroke-width="0"/></g></g></svg>