<svg version="1.1" xmlns="http://www.w3.org/2000/svg" xmlns:xlink="http://www.w3.org/1999/xlink" width="77.27051" height="54.63178" viewBox="0,0,77.27051,54.63178"><g transform="translate(-214.72949,-159.36822)"><g stroke-miterlimit="10"><path d="M226.65172,197.22347c0,0 -7.77462,-1.86037 -10.54787,-2.99222c-1.80594,-0.73707 -1.84169,-2.89945 -0.05045,-3.63052c2.77292,-1.13172 10.59831,-3.01281 10.59831,-3.01281z" fill="#000000" stroke="#000000" stroke-width="0"/><path d="M226.65172,182.19013c0,0 -7.77462,-1.86037 -10.54787,-2.99222c-1.80594,-0.73707 -1.84169,-2.89945 -0.05045,-3.63052c2.77292,-1.13172 10.59832,-3.01281 10.59832,-3.01281z" fill="#000000" stroke="#000000" stroke-width="0"/><path d="M244.90837,201.71125c0,0 -2.09206,8.01364 -3.36487,10.87214c-0.82886,1.86145 -3.26055,1.89831 -4.08265,0.05201c-1.27266,-2.85818 -3.38803,-10.92415 -3.38803,-10.92415z" fill="#000000" stroke="#000000" stroke-width="0"/><path d="M268.81795,160.52601c0,0 1.30474,0.19185 2.81125,0.91037c0.7858,0.37479 1.42796,1.28991 2.39283,1.54717c2.41573,0.6441 5.04597,0.25432 7.87321,1.22722c3.33951,1.14917 6.58285,2.87212 8.16076,4.78789c0.6948,0.84357 0.944,2.21526 0.944,2.76107c0,4.22544 0,13.9588 0,22.37229c0,3.46058 -2.93708,9.13295 -7.75527,11.67181c-2.92395,1.54073 -6.72423,1.75338 -9.50334,2.59955c-0.83428,0.25401 -1.40017,1.18695 -2.04584,1.4835c-1.70271,0.782 -2.87761,0.92735 -2.87761,0.92735z" fill="#ffd253" stroke="#000000" stroke-width="2"/><path d="M269.65081,161.47355c0,0 1.115,0.31045 1.73425,0.63433c0.7142,0.37355 2.30689,1.4793 2.30689,1.4793v43.86218c0,0 -1.57861,1.34913 -2.30198,1.80071c-0.64497,0.40264 -1.83007,0.77883 -1.83007,0.77883z" fill="#fbe27d" stroke="none" stroke-width="0"/><path d="M246.03552,166.02652l22.43206,0v37.71429l-22.43206,0z" fill="#96bd79" stroke="#000000" stroke-width="2"/><path d="M262.39441,176.02652c2.81073,0 5.08928,2.27855 5.08928,5.08928c0,2.81073 -2.27855,5.08928 -5.08928,5.08928c-2.81073,0 -5.08928,-2.27855 -5.08928,-5.08928c0,-2.81073 2.27855,-5.08928 5.08928,-5.08928z" fill="#f1ffff" stroke="#000000" stroke-width="1.5"/><path d="M261.3944,194.2051c2.31763,0 4.19643,1.8788 4.19643,4.19642c0,2.31762 -1.8788,4.19643 -4.19643,4.19643c-2.31763,0 -4.19642,-1.8788 -4.19642,-4.19643c0,-2.31762 1.8788,-4.19642 4.19642,-4.19642z" fill="#f1ffff" stroke="#000000" stroke-width="1.5"/><path d="M255.77812,177.19443c-1.51139,0.7341 -4.44334,0.69558 -5.85054,-0.3962c-0.69848,-0.54192 -1.58859,-2.84436 -2.01824,-3.72893c-1.29523,-2.66665 0.3453,-4.43319 2.6069,-5.53168c2.26159,-1.09849 4.28782,-0.25581 5.58305,2.41084c1.29523,2.66665 1.94042,6.14747 -0.32117,7.24596z" fill="#7fa866" stroke="none" stroke-width="0"/><path d="M265.42473,167.74081c1.14402,0 2.07143,0.92741 2.07143,2.07143c0,1.14402 -0.92741,2.07144 -2.07143,2.07144c-1.14402,0 -2.07143,-0.92741 -2.07143,-2.07144c0,-1.14402 0.92741,-2.07143 2.07143,-2.07143z" fill="#7fa866" stroke="none" stroke-width="0"/><path d="M224.3233,163.43605c5.44598,0 17.61047,0 20.1,0c0.86934,0 1.755,0.90571 1.755,1.99333c0,4.23649 0,31.39555 0,38.7c0,1.14895 -0.94815,1.80667 -1.95499,1.80667c-2.73011,0 -15.47447,0 -20.50001,0c-1.26833,0 -2.045,-1.01453 -2.045,-2.20666c0,-4.2345 0,-29.27072 0,-37.6c0,-1.69094 1.0254,-2.69334 2.645,-2.69334z" fill="#ff8819" stroke="#000000" stroke-width="1.5"/><path d="M225.51163,164.18605h6v40.91667h-6z" fill="#b8d6f1" stroke="none" stroke-width="0"/><path d="M245.79178,174.9185c-0.78286,2.17774 -3.36186,9.35183 -4.05268,11.27353c-0.32837,0.91343 -1.0455,0.93267 -1.36932,0.03191c-0.68437,-1.90374 -3.25066,-9.04252 -4.05099,-11.26884c-0.15168,-0.42191 3.09992,-1.8844 4.7874,-1.8844c1.62327,0 4.8292,1.44836 4.68561,1.84782z" fill="#96bd79" stroke="#000000" stroke-width="1"/><path d="M240.71279,168.6988c0.64649,0 2.5773,0.36516 3.53186,1.53838c1.15586,1.42062 1.5022,4.48639 1.5022,4.48639c0,0 -3.35369,-1.68731 -4.86997,-1.68731c-1.41835,0 -4.51703,1.58204 -4.51703,1.58204c0,0 -0.20301,-2.57185 0.72058,-3.90468c0.88969,-1.2839 2.89262,-2.01483 3.63236,-2.01483z" fill="#ffd253" stroke="#000000" stroke-width="1"/></g></g></svg>