<svg version="1.1" xmlns="http://www.w3.org/2000/svg" xmlns:xlink="http://www.w3.org/1999/xlink" width="75.87804" height="75.30621" viewBox="0,0,75.87804,75.30621"><g transform="translate(-212.44333,-137.01391)"><g stroke-miterlimit="10"><path d="M240.3953,203.08869c0,0 -6.81296,4.18201 -9.57429,5.34265c-1.79817,0.75581 -3.3525,-0.74794 -2.60284,-2.53149c1.16051,-2.761 5.36377,-9.62452 5.36377,-9.62452z" fill="#000000" stroke="#000000" stroke-width="0"/><path d="M229.76513,192.45851c0,0 -6.81297,4.18201 -9.57429,5.34265c-1.79817,0.75581 -3.35249,-0.74795 -2.60284,-2.53149c1.16051,-2.761 5.36377,-9.62452 5.36377,-9.62452z" fill="#000000" stroke="#000000" stroke-width="0"/><path d="M256.47804,193.35263c0,0 4.18719,7.14581 5.30844,10.06709c0.73015,1.90233 -0.96324,3.64786 -2.85009,2.92364c-2.92095,-1.12113 -10.12024,-5.32884 -10.12024,-5.32884z" fill="#000000" stroke="#000000" stroke-width="0"/><path d="M244.26231,147.32364c0,0 1.05825,-0.78693 2.63158,-1.34412c0.82066,-0.29063 1.92183,-0.09761 2.786,-0.59797c2.16362,-1.25273 3.74788,-3.3882 6.43498,-4.69942c3.17397,-1.5488 6.68567,-2.62389 9.15607,-2.38498c1.08779,0.1052 2.23394,0.89892 2.61988,1.28486c2.98784,2.98783 9.87036,9.87036 15.8196,15.8196c2.447,2.447 4.38113,8.5348 2.76941,13.73702c-0.97809,3.157 -3.51491,5.99458 -4.88171,8.55804c-0.41032,0.76953 -0.15076,1.82937 -0.39763,2.49562c-0.65103,1.75696 -1.37904,2.69052 -1.37904,2.69052z" fill="#ffd253" stroke="#000000" stroke-width="2.5"/><path d="M245.52124,147.40473c0,0 1.00795,-0.5689 1.67484,-0.77776c0.76916,-0.24087 2.67724,-0.58519 2.67724,-0.58519l31.01524,31.01524c0,0 -0.16226,2.07022 -0.35445,2.90104c-0.17136,0.74077 -0.74334,1.84477 -0.74334,1.84477z" fill="#fbe27d" stroke="none" stroke-width="0"/><path d="M232.04214,167.3227l15.86187,-15.86186l26.66803,26.66803l-15.86187,15.86186z" fill="#96bd79" stroke="#000000" stroke-width="2.5"/><path d="M250.68069,162.82628c1.98748,-1.98748 5.20985,-1.98748 7.19733,0c1.98748,1.98748 1.98748,5.20985 0,7.19733c-1.98748,1.98748 -5.20985,1.98748 -7.19733,0c-1.98748,-1.98748 -1.98748,-5.20985 0,-7.19733z" fill="#f1ffff" stroke="#000000" stroke-width="1.5"/><path d="M262.82777,176.38759c1.63881,-1.63881 4.29584,-1.63881 5.93464,0c1.63881,1.63881 1.63881,4.29583 0,5.93464c-1.63881,1.63881 -4.29583,1.63881 -5.93464,0c-1.63881,-1.63881 -1.6388,-4.29583 0,-5.93464z" fill="#f1ffff" stroke="#000000" stroke-width="1.5"/><path d="M246.82811,168.33054c-0.54962,1.5878 -2.65006,3.63376 -4.41711,3.8568c-0.87709,0.1107 -3.13457,-0.88797 -4.06387,-1.20964c-2.80147,-0.96974 -2.89057,-3.37891 -2.06813,-5.75484c0.82244,-2.37593 2.85106,-3.21283 5.65253,-2.24309c2.80147,0.96974 5.71901,2.97484 4.89657,5.35077z" fill="#7fa866" stroke="none" stroke-width="0"/><path d="M246.96457,154.82464c0.80894,-0.80894 2.1205,-0.80894 2.92944,0c0.80894,0.80894 0.80894,2.1205 0,2.92945c-0.80894,0.80894 -2.1205,0.80894 -2.92944,0c-0.80894,-0.80894 -0.80894,-2.1205 0,-2.92945z" fill="#7fa866" stroke="none" stroke-width="0"/><path d="M214.85755,180.84382c3.85089,-3.85089 12.45248,-12.45248 14.21285,-14.21285c0.61471,-0.61471 1.8814,-0.60054 2.65047,0.16852c2.99565,2.99565 22.20001,22.20001 27.36504,27.36504c0.81243,0.81243 0.60706,1.94796 -0.10488,2.6599c-1.93048,1.93048 -10.9421,10.94209 -14.49569,14.49569c-0.89684,0.89684 -2.16342,0.72865 -3.00638,-0.11431c-2.99425,-2.99425 -20.69753,-20.69753 -26.58722,-26.58722c-1.19567,-1.19567 -1.17941,-2.62954 -0.03418,-3.77477z" fill="#ff8819" stroke="#000000" stroke-width="2"/><path d="M216.22815,180.53387l4.24264,-4.24264l28.93246,28.93246l-4.24264,4.24264z" fill="#b8d6f1" stroke="none" stroke-width="0"/><path d="M238.15737,173.78263c0.98633,2.09346 4.23555,8.98994 5.10592,10.83727c0.4137,0.87809 -0.07979,1.39878 -0.9457,0.99081c-1.83007,-0.86222 -8.69259,-4.09546 -10.83275,-5.10378c-0.40559,-0.19108 0.8595,-3.52445 2.05273,-4.71768c1.14783,-1.14783 4.43891,-2.39061 4.61983,-2.00662z" fill="#96bd79" stroke="#000000" stroke-width="1"/><path d="M230.16799,172.97602c0.45713,-0.45713 2.08065,-1.56422 3.58521,-1.40961c1.82184,0.18722 4.23457,2.11014 4.23457,2.11014c0,0 -3.56453,1.17831 -4.6367,2.25048c-1.00293,1.00293 -2.07535,4.31269 -2.07535,4.31269c0,0 -1.96212,-1.67503 -2.2515,-3.27056c-0.27875,-1.53696 0.62069,-3.47009 1.14377,-3.99317z" fill="#ffd253" stroke="#000000" stroke-width="1"/></g></g></svg>