<svg version="1.1" xmlns="http://www.w3.org/2000/svg" xmlns:xlink="http://www.w3.org/1999/xlink" width="69" height="86.79572" viewBox="0,0,69,86.79572"><g transform="translate(-203.5,-141.27709)"><g stroke-miterlimit="10"><path d="M269.25,216.32281c0,4.69442 -13.9911,8.5 -31.25,8.5c-17.2589,0 -31.25,-3.80558 -31.25,-8.5c0,-4.69442 13.9911,-8.5 31.25,-8.5c17.2589,0 31.25,3.80558 31.25,8.5z" fill="none" stroke="#f71933" stroke-width="6.5"/><path d="M261.23139,216.49814c0,0.71944 -1.83175,1.83428 -5.25316,2.35114c-4.45799,0.67345 -11.36109,0.64886 -17.83774,0.64886c-5.5645,0 -11.29772,0.14216 -15.4405,-0.46265c-4.37979,-0.63941 -7.01404,-2.04952 -7.01404,-2.90099c0,-0.87095 2.8597,-1.82746 7.40786,-2.28018c4.10408,-0.40852 9.61678,-0.35618 15.04669,-0.35618c11.44736,0 23.09091,1.34314 23.09091,3z" fill-opacity="0.85098" fill="#423b34" stroke="#000000" stroke-width="0"/><path d="M249.96046,206.45003c0,0 -3.74868,7.06067 -5.53916,9.46196c-1.16597,1.56371 -3.26836,1.05662 -3.52739,-0.86064c-0.40099,-2.96801 -0.26175,-11.01512 -0.26175,-11.01512z" fill="#000000" stroke="#000000" stroke-width="0"/><path d="M233.81403,203.74981c0,0 0.95906,7.93637 0.86213,10.93013c-0.06312,1.94954 -2.07815,2.73495 -3.38644,1.30968c-2.02528,-2.20638 -6.51,-8.8894 -6.51,-8.8894z" fill="#000000" stroke="#000000" stroke-width="0"/><path d="M253.55735,187.08676c0,0 8.2518,-0.70926 11.3714,-0.46604c2.03148,0.1584 2.87969,2.43765 1.41478,3.83003c-2.26777,2.15548 -9.16136,6.84727 -9.16136,6.84727z" fill="#000000" stroke="#000000" stroke-width="0"/><path d="M212.91984,163.7873c0,0 0.14799,-1.31044 0.81559,-2.8402c0.34823,-0.79793 1.2413,-1.47041 1.46606,-2.44336c0.56273,-2.43597 0.08499,-5.05166 0.96253,-7.90993c1.03655,-3.37617 2.64977,-6.67545 4.51156,-8.31672c0.8198,-0.7227 2.18236,-1.01775 2.72786,-1.03605c4.22306,-0.14169 13.95095,-0.46806 22.35971,-0.75018c3.45863,-0.11604 9.22629,2.62919 11.92529,7.35954c1.63791,2.87064 1.97788,6.66165 2.91675,9.41083c0.28184,0.82529 1.23324,1.35958 1.55127,1.99495c0.83866,1.67553 1.02332,2.8449 1.02332,2.8449z" fill="#ffd253" stroke="#000000" stroke-width="2"/><path d="M213.83892,162.92314c0,0 0.27289,-1.12478 0.57582,-1.75454c0.34939,-0.72632 1.40111,-2.3552 1.40111,-2.3552l43.83751,-1.47076c0,0 1.4013,1.53248 1.87689,2.24031c0.42404,0.63111 0.83976,1.80293 0.83976,1.80293z" fill="#fbe27d" stroke="none" stroke-width="0"/><path d="M219.18119,186.3725l-0.75218,-22.41945l37.69308,-1.26462l0.75218,22.41945z" fill="#96bd79" stroke="#000000" stroke-width="2"/><path d="M228.62703,169.68749c-0.09425,-2.80915 2.10662,-5.16282 4.91577,-5.25707c2.80915,-0.09425 5.16282,2.10662 5.25707,4.91577c0.09425,2.80915 -2.10662,5.16282 -4.91577,5.25707c-2.80915,0.09425 -5.16282,-2.10662 -5.25707,-4.91577z" fill="#f1ffff" stroke="#000000" stroke-width="1.5"/><path d="M246.82892,170.07739c-0.07771,-2.31633 1.73703,-4.25707 4.05335,-4.33478c2.31633,-0.07771 4.25707,1.73703 4.33478,4.05336c0.07771,2.31633 -1.73703,4.25706 -4.05336,4.33477c-2.31633,0.07771 -4.25706,-1.73703 -4.33477,-4.05335z" fill="#f1ffff" stroke="#000000" stroke-width="1.5"/><path d="M230.01613,176.2609c0.78437,1.48592 0.84418,4.41752 -0.1998,5.86054c-0.51819,0.71626 -2.78949,1.68307 -3.65916,2.14214c-2.62172,1.38392 -4.44228,-0.19645 -5.61598,-2.41995c-1.17371,-2.22348 -0.39944,-4.27683 2.22228,-5.66075c2.62172,-1.38392 6.07895,-2.14546 7.25265,0.07802z" fill="#7fa866" stroke="none" stroke-width="0"/><path d="M220.24436,166.93669c-0.03836,-1.14338 0.85743,-2.10136 2.00081,-2.13972c1.14338,-0.03836 2.10136,0.85743 2.13972,2.00081c0.03836,1.14338 -0.85743,2.10136 -2.00081,2.13972c-1.14338,0.03836 -2.10136,-0.85743 -2.13972,-2.00081z" fill="#7fa866" stroke="none" stroke-width="0"/><path d="M217.32022,208.15937c-0.18261,-5.44292 -0.59051,-17.60057 -0.67398,-20.0887c-0.02915,-0.86885 0.84635,-1.78438 1.93336,-1.82085c4.23411,-0.14206 31.3779,-1.05274 38.67824,-1.29767c1.1483,-0.03853 1.83745,0.88705 1.87121,1.89332c0.09154,2.72857 0.51888,15.46576 0.6874,20.48847c0.04253,1.26761 -0.9454,2.07787 -2.13686,2.11784c-4.23212,0.14199 -29.25426,0.98149 -37.57886,1.26078c-1.68999,0.0567 -2.7262,-0.93451 -2.78051,-2.5532z" fill="#ff8819" stroke="#000000" stroke-width="1.5"/><path d="M218.02995,206.94656l-0.20119,-5.99663l40.89366,-1.372l0.20119,5.99663z" fill="#b8d6f1" stroke="none" stroke-width="0"/><path d="M229.99912,187.41397c1.80316,1.45052 7.74329,6.22899 9.33446,7.50897c0.75633,0.60842 0.54053,1.29258 -0.41659,1.3048c-2.02285,0.02581 -9.60826,0.12262 -11.97388,0.15281c-0.44831,0.00573 -0.76993,-3.5451 -0.21937,-5.14023c0.52961,-1.53445 2.94466,-4.09242 3.27542,-3.82636z" fill="#96bd79" stroke="#000000" stroke-width="1"/><path d="M222.46269,190.18582c0.21092,-0.61112 1.18605,-2.31714 2.6065,-2.8367c1.71999,-0.62913 4.731,0.04372 4.731,0.04372c0,0 -2.68914,2.61968 -3.18384,4.053c-0.46274,1.34074 0.02176,4.78601 0.02176,4.78601c0,0 -2.49736,-0.64717 -3.45593,-1.95508c-0.92339,-1.25989 -0.96085,-3.39168 -0.7195,-4.09095z" fill="#ffd253" stroke="#000000" stroke-width="1"/></g></g></svg>