<svg version="1.1" xmlns="http://www.w3.org/2000/svg" xmlns:xlink="http://www.w3.org/1999/xlink" width="41.27872" height="51.03476" viewBox="0,0,41.27872,51.03476"><g transform="translate(-221.91921,-157.93227)"><g stroke-miterlimit="10"><path d="M255.08422,201.99208c0,3.85216 -6.93958,6.97495 -15.5,6.97495c-8.56042,0 -15.5,-3.12279 -15.5,-6.97495c0,-3.85216 6.93958,-6.97495 15.5,-6.97495c8.56042,0 15.5,3.12279 15.5,6.97495z" fill-opacity="0.85098" fill="#423b34" stroke="#000000" stroke-width="0"/><path d="M237.87892,170.0984c1.57231,5.70532 -0.40734,10.44102 -4.42165,10.57748c-4.01432,0.13646 -8.54316,-4.37797 -10.11547,-10.0833c-1.57231,-5.70532 0.40734,-10.44102 4.42164,-10.57748c4.01432,-0.13646 8.54317,4.37798 10.11547,10.0833z" fill="#ffffff" stroke="#000000" stroke-width="2"/><path d="M236.56895,166.77451c0.13785,-6.21813 2.60357,-7.98206 5.34644,-7.83376c0.29226,0.0158 0.57586,0.05268 0.84919,0.11346c2.29185,0.5098 3.86033,2.70174 3.73717,8.25733c-0.13785,6.21813 -7.69664,12.17011 -5.216,10.99041c0.72864,-0.34651 -4.85464,-5.30929 -4.71679,-11.52743z" fill="#ffffff" stroke="#000000" stroke-width="2"/><path d="M254.49398,169.62667c2.10783,0 3.81658,1.88551 3.81658,4.2114c0,2.32589 -1.70875,4.21139 -3.81658,4.21139c-2.10784,0 -3.81658,-1.88551 -3.81658,-4.21139c0,-2.32589 1.70875,-4.2114 3.81658,-4.2114z" fill="#ffffff" stroke="#000000" stroke-width="2"/><path d="M238.7635,168.6742c8.75056,0 15.84428,7.25153 15.84428,16.19676c0,8.94523 -7.09372,16.19676 -15.84428,16.19676c-8.75056,0 -15.84429,-7.25153 -15.84429,-16.19676c0,-8.94523 7.09373,-16.19676 15.84429,-16.19676z" fill="#c81a86" stroke="#000000" stroke-width="2"/><path d="M240.65898,184.68606c4.22579,4.02178 5.26311,9.79161 2.31692,12.88724c-2.9462,3.09564 -8.76024,2.34485 -12.98602,-1.67694c-4.22579,-4.02178 -5.26311,-9.79161 -2.31692,-12.88724c2.9462,-3.09564 8.76023,-2.34485 12.98602,1.67694z" fill="#fc2893" stroke="none" stroke-width="0"/><path d="M241.19627,190.53687c-3.35939,0 -6.08271,-2.85949 -6.08271,-6.38685c0,-3.52736 2.72333,-6.38684 6.08272,-6.38684c3.35939,0 6.08271,2.85948 6.08271,6.38684c0,3.52736 -2.72332,6.38685 -6.08271,6.38685z" fill="#ab1070" stroke="none" stroke-width="0"/><path d="M244.44957,193.15567c2.10343,-1.42016 4.12233,-1.5993 4.50936,-0.40011c0.38701,1.19919 -1.0044,3.32259 -3.10783,4.74275c-2.10343,1.42016 -4.12233,1.5993 -4.50936,0.40011c-0.38701,-1.19919 1.0044,-3.32258 3.10783,-4.74274z" fill="#ab1070" stroke="none" stroke-width="0"/><path d="M228.81476,185.6239c0.94967,0 1.71953,1.20977 1.71953,2.70211c0,1.49234 -0.76986,2.70212 -1.71953,2.70212c-0.94967,0 -1.71953,-1.20978 -1.71953,-2.70212c0,-1.49234 0.76986,-2.70211 1.71953,-2.70211z" fill="#ab1070" stroke="none" stroke-width="0"/><path d="M229.59267,174.37294c1.63438,-1.52961 3.71084,-1.96663 4.63787,-0.97609c0.92704,0.99053 0.35362,3.03352 -1.28077,4.56313c-1.63438,1.52961 -3.71084,1.96663 -4.63787,0.97609c-0.92704,-0.99053 -0.35362,-3.03352 1.28077,-4.56313z" fill="#ffffff" stroke="none" stroke-width="0"/><path d="M242.07974,178.86859c0,-0.39579 -0.25895,-0.83491 -0.27733,-1.30141c-0.11397,-2.8919 -0.7423,-6.59083 0.7632,-7.79342c0.29118,-0.23258 1.13509,-0.60826 1.56119,-0.60826c2.98469,0 8.84332,6.87053 8.84332,10.19438c0,3.32387 -2.50145,5.52708 -5.48613,5.52708c-2.98469,0 -5.40425,-2.69452 -5.40425,-6.01837z" fill="#590e31" stroke="none" stroke-width="0"/><path d="M248.0367,167.08711c2.59963,0 4.70705,2.32542 4.70705,5.19399c0,2.86856 -2.10742,5.19399 -4.70705,5.19399c-2.59963,0 -4.70705,-2.32542 -4.70705,-5.19399c0,-2.86856 2.10742,-5.19399 4.70705,-5.19399z" fill="#ffffff" stroke="#000000" stroke-width="2"/><path d="M254.04549,176.4227c1.17252,1.12943 8.28349,13.15233 8.1506,13.13775c-0.61699,-0.06765 -11.57937,-7.2315 -12.75189,-8.36093c-1.17252,-1.12943 -1.09299,-3.11434 0.17761,-4.43343c1.27062,-1.31908 3.25116,-1.47282 4.42367,-0.34339z" fill="#ffffff" stroke="#000000" stroke-width="2"/></g></g></svg>