<svg version="1.1" xmlns="http://www.w3.org/2000/svg" xmlns:xlink="http://www.w3.org/1999/xlink" width="44.80424" height="46.92684" viewBox="0,0,44.80424,46.92684"><g transform="translate(-218.44576,-157.5143)"><g stroke-miterlimit="10"><path d="M263.25,201.1078c0,1.84095 -9.17816,3.33333 -20.5,3.33333c-11.32184,0 -20.5,-1.49238 -20.5,-3.33333c0,-1.84095 9.17816,-3.33334 20.5,-3.33334c11.32184,0 20.5,1.49238 20.5,3.33334z" fill-opacity="0.85098" fill="#423b34" stroke="#000000" stroke-width="0"/><path d="M222.13083,181.32383c-0.59808,-1.94851 0.49665,-4.01293 2.44516,-4.61102c0.04521,-0.01388 1.64246,-0.50321 3.306,-1.01198c1.46733,-0.44876 3.38378,-0.32086 3.61611,0.63673c0.05456,0.22487 1.27605,1.8003 0.93566,1.93188c-0.05518,0.02133 -1.83828,4.31418 -3.90166,4.94898c-1.00637,0.30961 -1.76225,0.54198 -1.79026,0.55057c-1.94851,0.59808 -4.01292,-0.49665 -4.61101,-2.44516z" fill="#a9e84b" stroke="#5c8542" stroke-width="1.5"/><path d="M219.9882,164.78383c1.61434,-2.76231 5.16232,-3.69293 7.92463,-2.07859c0.13388,0.07825 9.86654,5.77323 9.99174,5.86025c2.45787,1.70837 3.226,5.04815 1.68991,7.67657c-1.54355,2.64118 -4.85487,3.60779 -7.55693,2.27633c-0.12392,-0.06107 -9.84964,-5.73915 -9.97076,-5.80994c-2.76231,-1.61434 -3.69293,-5.16231 -2.07859,-7.92462z" fill="#a9e84b" stroke="#5c8542" stroke-width="1.5"/><path d="M236.97597,201.51459c0,0 -2.14865,-0.34108 -3.80438,-1.20277c-1.41335,-0.73556 -2.36579,-1.91829 -2.43071,-2.84889c-0.03359,-0.48148 0.4252,-1.01516 1.49337,-0.90043c0.59246,0.06364 1.11347,0.36593 2.07422,0.68232c0.73778,0.24296 1.61632,0.47181 1.80104,0.10845c0.07119,-0.14004 0.68925,-0.50563 0.95897,-0.82079c0.46767,-0.54647 0.64049,-1.69213 0.51154,-2.55161c-0.09716,-0.64758 0.25456,-1.88674 -0.04073,-3.14982c-0.45311,-1.93817 -1.58306,-3.9327 -1.58306,-3.9327c0,0 -0.41037,-2.28271 0.37355,-3.87839c1.02553,-2.08747 3.38359,-3.62161 4.1891,-3.62161c0.89116,0 2.78718,-1.24602 4.68449,0.06173c2.61122,1.79983 2.2249,7.43827 2.2249,7.43827c0,0 3.32833,4.08021 4.22192,6.17937c0.65229,1.53231 2.03454,2.7571 1.76307,5.17851c-0.04806,0.42867 -1.27327,1.82717 -2.81616,2.43304c-2.10705,0.82741 -4.69844,0.82532 -4.69844,0.82532z" fill="#98af3b" stroke="#000000" stroke-width="1.5"/><path d="M238.39819,191.9892v-1.16477c0,0 3.68409,0 4.69029,0c0.47742,0 0.47742,1.16477 0,1.16477c-1.0062,0 -4.69029,0 -4.69029,0z" fill="#7d9033" stroke="none" stroke-width="0"/><path d="M227.23182,172.7643c0,-8.00813 6.49187,-14.5 14.5,-14.5c8.00813,0 14.5,6.49187 14.5,14.5c0,8.00813 -6.49187,14.5 -14.5,14.5c-8.00813,0 -14.5,-6.49187 -14.5,-14.5z" fill="#b231bb" stroke="#000000" stroke-width="1.5"/><path d="M238.24213,161.39725c0,-1.84095 1.49239,-3.33334 3.33334,-3.33334c1.84095,0 3.33334,1.49239 3.33334,3.33334c0,1.84095 -1.49239,3.33333 -3.33334,3.33333c-1.84095,0 -3.33334,-1.49238 -3.33334,-3.33333z" fill="#f1ffff" stroke="#000000" stroke-width="1"/><path d="M247.07546,162.31392c0,-1.42674 1.1566,-2.58334 2.58334,-2.58334c1.42674,0 2.58333,1.1566 2.58333,2.58334c0,1.42674 -1.15659,2.58333 -2.58333,2.58333c-1.42674,0 -2.58334,-1.15659 -2.58334,-2.58333z" fill="#f1ffff" stroke="#000000" stroke-width="1"/><path d="M230.84372,164.49211c3.49762,0.4474 5.7964,3.602 5.34901,7.09963c-0.4474,3.49762 -3.64548,5.97032 -7.1431,5.52292c-0.8306,-0.10625 -1.39596,-3.01973 -1.08804,-5.87023c0.26815,-2.48233 0.91066,-4.23994 1.6865,-5.39575c0.30003,-0.44696 0.9418,-1.38904 1.19564,-1.35657z" fill="#8a2a72" stroke="none" stroke-width="0"/><path d="M232.92858,179.53462c0,-0.92048 0.74619,-1.66666 1.66666,-1.66666c0.92048,0 1.66666,0.74619 1.66666,1.66666c0,0.92048 -0.74619,1.66667 -1.66666,1.66667c-0.92048,0 -1.66666,-0.7462 -1.66666,-1.66667z" fill="#8a2a72" stroke="#000000" stroke-width="0"/><path d="M259.06239,172.35827c0,5.47397 -3.02208,9.91151 -6.75,9.91151c-3.72792,0 -6.75,-4.43753 -6.75,-9.91151c0,-5.47397 3.02208,-9.91151 6.75,-9.91151c3.72792,0 6.75,4.43753 6.75,9.91151z" fill="#ffded9" stroke="#000000" stroke-width="1"/><path d="M256.62862,172.35827c0,3.50029 -1.49239,6.33783 -3.33334,6.33783c-1.84095,0 -3.33334,-2.83754 -3.33334,-6.33783c0,-3.50029 1.49239,-6.33784 3.33334,-6.33784c1.84095,0 3.33334,2.83755 3.33334,6.33784z" fill="#000000" stroke="#000000" stroke-width="0"/></g></g></svg>