<svg version="1.1" xmlns="http://www.w3.org/2000/svg" xmlns:xlink="http://www.w3.org/1999/xlink" width="24.24999" height="23.95834" viewBox="0,0,24.24999,23.95834"><g transform="translate(-227.875,-168.02084)"><g data-paper-data="{&quot;isPaintingLayer&quot;:true}" fill-rule="nonzero" stroke-linejoin="miter" stroke-miterlimit="10" stroke-dasharray="" stroke-dashoffset="0" style="mix-blend-mode: normal"><path d="M230.07936,186.02605c0,-4.04334 0,-10.03367 0,-12.25c0,-1.6442 2.09322,-3.63417 3.79564,-3.63417c2.22303,0 8.0944,0 12.08333,0c2.29186,0 3.9623,1.98997 3.9623,3.63417c0,2.21633 0,8.20666 0,12.25c0,2.29111 -2.09321,3.9571 -3.79563,3.9571c-2.26995,0 -8.34387,0 -12.33333,0c-2.16234,0 -3.71231,-1.66598 -3.71231,-3.9571z" fill="none" stroke="#6ce830" stroke-width="1.5" stroke-linecap="butt"/><path d="M234.02966,183.44272c0,-1.40135 0,-4.94967 0,-7.25c0,-1.22815 1.35306,-2.10056 2.42867,-2.10056c1.34999,0 4.81343,0 7.16667,0c1.35735,0 2.34534,1.14273 2.34534,2.10056c0,1.30628 0,4.87327 0,7.33333c0,1.44412 -1.29905,2.5068 -2.34534,2.5068c-1.33186,0 -4.78773,0 -7.16667,0c-1.40113,0 -2.42867,-1.4588 -2.42867,-2.59013z" fill="none" stroke="#6ce830" stroke-width="1" stroke-linecap="butt"/><path d="M238.875,180.06251c0,-0.62132 0.50368,-1.125 1.125,-1.125c0.62132,0 1.125,0.50368 1.125,1.125c0,0.62132 -0.50368,1.125 -1.125,1.125c-0.62132,0 -1.125,-0.50368 -1.125,-1.125z" fill="#6ce830" stroke="#000000" stroke-width="0" stroke-linecap="butt"/><path d="M228.125,179.99528h8.58334" fill="none" stroke="#6ce830" stroke-width="0.5" stroke-linecap="round"/><path d="M243.29166,180.12973h8.58334" fill="none" stroke="#6ce830" stroke-width="0.5" stroke-linecap="round"/><path d="M240.08403,183.47918v8.25" fill="none" stroke="#6ce830" stroke-width="0.5" stroke-linecap="round"/><path d="M240.08403,168.27084v8.25" fill="none" stroke="#6ce830" stroke-width="0.5" stroke-linecap="round"/></g></g></svg>