<svg version="1.1" xmlns="http://www.w3.org/2000/svg" xmlns:xlink="http://www.w3.org/1999/xlink" width="41.92846" height="47.17684" viewBox="0,0,41.92846,47.17684"><g transform="translate(-221.32154,-157.2643)"><g stroke-miterlimit="10"><path d="M263.25,201.10781c0,1.84095 -9.17817,3.33333 -20.5,3.33333c-11.32183,0 -20.5,-1.49238 -20.5,-3.33333c0,-1.84095 9.17817,-3.33334 20.5,-3.33334c11.32183,0 20.5,1.49239 20.5,3.33334z" fill-opacity="0.85098" fill="#423b34" stroke="#000000" stroke-width="0"/><path d="M224.46417,181.32383c-0.59808,-1.94851 0.49665,-4.01292 2.44516,-4.61101c0.04521,-0.01388 1.64246,-0.50321 3.306,-1.01198c1.46733,-0.44876 3.38378,-0.32086 3.61611,0.63673c0.05456,0.22487 1.27605,1.8003 0.93566,1.93188c-0.05518,0.02133 -1.83828,4.31418 -3.90166,4.94898c-1.00637,0.30961 -1.76225,0.54198 -1.79026,0.55057c-1.94851,0.59808 -4.01292,-0.49666 -4.61101,-2.44517z" fill="#a9e84b" stroke="#5c8542" stroke-width="2"/><path d="M222.32154,164.78383c1.61434,-2.76231 5.16232,-3.69293 7.92463,-2.07859c0.13388,0.07825 9.86654,5.77323 9.99174,5.86025c2.45787,1.70837 3.226,5.04815 1.68991,7.67657c-1.54355,2.64118 -4.85487,3.60779 -7.55693,2.27633c-0.12392,-0.06107 -9.84964,-5.73915 -9.97076,-5.80994c-2.76231,-1.61434 -3.69293,-5.16231 -2.07859,-7.92462z" fill="#a9e84b" stroke="#5c8542" stroke-width="2"/><path d="M235.85097,201.5146c0,0 -2.14865,-0.34108 -3.80438,-1.20277c-1.41335,-0.73556 -2.36579,-1.91829 -2.43071,-2.84889c-0.03069,-0.43997 0.9153,-1.79334 2.05045,-1.72895c0.10709,0.00607 1.51124,-0.13182 1.59406,-0.10454c0.73778,0.24296 3.09281,-1.48139 2.96386,-2.34087c-0.09716,-0.64758 0.48533,-1.19443 0.19004,-2.45751c-0.45311,-1.93817 -1.58306,-3.9327 -1.58306,-3.9327c0,0 -0.41037,-2.28271 0.37355,-3.87839c1.02553,-2.08747 3.38359,-3.62161 4.1891,-3.62161c0.89116,0 2.78718,-1.24602 4.68449,0.06173c2.61122,1.79983 2.2249,7.43827 2.2249,7.43827c0,0 1.48218,3.31098 2.37577,5.41014c0.65229,1.53231 1.03454,2.83402 0.76307,5.25543c-0.04806,0.42867 -0.27327,2.59641 -1.81616,3.20228c-2.10705,0.82741 -5.69844,0.74839 -5.69844,0.74839z" fill="#98af3b" stroke="#000000" stroke-width="2"/><path d="M237.27319,191.98921v-1.16477c0,0 3.68409,0 4.69029,0c0.47742,0 0.47742,1.16477 0,1.16477c-1.0062,0 -4.69029,0 -4.69029,0z" fill="#7d9033" stroke="none" stroke-width="0"/><path d="M229.56516,172.76431c0,-8.00813 6.49187,-14.50001 14.5,-14.50001c8.00813,0 14.5,6.49188 14.5,14.50001c0,8.00813 -6.49187,14.5 -14.5,14.5c-8.00813,0 -14.5,-6.49187 -14.5,-14.5z" fill="#b231bb" stroke="#000000" stroke-width="2"/><path d="M240.57547,161.39726c0,-1.84095 1.49239,-3.33334 3.33334,-3.33334c1.84095,0 3.33334,1.49239 3.33334,3.33334c0,1.84095 -1.49239,3.33333 -3.33334,3.33333c-1.84095,0 -3.33334,-1.49238 -3.33334,-3.33333z" fill="#f1ffff" stroke="#000000" stroke-width="1"/><path d="M249.4088,162.31392c0,-1.42674 1.1566,-2.58334 2.58334,-2.58334c1.42674,0 2.58333,1.1566 2.58333,2.58334c0,1.42674 -1.15659,2.58333 -2.58333,2.58333c-1.42674,0 -2.58334,-1.15659 -2.58334,-2.58333z" fill="#f1ffff" stroke="#000000" stroke-width="1"/><path d="M233.17706,164.49211c3.49762,0.4474 5.7964,3.602 5.34901,7.09963c-0.4474,3.49762 -3.64548,5.97032 -7.1431,5.52292c-0.8306,-0.10625 -1.39596,-3.01972 -1.08804,-5.87022c0.26815,-2.48233 0.91066,-4.23994 1.6865,-5.39575c0.30003,-0.44696 0.9418,-1.38904 1.19564,-1.35657z" fill="#8a2a72" stroke="none" stroke-width="0"/><path d="M235.26192,179.53463c0,-0.92048 0.74619,-1.66666 1.66666,-1.66666c0.92048,0 1.66666,0.7462 1.66666,1.66666c0,0.92048 -0.74619,1.66667 -1.66666,1.66667c-0.92048,0 -1.66666,-0.7462 -1.66666,-1.66667z" fill="#8a2a72" stroke="#000000" stroke-width="0"/><path d="M261.39573,172.35828c0,5.47397 -3.02208,9.91151 -6.75,9.91151c-3.72792,0 -6.75,-4.43753 -6.75,-9.91151c0,-5.47397 3.02208,-9.91151 6.75,-9.91151c3.72792,0 6.75,4.43753 6.75,9.91151z" fill="#ffded9" stroke="#000000" stroke-width="1"/><path d="M258.96196,172.35828c0,3.50029 -1.49239,6.33783 -3.33334,6.33783c-1.84095,0 -3.33334,-2.83754 -3.33334,-6.33783c0,-3.50029 1.49239,-6.33784 3.33334,-6.33784c1.84095,0 3.33334,2.83755 3.33334,6.33784z" fill="#000000" stroke="#000000" stroke-width="0"/></g></g></svg>