<svg version="1.1" xmlns="http://www.w3.org/2000/svg" xmlns:xlink="http://www.w3.org/1999/xlink" width="69" height="88.3195" viewBox="0,0,69,88.3195"><g transform="translate(-203.5,-139.75331)"><g stroke-miterlimit="10"><path d="M269.25,216.32282c0,4.69442 -13.9911,8.5 -31.25,8.5c-17.2589,0 -31.25,-3.80558 -31.25,-8.5c0,-4.69442 13.9911,-8.5 31.25,-8.5c17.2589,0 31.25,3.80558 31.25,8.5z" fill="none" stroke="#f71933" stroke-width="6.5"/><path d="M261.31473,216.79671c0,0.71944 -1.83175,1.83428 -5.25316,2.35114c-4.45799,0.67345 -11.36109,0.64886 -17.83774,0.64886c-5.5645,0 -11.29772,0.14216 -15.4405,-0.46265c-4.37979,-0.63941 -7.01404,-2.04952 -7.01404,-2.90099c0,-0.87095 2.8597,-1.82746 7.40786,-2.28018c4.10408,-0.40852 9.61678,-0.35618 15.04669,-0.35618c11.44736,0 23.09091,1.34314 23.09091,3z" fill-opacity="0.85098" fill="#423b34" stroke="#000000" stroke-width="0"/><path d="M250.10409,205.3516c0,0 -1.86037,7.77462 -2.99222,10.54787c-0.73706,1.80594 -2.89945,1.84169 -3.63052,0.05045c-1.13172,-2.77292 -3.01281,-10.59832 -3.01281,-10.59832z" fill="#000000" stroke="#000000" stroke-width="0"/><path d="M235.07075,205.3516c0,0 -1.86037,7.77462 -2.99222,10.54787c-0.73706,1.80594 -2.89945,1.84169 -3.63052,0.05045c-1.13172,-2.77292 -3.01281,-10.59832 -3.01281,-10.59832z" fill="#000000" stroke="#000000" stroke-width="0"/><path d="M254.59187,187.09496c0,0 8.01364,2.09206 10.87214,3.36487c1.86145,0.82886 1.89831,3.26055 0.05201,4.08265c-2.85818,1.27266 -10.92415,3.38803 -10.92415,3.38803z" fill="#000000" stroke="#000000" stroke-width="0"/><path d="M213.40663,163.18536c0,0 0.19185,-1.30474 0.91037,-2.81125c0.37479,-0.7858 1.28991,-1.42796 1.54717,-2.39283c0.6441,-2.41573 0.25433,-5.04597 1.22722,-7.87321c1.14917,-3.33951 2.87212,-6.58285 4.78789,-8.16076c0.84357,-0.6948 2.21526,-0.944 2.76107,-0.944c4.22544,0 13.9588,0 22.37229,0c3.46058,0 9.13294,2.93708 11.67181,7.75527c1.54073,2.92395 1.75339,6.72423 2.59955,9.50334c0.25401,0.83428 1.18696,1.40017 1.4835,2.04584c0.78201,1.70271 0.92735,2.87761 0.92735,2.87761z" fill="#ffd253" stroke="#000000" stroke-width="2.5"/><path d="M214.35417,162.35251c0,0 0.31045,-1.115 0.63433,-1.73425c0.37355,-0.7142 1.4793,-2.30689 1.4793,-2.30689h43.86218c0,0 1.34913,1.57861 1.80071,2.30198c0.40264,0.64497 0.77883,1.83007 0.77883,1.83007z" fill="#fbe27d" stroke="none" stroke-width="0"/><path d="M218.90714,185.96781v-22.43206h37.71429v22.43206z" fill="#96bd79" stroke="#000000" stroke-width="2.5"/><path d="M228.90714,169.60892c0,-2.81073 2.27855,-5.08928 5.08928,-5.08928c2.81073,0 5.08928,2.27855 5.08928,5.08928c0,2.81073 -2.27855,5.08928 -5.08928,5.08928c-2.81073,0 -5.08928,-2.27855 -5.08928,-5.08928z" fill="#f1ffff" stroke="#000000" stroke-width="1.5"/><path d="M247.08572,170.60893c0,-2.31763 1.8788,-4.19643 4.19642,-4.19643c2.31763,0 4.19643,1.8788 4.19643,4.19643c0,2.31763 -1.8788,4.19642 -4.19643,4.19642c-2.31763,0 -4.19642,-1.8788 -4.19642,-4.19642z" fill="#f1ffff" stroke="#000000" stroke-width="1.5"/><path d="M230.07505,176.22521c0.7341,1.51139 0.69558,4.44334 -0.3962,5.85054c-0.54192,0.69848 -2.84436,1.58859 -3.72893,2.01824c-2.66665,1.29523 -4.43319,-0.3453 -5.53168,-2.6069c-1.09849,-2.26159 -0.25581,-4.28782 2.41084,-5.58305c2.66665,-1.29523 6.14747,-1.94042 7.24596,0.32117z" fill="#7fa866" stroke="none" stroke-width="0"/><path d="M220.62143,166.57859c0,-1.14402 0.92741,-2.07143 2.07143,-2.07143c1.14402,0 2.07143,0.92741 2.07143,2.07143c0,1.14402 -0.92741,2.07143 -2.07143,2.07143c-1.14402,0 -2.07143,-0.92741 -2.07143,-2.07143z" fill="#7fa866" stroke="none" stroke-width="0"/><path d="M216.31667,207.68003c0,-5.44598 0,-17.61047 0,-20.1c0,-0.86934 0.90571,-1.755 1.99333,-1.755c4.23649,0 31.39555,0 38.7,0c1.14895,0 1.80667,0.94816 1.80667,1.955c0,2.73011 0,15.47446 0,20.5c0,1.26832 -1.01454,2.045 -2.20667,2.045c-4.2345,0 -29.27072,0 -37.6,0c-1.69094,0 -2.69333,-1.0254 -2.69333,-2.645z" fill="#ff8819" stroke="#000000" stroke-width="2"/><path d="M217.06667,206.4917v-6h40.91667v6z" fill="#b8d6f1" stroke="none" stroke-width="0"/><path d="M227.79912,186.21155c2.17774,0.78286 9.35183,3.36186 11.27353,4.05268c0.91344,0.32837 0.93266,1.0455 0.0319,1.36932c-1.90374,0.68437 -9.04251,3.25066 -11.26883,4.05099c-0.42191,0.15168 -1.8844,-3.09992 -1.8844,-4.7874c0,-1.62327 1.44836,-4.8292 1.84782,-4.68561z" fill="#96bd79" stroke="#000000" stroke-width="1"/><path d="M221.57941,191.29053c0,-0.64649 0.36517,-2.57731 1.53838,-3.53187c1.42062,-1.15586 4.48639,-1.50219 4.48639,-1.50219c0,0 -1.68731,3.35369 -1.68731,4.86997c0,1.41835 1.58204,4.51703 1.58204,4.51703c0,0 -2.57185,0.20301 -3.90468,-0.72058c-1.2839,-0.88969 -2.01483,-2.89261 -2.01483,-3.63236z" fill="#ffd253" stroke="#000000" stroke-width="1"/></g></g></svg>