<svg version="1.1" xmlns="http://www.w3.org/2000/svg" xmlns:xlink="http://www.w3.org/1999/xlink" width="65.62135" height="70.01636" viewBox="0,0,65.62135,70.01636"><g transform="translate(-207.05309,-149.05864)"><g stroke-miterlimit="10"><path d="M224.8278,207.64658c-5.51313,4.21477 -8.75029,1.36488 -11.74928,-3.35174c-2.99899,-4.71662 -4.62411,-9.51389 0.889,-13.72866c5.51313,-4.21476 19.36771,-8.76684 22.36669,-4.05022c2.99899,4.71662 -5.99329,16.91584 -11.50642,21.13061z" fill="#66a8fe" stroke="#000000" stroke-width="2.5"/><path d="M227.26708,202.89123c-4.26458,3.26025 -6.76863,1.05578 -9.08844,-2.59267c-2.31981,-3.64845 -3.5769,-7.3593 0.68767,-10.61955c4.26458,-3.26025 14.98152,-6.78141 17.30133,-3.13296c2.31981,3.64845 -4.63599,13.08493 -8.90056,16.34518z" fill="#9cdffa" stroke="#000000" stroke-width="0"/><path d="M237.55973,178.82733c-3.32772,13.60444 -7.3896,21.90195 -17.60708,18.89696c-10.21749,-3.00499 -13.76659,-12.24653 -10.43887,-25.85097c0.08043,-0.32885 0.53836,-6.52278 3.21951,-11.91608c2.63053,-5.29146 4.35186,-9.50833 7.9575,-9.6486c7.71696,-0.3002 11.16534,7.34037 14.22207,14.48371c1.811,4.23217 3.88492,8.97356 2.64686,14.03498z" fill="#9cdffa" stroke="#000000" stroke-width="2.5"/><path d="M232.37876,176.14713c0.08624,8.83732 -3.81058,16.04794 -8.70381,16.10536c-4.89323,0.05742 -8.9299,-7.06011 -9.01614,-15.89743c-0.08624,-8.83732 3.81057,-16.04794 8.70381,-16.10536c4.89323,-0.05742 8.9299,7.0601 9.01615,15.89742z" fill="#67acfa" stroke="none" stroke-width="0"/><path d="M239.28798,189.15249c3.10774,-2.79125 12.69031,3.42843 16.06786,7.64738c3.37755,4.21895 1.28726,7.35793 -1.82048,10.14918c-3.10774,2.79125 -6.05606,4.17776 -9.43363,-0.04119c-3.37756,-4.21895 -7.92149,-14.96412 -4.81376,-17.75537z" fill="#66a8fe" stroke="#000000" stroke-width="2.5"/><path d="M239.40766,189.20938c2.40392,-2.15912 9.81635,2.652 12.42899,5.91549c2.61264,3.26349 0.99572,5.69159 -1.40821,7.8507c-2.40392,2.15912 -4.68455,3.23163 -7.2972,-0.03186c-2.61264,-3.26349 -6.12751,-11.57521 -3.72359,-13.73432z" fill="#9cdffa" stroke="#000000" stroke-width="0"/><path d="M255.56586,165.51327c5.75413,-2.3675 12.00224,-4.78507 15.85858,0.34724c1.80183,2.39801 0.24678,6.05738 -1.45875,10.95113c-1.73834,4.98793 -5.10401,9.03481 -5.25338,9.28567c-6.17947,10.37813 -13.41196,13.70116 -20.49809,8.96749c-7.08614,-4.73366 -4.37878,-12.36708 1.80069,-22.7452c2.29903,-3.8611 6.14185,-5.40367 9.55096,-6.80632z" fill="#9cdffa" stroke="#000000" stroke-width="2.5"/><path d="M263.71188,170.17246c2.52263,3.17379 0.36163,10.04274 -4.82673,15.34225c-5.18836,5.29951 -11.43935,7.02275 -13.96198,3.84896c-2.52263,-3.17379 -0.36163,-10.04274 4.82673,-15.34225c5.18836,-5.29951 11.43935,-7.02275 13.96197,-3.84896z" fill="#67acfa" stroke="none" stroke-width="0"/><path d="M243.85447,187.42371c-1.65311,6.81567 -8.72633,10.90883 -8.63061,10.97353c0.25224,0.17052 -4.39447,-6.91608 -2.74137,-13.73175c1.65311,-6.81567 6.33725,-11.63913 8.75286,-11.05323c2.4156,0.58589 4.27223,6.99578 2.61911,13.81145z" fill="#2ed5e7" stroke="#000000" stroke-width="1.5"/><path d="M248.33677,174.928c-0.90325,3.72405 -4.73602,5.99097 -8.56072,5.06331c-3.8247,-0.92766 -6.19301,-4.69863 -5.28976,-8.42268c0.90325,-3.72405 4.73602,-5.99097 8.56072,-5.06331c3.8247,0.92766 6.19301,4.69863 5.28976,8.42268z" fill="#7888bc" stroke="#000000" stroke-width="1.5"/><path d="M248.64111,175.08757c-0.67541,2.78465 -3.48033,4.49453 -6.26498,3.81913c-2.78465,-0.67541 -4.49453,-3.48034 -3.81913,-6.26499c0.67541,-2.78465 3.48034,-4.49453 6.26499,-3.81913c2.78465,0.67541 4.49453,3.48033 3.81913,6.26498z" fill="#dcf9ff" stroke="#000000" stroke-width="1.5"/><path d="M233.23953,185.19514l0.39121,-1.61296c0,0 2.18528,3.10289 3.78447,3.49076c1.63968,0.39769 5.93517,-1.13331 5.93517,-1.13331l-0.39122,1.61296c0,0 -4.33095,1.90833 -6.02356,1.49779c-1.53102,-0.37134 -3.69607,-3.85525 -3.69607,-3.85525z" fill="#67acfa" stroke="#000000" stroke-width="0"/><path d="M235.57683,197.3044c0,0 -0.97586,-2.40757 -1.31594,-3.49741c-0.30822,-0.98774 -0.63836,-2.76552 -0.63836,-2.76552c0,0 1.83942,1.69631 2.87831,1.92838c1.18026,0.26364 3.83341,-0.42913 3.83341,-0.42913c0,0 -1.03597,1.25416 -1.58785,1.80677c-0.87747,0.87863 -3.16956,2.95691 -3.16956,2.95691z" fill="#67acfa" stroke="none" stroke-width="0"/><path d="M263.15,216.7c0,1.31168 -12.48006,2.375 -27.875,2.375c-15.39494,0 -27.875,-1.06332 -27.875,-2.375c0,-1.31168 12.48006,-2.375 27.875,-2.375c15.39494,0 27.875,1.06332 27.875,2.375z" fill-opacity="0.85098" fill="#423b34" stroke="#000000" stroke-width="0"/></g></g></svg>