<svg version="1.1" xmlns="http://www.w3.org/2000/svg" xmlns:xlink="http://www.w3.org/1999/xlink" width="48.71179" height="55.09292" viewBox="0,0,48.71179,55.09292"><g transform="translate(-217.99987,-155.13967)"><g stroke-miterlimit="10"><path d="M266.71166,202.91467c0,4.04157 -10.16285,7.31792 -22.69936,7.31792c-12.53652,0 -22.69936,-3.27634 -22.69936,-7.31792c0,-4.04157 10.16285,-7.31793 22.69937,-7.31793c12.53652,0 22.69937,3.27635 22.69937,7.31793z" fill-opacity="0.85098" fill="#423b34" stroke="#2c7fb5" stroke-width="0"/><path d="M221.36748,167.04569c4.46777,-9.1834 15.53424,-13.00618 24.71765,-8.53841c9.1834,4.46777 13.00619,15.53425 8.53841,24.71765c-4.46777,9.1834 -15.53424,13.00618 -24.71765,8.53841c-9.1834,-4.46777 -13.00618,-15.53425 -8.53841,-24.71765z" fill="#33ccfd" stroke="#2c7fb5" stroke-width="3"/><path d="M233.34364,169.78385c2.06138,-4.23712 7.16732,-6.0009 11.40444,-3.93951c4.23712,2.06138 6.0009,7.16731 3.93952,11.40443c-2.06138,4.23712 -7.16731,6.0009 -11.40443,3.93952c-4.23712,-2.06138 -6.00091,-7.16731 -3.93953,-11.40443z" fill="#24a4eb" stroke="#2c7fb5" stroke-width="0"/><path d="M234.7167,190.10477c-1.36062,1.64817 -4.25877,1.30457 -6.82479,-0.81378c-1.48733,-1.22785 -3.13241,-2.80299 -3.4063,-4.20339c-0.19863,-1.01564 0.36674,-1.9612 0.93872,-2.65404c1.36062,-1.64817 4.54379,-1.26701 7.10981,0.85133c2.56602,2.11835 3.5432,5.17171 2.18258,6.81987z" fill="#33bcf1" stroke="#2c7fb5" stroke-width="0"/><path d="M229.67794,166.18722c-2.05205,2.06618 -4.48084,2.9811 -5.42487,2.04353c-0.38169,-0.37908 -0.70746,-1.12225 -0.53234,-1.86756c0.25802,-1.09807 1.31621,-2.34043 2.53857,-3.57122c1.29,-1.29888 2.64494,-2.38585 3.77025,-2.60059c0.66476,-0.12685 1.30404,0.20889 1.65462,0.55706c0.94403,0.93758 0.04582,3.3726 -2.00624,5.43879z" fill="#33bcf1" stroke="#2c7fb5" stroke-width="0"/><path d="M254.09336,171.00303c-0.9474,0.78457 -2.87946,-0.55714 -4.68877,-2.74196c-1.80931,-2.18481 -2.20754,-5.00183 -1.26015,-5.7864c0.10954,-0.09071 0.31685,-0.38607 0.59384,-0.29102c0.80928,0.27767 2.18839,1.59 3.26497,2.95874c1.74186,2.21453 2.60793,5.43183 2.09011,5.86064z" fill="#33bcf1" stroke="#2c7fb5" stroke-width="0"/><path d="M247.37526,196.22081c-0.63185,2.42176 -4.13853,9.36795 -6.21431,8.82635c-2.07579,-0.54159 -1.93461,-8.36587 -1.30277,-10.78763c0.63185,-2.42176 2.82682,-3.94592 4.90261,-3.40435c2.07579,0.54159 3.2463,2.94385 2.61447,5.36559z" fill="#000000" stroke="#000000" stroke-width="1.5"/><path d="M259.91871,195.77024c0.30512,2.48415 -0.39488,10.23377 -2.52414,10.4953c-2.12928,0.26153 -4.88153,-7.06407 -5.18663,-9.54823c-0.30512,-2.48415 1.17368,-4.70995 3.30293,-4.97148c2.12928,-0.26153 4.10273,1.54028 4.40784,4.02441z" fill="#000000" stroke="#000000" stroke-width="1.5"/><path d="M263.06441,186.81649c-0.55601,6.17493 -6.13459,10.71896 -12.46008,10.14939c-6.32552,-0.56955 -11.00264,-6.03704 -10.44665,-12.21195c0.55601,-6.17493 6.13459,-10.71896 12.46008,-10.14939c6.32552,0.56955 11.00264,6.03704 10.44665,12.21195z" fill="#2c415e" stroke="#000000" stroke-width="2.5"/><path d="M262.04035,182.08977c-0.12109,1.34478 -1.26581,2.34075 -2.55682,2.22447c-1.29099,-0.11623 -2.23941,-1.30066 -2.11832,-2.64545c0.12109,-1.34478 1.26581,-2.34075 2.55682,-2.22447c1.29099,0.11623 2.23941,1.30066 2.11832,2.64545z" fill="#ddffff" stroke="#000000" stroke-width="1.5"/><path d="M262.80672,187.90348c-0.15248,1.69345 -1.59397,2.94758 -3.2197,2.8012c-1.6257,-0.14638 -2.82,-1.63785 -2.66751,-3.3313c0.15248,-1.69345 1.59397,-2.94758 3.2197,-2.8012c1.6257,0.14638 2.81999,1.63785 2.66751,3.3313z" fill="#ddffff" stroke="#000000" stroke-width="1.5"/><path d="M253.96786,187.30649c-0.17042,1.89268 -1.78153,3.29438 -3.59849,3.13076c-1.81698,-0.1636 -3.15176,-1.83054 -2.98133,-3.72321c0.17042,-1.89268 1.78153,-3.29436 3.59848,-3.13075c1.81698,0.1636 3.15176,1.83054 2.98133,3.7232z" fill="#ddffff" stroke="#000000" stroke-width="1.5"/><path d="M254.43136,181.70201c-0.10895,1.20991 -1.13884,2.10593 -2.30035,2.00136c-1.1615,-0.10459 -2.01477,-1.17018 -1.90583,-2.38009c0.10895,-1.20991 1.13883,-2.10593 2.30035,-2.00135c1.1615,0.10459 2.01477,1.17017 1.90584,2.38008z" fill="#ddffff" stroke="#000000" stroke-width="1.5"/><path d="M244.6495,195.00033c-0.65668,2.41513 -4.23449,9.32498 -6.30459,8.76212c-2.07012,-0.56287 -1.84863,-8.38529 -1.19196,-10.80042c0.65668,-2.41513 2.86719,-3.91669 4.93731,-3.35382c2.07012,0.56287 3.21595,2.97703 2.55924,5.39216z" fill="#7888ab" stroke="#000000" stroke-width="1.5"/><path d="M234.55712,193.03338c-1.41763,2.06261 -7.07722,7.4026 -8.84517,6.18749c-1.76798,-1.21512 1.02519,-8.52524 2.44285,-10.58782c1.41763,-2.06261 4.00007,-2.74964 5.76805,-1.53452c1.76798,1.21512 2.05193,3.87227 0.63429,5.93486z" fill="#7888ab" stroke="#000000" stroke-width="1.5"/></g></g></svg>