<svg version="1.1" xmlns="http://www.w3.org/2000/svg" xmlns:xlink="http://www.w3.org/1999/xlink" width="52.53591" height="55.44375" viewBox="0,0,52.53591,55.44375"><g transform="translate(-216.60278,-154.78883)"><g stroke-miterlimit="10"><path d="M266.71166,202.91467c0,4.04157 -10.16285,7.31792 -22.69936,7.31792c-12.53652,0 -22.69936,-3.27634 -22.69936,-7.31792c0,-4.04157 10.16285,-7.31793 22.69937,-7.31793c12.53652,0 22.69937,3.27635 22.69937,7.31793z" fill-opacity="0.85098" fill="#423b34" stroke="#2c7fb5" stroke-width="0"/><path d="M218.10278,174.78028c0,-10.21254 8.2789,-18.49144 18.49144,-18.49144c10.21254,0 18.49144,8.2789 18.49144,18.49144c0,10.21254 -8.2789,18.49144 -18.49144,18.49144c-10.21254,0 -18.49144,-8.2789 -18.49144,-18.49144z" fill="#33ccfd" stroke="#2c7fb5" stroke-width="3"/><path d="M230.06998,172.00319c0,-4.71195 3.81979,-8.53173 8.53174,-8.53173c4.71195,0 8.53173,3.81978 8.53173,8.53173c0,4.71195 -3.81978,8.53173 -8.53173,8.53173c-4.71195,0 -8.53174,-3.81978 -8.53174,-8.53173z" fill="#24a4eb" stroke="#2c7fb5" stroke-width="0"/><path d="M240.19465,189.67566c-0.50247,2.07732 -3.25889,3.03623 -6.49306,2.25393c-1.87461,-0.45344 -4.04301,-1.15016 -4.90194,-2.28962c-0.62294,-0.82639 -0.5282,-1.92401 -0.31697,-2.79726c0.50247,-2.07732 3.53162,-3.12714 6.76579,-2.34485c3.23417,0.7823 5.44866,3.10047 4.94619,5.17779z" fill="#33bcf1" stroke="#2c7fb5" stroke-width="0"/><path d="M225.20022,170.37267c-0.94135,2.7557 -2.72513,4.64097 -3.9842,4.21087c-0.50906,-0.1739 -1.12713,-0.69966 -1.29571,-1.44648c-0.24837,-1.10029 0.15968,-2.6804 0.72042,-4.32192c0.59177,-1.73234 1.33464,-3.30253 2.25261,-3.98793c0.54228,-0.40489 1.26402,-0.38266 1.73159,-0.22294c1.25907,0.4301 1.51664,3.0127 0.57529,5.7684z" fill="#33bcf1" stroke="#2c7fb5" stroke-width="0"/><path d="M249.26208,164.02194c-0.50869,1.11998 -2.83303,0.75871 -5.41583,-0.4144c-2.5828,-1.17311 -4.17328,-3.53204 -3.66459,-4.65201c0.05882,-0.12949 0.11603,-0.48578 0.40668,-0.52149c0.8492,-0.10435 2.66345,0.47241 4.23034,1.23223c2.53514,1.22934 4.72144,3.74354 4.4434,4.35567z" fill="#33bcf1" stroke="#2c7fb5" stroke-width="0"/><path d="M254.78831,191.29855c-0.34104,2.49281 -3.01043,9.84542 -5.14712,9.55311c-2.13669,-0.29232 -2.93153,-8.1189 -2.5905,-10.61168c0.34104,-2.49281 2.34963,-4.27664 4.48632,-3.98433c2.13669,0.29232 3.59233,2.5501 3.2513,5.0429z" fill="#000000" stroke="#000000" stroke-width="1.5"/><path d="M264.83319,184.32507c1.51226,2.01083 4.79105,9.11268 3.06748,10.40889c-1.72358,1.29622 -7.79681,-3.70405 -9.30906,-5.71488c-1.51226,-2.01083 -1.34096,-4.69173 0.38261,-5.98794c1.72358,-1.29622 4.34672,-0.7169 5.85898,1.29391z" fill="#000000" stroke="#000000" stroke-width="1.5"/><path d="M264.39914,175.02896c2.06157,5.88177 -1.1516,12.36188 -7.17679,14.47374c-6.02522,2.11187 -12.58087,-0.94423 -14.64245,-6.82601c-2.06157,-5.88177 1.1516,-12.36188 7.17679,-14.47374c6.02522,-2.11187 12.58087,0.94425 14.64245,6.82601z" fill="#2c415e" stroke="#000000" stroke-width="2.5"/><path d="M261.49458,171.13008c0.44898,1.28095 -0.18392,2.66877 -1.41365,3.0998c-1.22971,0.43102 -2.59056,-0.25799 -3.03955,-1.53894c-0.44898,-1.28095 0.18392,-2.66877 1.41365,-3.0998c1.22971,-0.43102 2.59056,0.25799 3.03955,1.53894z" fill="#ddffff" stroke="#000000" stroke-width="1.5"/><path d="M264.61584,176.13085c0.56538,1.61306 -0.23161,3.36069 -1.78015,3.90345c-1.54854,0.54277 -3.26219,-0.32487 -3.82756,-1.93792c-0.56538,-1.61306 0.23161,-3.36069 1.78015,-3.90345c1.54854,-0.54277 3.26218,0.32487 3.82756,1.93792z" fill="#ddffff" stroke="#000000" stroke-width="1.5"/><path d="M256.27938,179.26383c0.6319,1.80282 -0.25887,3.75606 -1.98958,4.36268c-1.73073,0.60663 -3.64598,-0.36309 -4.27787,-2.16592c-0.6319,-1.80282 0.25887,-3.75605 1.98958,-4.36267c1.73073,-0.60663 3.64598,0.36309 4.27787,2.16591z" fill="#ddffff" stroke="#000000" stroke-width="1.5"/><path d="M254.37062,173.94254c0.40395,1.15247 -0.16548,2.40108 -1.27184,2.78886c-1.10638,0.38778 -2.33071,-0.23211 -2.73465,-1.38459c-0.40395,-1.15247 0.16548,-2.40107 1.27185,-2.78886c1.10638,-0.38778 2.3307,0.23211 2.73465,1.38457z" fill="#ddffff" stroke="#000000" stroke-width="1.5"/><path d="M250.31058,189.03562c1.33096,2.13515 3.97736,9.4961 2.14723,10.63692c-1.83013,1.14083 -7.44374,-4.37046 -8.77472,-6.50561c-1.33096,-2.13515 -0.92631,-4.79086 0.90382,-5.93169c1.83013,-1.14083 4.39271,-0.33478 5.72368,1.80038z" fill="#7888ab" stroke="#000000" stroke-width="1.5"/><path d="M241.1273,193.39953c-0.89417,2.35177 -5.15223,8.91344 -7.16803,8.14702c-2.0158,-0.76643 -1.02599,-8.57074 -0.13183,-10.9225c0.89417,-2.35177 3.25316,-3.63693 5.26896,-2.87051c2.0158,0.76643 2.92506,3.29423 2.0309,5.64599z" fill="#7888ab" stroke="#000000" stroke-width="1.5"/></g></g></svg>