<svg version="1.1" xmlns="http://www.w3.org/2000/svg" xmlns:xlink="http://www.w3.org/1999/xlink" width="84.72358" height="91.85027" viewBox="0,0,84.72358,91.85027"><g transform="translate(-193.54927,-135.03055)"><g data-paper-data="{&quot;isPaintingLayer&quot;:true}" fill-rule="nonzero" stroke-linecap="butt" stroke-linejoin="miter" stroke-miterlimit="10" stroke-dasharray="" stroke-dashoffset="0" style="mix-blend-mode: normal"><path d="M247.4684,186.52188c1.37965,-5.42681 16.78754,-6.48803 23.74303,-4.71976c6.9555,1.76828 6.97658,6.75195 5.59693,12.17876c-1.37965,5.42681 -3.63758,9.24175 -10.59308,7.47347c-6.9555,-1.76828 -20.12655,-9.50567 -18.7469,-14.93248z" data-paper-data="{&quot;index&quot;:null}" fill="#ffa766" stroke="#000000" stroke-width="1.5"/><path d="M247.64518,186.48665c1.06719,-4.19781 12.98569,-5.01869 18.36597,-3.65088c5.38029,1.36782 5.3966,5.22285 4.3294,9.42065c-1.06719,4.19781 -2.81378,7.14878 -8.19407,5.78096c-5.38029,-1.36782 -15.5685,-7.35292 -14.50131,-11.55075z" data-paper-data="{&quot;index&quot;:null}" fill="#f0fa9b" stroke="#000000" stroke-width="0"/><path d="M244.69421,217.94724c-3.21934,9.00301 -9.11541,8.66093 -16.13973,6.14913c-7.02433,-2.51179 -12.51694,-6.24215 -9.29761,-15.24517c3.21934,-9.00301 15.85327,-25.24352 22.87759,-22.73171c7.02433,2.51179 5.7791,22.82474 2.55974,31.82775z" fill="#ffa766" stroke="#000000" stroke-width="2.5"/><path d="M243.94407,210.90845c-2.49026,6.96411 -7.05106,6.69951 -12.48459,4.75654c-5.43354,-1.94295 -9.68226,-4.8285 -7.19199,-11.79261c2.49026,-6.96411 12.26299,-19.52664 17.69653,-17.5837c5.43354,1.94295 4.47031,17.65564 1.98005,24.61974z" fill="#f0fa9b" stroke="#000000" stroke-width="0"/><path d="M237.77078,176.98132c6.37751,17.12558 7.9117,29.24709 -6.19172,34.49917c-14.10343,5.25207 -25.16947,-1.58898 -31.54699,-18.71457c-0.15417,-0.41396 -4.28307,-7.33897 -5.2328,-15.25164c-0.93178,-7.76325 -2.10898,-13.64062 1.9647,-16.76322c8.71866,-6.68311 18.46356,-1.45127 27.38043,3.57806c5.28294,2.97968 11.25367,6.28077 13.62637,12.6522z" fill="#f0fa9b" stroke="#000000" stroke-width="2.5"/><path d="M229.74937,178.42202c6.74826,9.27031 7.65609,20.10679 2.02769,24.20395c-5.6284,4.09716 -15.66167,-0.09651 -22.40994,-9.36682c-6.74826,-9.27031 -7.65609,-20.10679 -2.02769,-24.20395c5.6284,-4.09716 15.66167,0.09651 22.40993,9.36681z" fill="#ffa766" stroke="none" stroke-width="0"/><path d="M247.31669,148.98912c4.66138,-7.08764 9.83817,-14.6218 18.01684,-12.26958c3.82137,1.09905 4.83324,6.20629 6.60525,12.73823c1.80611,6.65765 1.08232,13.61724 1.10379,14.00144c0.88876,15.89417 -4.70898,25.16982 -16.20389,25.81258c-11.49491,0.64277 -14.2063,-9.58342 -15.09507,-25.47758c-0.33066,-5.9133 2.81138,-10.60593 5.57308,-14.8051z" data-paper-data="{&quot;index&quot;:null}" fill="#f0fa9b" stroke="#000000" stroke-width="2.5"/><path d="M260.5353,146.99736c5.21202,1.34474 7.96002,10.32749 6.13782,20.06357c-1.82219,9.73608 -7.52454,16.5386 -12.73656,15.19389c-5.21202,-1.34474 -7.96002,-10.32749 -6.13782,-20.06357c1.82219,-9.73608 7.52454,-16.5386 12.73656,-15.19389z" data-paper-data="{&quot;index&quot;:null}" fill="#ffa766" stroke="none" stroke-width="0"/><path d="M250.92989,181.30535c3.37999,8.44811 -1.01746,18.09591 -0.8676,18.09231c0.39491,-0.00951 -9.84811,-4.00468 -13.22812,-12.45277c-3.37999,-8.44811 -2.05731,-17.07058 0.93686,-18.26851c2.99417,-1.19793 9.77884,4.18088 13.15884,12.62898z" fill="#ff9900" stroke="#000000" stroke-width="1.5"/><path d="M246.26738,164.72478c1.84682,4.616 -0.4992,9.89562 -5.23996,11.79236c-4.74077,1.89674 -10.08106,-0.30768 -11.92786,-4.9237c-1.84682,-4.616 0.4992,-9.89562 5.23996,-11.79236c4.74077,-1.89674 10.08106,0.30768 11.92786,4.9237z" fill="#ffcc87" stroke="#000000" stroke-width="1.5"/><path d="M246.70915,164.6645c1.38095,3.45161 -0.29766,7.36917 -3.74926,8.75013c-3.45161,1.38095 -7.36917,-0.29766 -8.75013,-3.74926c-1.38095,-3.45161 0.29766,-7.36917 3.74926,-8.75013c3.45161,-1.38095 7.36917,0.29766 8.75013,3.74926z" fill="#dcf9ff" stroke="#000000" stroke-width="1.5"/><path d="M238.03285,186.93522l-0.79989,-1.99929c0,0 4.64425,1.63591 6.62644,0.84285c2.0324,-0.81314 5.42115,-5.66296 5.42115,-5.66296l0.79989,1.99929c0,0 -3.14239,5.27535 -5.24039,6.11474c-1.89773,0.75927 -6.80721,-1.29464 -6.80721,-1.29464z" fill="#c58c32" stroke="#000000" stroke-width="0"/><path d="M249.61326,197.97693c0,0 -2.84275,-1.81077 -4.02211,-2.70695c-1.06889,-0.81223 -2.75528,-2.44304 -2.75528,-2.44304c0,0 3.22049,0.4093 4.49323,-0.12695c1.44594,-0.60924 3.72926,-3.33747 3.72926,-3.33747c0,0 -0.15155,2.10505 -0.3192,3.10438c-0.26654,1.58887 -1.1259,5.51004 -1.1259,5.51004z" fill="#c58c32" stroke="none" stroke-width="0"/></g></g></svg>