<svg version="1.1" xmlns="http://www.w3.org/2000/svg" xmlns:xlink="http://www.w3.org/1999/xlink" width="60.00368" height="70.01636" viewBox="0,0,60.00368,70.01636"><g transform="translate(-207.4,-149.05864)"><g stroke-miterlimit="10"><path d="M226.6006,207.64658c-4.48982,4.21477 -7.12614,1.36488 -9.56847,-3.35174c-2.44233,-4.71662 -3.76583,-9.51389 0.724,-13.72866c4.48982,-4.21476 15.77282,-8.76684 18.21515,-4.05022c2.44233,4.71662 -4.88085,16.91584 -9.37068,21.13061z" fill="#66a8fe" stroke="#000000" stroke-width="2.5"/><path d="M228.58712,202.89123c-3.47302,3.26025 -5.51229,1.05578 -7.40151,-2.59267c-1.88922,-3.64845 -2.91298,-7.3593 0.56003,-10.61955c3.47302,-3.26025 12.20076,-6.78141 14.08999,-3.13296c1.88922,3.64845 -3.7755,13.08493 -7.24851,16.34518z" fill="#9cdffa" stroke="#000000" stroke-width="0"/><path d="M236.96932,178.82733c-2.71006,13.60444 -6.018,21.90195 -14.33899,18.89696c-8.32099,-3.00499 -11.21134,-12.24653 -8.50128,-25.85097c0.06551,-0.32885 0.43843,-6.52278 2.62193,-11.91608c2.14227,-5.29146 3.54409,-9.50833 6.48049,-9.6486c6.28459,-0.3002 9.09291,7.34037 11.58228,14.48371c1.47486,4.23217 3.16382,8.97356 2.15557,14.03498z" fill="#9cdffa" stroke="#000000" stroke-width="2.5"/><path d="M232.75001,176.14713c0.07024,8.83732 -3.10329,16.04794 -7.08828,16.10536c-3.98498,0.05742 -7.27239,-7.06011 -7.34263,-15.89743c-0.07024,-8.83732 3.10328,-16.04794 7.08827,-16.10536c3.98498,-0.05742 7.27239,7.0601 7.34264,15.89742z" fill="#67acfa" stroke="none" stroke-width="0"/><path d="M238.4983,189.15249c2.71935,-2.79125 11.10434,3.42843 14.05979,7.64738c2.95545,4.21895 1.12637,7.35793 -1.59297,10.14918c-2.71935,2.79125 -5.29921,4.17776 -8.25466,-0.04119c-2.95545,-4.21895 -6.9315,-14.96412 -4.21215,-17.75537z" fill="#66a8fe" stroke="#000000" stroke-width="2.5"/><path d="M238.60302,189.20938c2.1035,-2.15912 8.58955,2.652 10.87569,5.91549c2.28614,3.26349 0.87128,5.69159 -1.23222,7.8507c-2.1035,2.15912 -4.0991,3.23163 -6.38523,-0.03186c-2.28614,-3.26349 -5.36174,-11.57521 -3.25824,-13.73432z" fill="#9cdffa" stroke="#000000" stroke-width="0"/><path d="M252.27702,165.51555c5.03501,-2.3675 10.50227,-4.78507 13.87666,0.34724c1.57664,2.39801 0.21593,6.05738 -1.27645,10.95113c-1.5211,4.98793 -4.46614,9.03481 -4.59684,9.28567c-5.4072,10.37813 -11.73579,13.70116 -17.93634,8.96749c-6.20055,-4.73366 -3.83155,-12.36708 1.57565,-22.7452c2.01171,-3.8611 5.37427,-5.40367 8.35733,-6.80632z" fill="#9cdffa" stroke="#000000" stroke-width="2.5"/><path d="M259.86983,170.17246c2.20736,3.17379 0.31644,10.04274 -4.2235,15.34225c-4.53994,5.29951 -10.00972,7.02275 -12.21708,3.84896c-2.20736,-3.17379 -0.31643,-10.04274 4.22351,-15.34225c4.53994,-5.29951 10.00972,-7.02275 12.21707,-3.84896z" fill="#67acfa" stroke="none" stroke-width="0"/><path d="M243.19447,187.42371c-1.65311,6.81567 -8.72633,10.90883 -8.63061,10.97353c0.25224,0.17052 -4.39447,-6.91608 -2.74137,-13.73175c1.65311,-6.81567 6.33725,-11.63913 8.75286,-11.05323c2.4156,0.58589 4.27223,6.99578 2.61911,13.81145z" fill="#2ed5e7" stroke="#000000" stroke-width="1.5"/><path d="M247.67677,174.928c-0.90325,3.72405 -4.73602,5.99097 -8.56072,5.06331c-3.8247,-0.92766 -6.19301,-4.69863 -5.28976,-8.42268c0.90325,-3.72405 4.73602,-5.99097 8.56072,-5.06331c3.8247,0.92766 6.19301,4.69863 5.28976,8.42268z" fill="#7888bc" stroke="#000000" stroke-width="1.5"/><path d="M247.98111,175.08757c-0.67541,2.78465 -3.48033,4.49453 -6.26498,3.81913c-2.78465,-0.67541 -4.49454,-3.48034 -3.81914,-6.26499c0.67541,-2.78465 3.48034,-4.49453 6.26499,-3.81913c2.78465,0.67541 4.49453,3.48033 3.81913,6.26498z" fill="#dcf9ff" stroke="#000000" stroke-width="1.5"/><path d="M232.57953,185.19514l0.39121,-1.61296c0,0 2.18529,3.10289 3.78448,3.49076c1.63968,0.39769 5.93516,-1.13331 5.93516,-1.13331l-0.39122,1.61296c0,0 -4.33095,1.90833 -6.02356,1.49779c-1.53102,-0.37134 -3.69607,-3.85525 -3.69607,-3.85525z" fill="#67acfa" stroke="#000000" stroke-width="0"/><path d="M234.91684,197.3044c0,0 -0.97586,-2.40757 -1.31594,-3.49741c-0.30822,-0.98774 -0.63837,-2.76552 -0.63837,-2.76552c0,0 1.83942,1.69631 2.87831,1.92838c1.18026,0.26364 3.83341,-0.42913 3.83341,-0.42913c0,0 -1.03597,1.25416 -1.58785,1.80677c-0.87747,0.87863 -3.16956,2.95691 -3.16956,2.95691z" fill="#67acfa" stroke="none" stroke-width="0"/><path d="M263.15,216.7c0,1.31168 -12.48006,2.375 -27.875,2.375c-15.39494,0 -27.875,-1.06332 -27.875,-2.375c0,-1.31168 12.48006,-2.375 27.875,-2.375c15.39494,0 27.875,1.06332 27.875,2.375z" fill-opacity="0.85098" fill="#423b34" stroke="#000000" stroke-width="0"/></g></g></svg>