<svg version="1.1" xmlns="http://www.w3.org/2000/svg" xmlns:xlink="http://www.w3.org/1999/xlink" width="46.44782" height="51.87474" viewBox="0,0,46.44782,51.87474"><g transform="translate(-216.77608,-157.09228)"><g stroke-miterlimit="10"><path d="M255.08422,201.99208c0,3.85216 -6.93958,6.97495 -15.5,6.97495c-8.56042,0 -15.5,-3.12279 -15.5,-6.97495c0,-3.85216 6.93958,-6.97495 15.5,-6.97495c8.56042,0 15.5,3.12279 15.5,6.97495z" fill-opacity="0.85098" fill="#423b34" stroke="#000000" stroke-width="0"/><path d="M233.55569,168.42119c2.81528,5.23841 1.93392,10.3205 -1.96858,11.35118c-3.90249,1.03068 -9.34831,-2.38035 -12.16359,-7.61875c-2.81528,-5.23841 -1.93392,-10.3205 1.96857,-11.35118c3.9025,-1.03068 9.34832,2.38035 12.16359,7.61875z" fill="#ffffff" stroke="#000000" stroke-width="2"/><path d="M236.95104,165.59295c1.45043,-6.07948 4.24577,-7.29091 6.90898,-6.56517c0.28377,0.07733 0.55459,0.17353 0.81024,0.29105c2.14368,0.9855 3.221,3.47055 1.92511,8.90226c-1.45043,6.07948 -10.13485,10.32813 -7.4484,9.69381c0.78909,-0.18632 -3.64636,-6.24247 -2.19593,-12.32196z" fill="#ffffff" stroke="#000000" stroke-width="2"/><path d="M254.48224,169.56508c2.11815,0 3.83526,1.89474 3.83526,4.23202c0,2.33728 -1.71711,4.23201 -3.83526,4.23201c-2.11816,0 -3.83526,-1.89474 -3.83526,-4.23201c0,-2.33728 1.71711,-4.23202 3.83526,-4.23202z" fill="#ffffff" stroke="#000000" stroke-width="2"/><path d="M238.67472,168.60794c8.79341,0 15.92186,7.28704 15.92186,16.27607c0,8.98903 -7.12846,16.27607 -15.92186,16.27607c-8.79341,0 -15.92187,-7.28704 -15.92187,-16.27607c0,-8.98903 7.12847,-16.27607 15.92187,-16.27607z" fill="#7aff3a" stroke="#000000" stroke-width="2"/><path d="M240.57949,184.6982c4.24648,4.04148 5.28888,9.83955 2.32826,12.95035c-2.96063,3.11079 -8.80314,2.35633 -13.04962,-1.68516c-4.24648,-4.04148 -5.28888,-9.83955 -2.32826,-12.95035c2.96063,-3.11079 8.80313,-2.35633 13.04962,1.68516z" fill="#3dd831" stroke="none" stroke-width="0"/><path d="M241.11941,190.57766c-3.37583,0 -6.11249,-2.87349 -6.11249,-6.41812c0,-3.54463 2.73667,-6.41812 6.1125,-6.41812c3.37583,0 6.11249,2.87348 6.11249,6.41812c0,3.54463 -2.73666,6.41812 -6.11249,6.41812z" fill="#29b51e" stroke="none" stroke-width="0"/><path d="M244.38864,193.20929c2.11373,-1.42712 4.14252,-1.60713 4.53144,-0.40207c0.38891,1.20506 -1.00931,3.33886 -3.12305,4.76598c-2.11373,1.42712 -4.14252,1.60713 -4.53144,0.40207c-0.38891,-1.20506 1.00931,-3.33885 3.12305,-4.76597z" fill="#29b51e" stroke="none" stroke-width="0"/><path d="M228.67727,185.64064c0.95433,0 1.72795,1.2157 1.72795,2.71535c0,1.49965 -0.77363,2.71536 -1.72795,2.71536c-0.95433,0 -1.72795,-1.21571 -1.72795,-2.71536c0,-1.49965 0.77363,-2.71535 1.72795,-2.71535z" fill="#29b51e" stroke="none" stroke-width="0"/><path d="M229.459,174.33458c1.64239,-1.53711 3.729,-1.97626 4.66058,-0.98087c0.93158,0.99538 0.35535,3.04838 -1.28703,4.58548c-1.64239,1.53711 -3.729,1.97626 -4.66058,0.98087c-0.93158,-0.99538 -0.35535,-3.04838 1.28703,-4.58548z" fill="#ffffff" stroke="none" stroke-width="0"/><path d="M242.00721,178.85225c0,-0.39773 -0.26022,-0.83899 -0.27869,-1.30778c-0.11452,-2.90606 -0.74594,-6.6231 0.76694,-7.83158c0.2926,-0.23372 1.14065,-0.61124 1.56883,-0.61124c2.9993,0 8.88662,6.90417 8.88662,10.2443c0,3.34014 -2.51369,5.55414 -5.51299,5.55414c-2.9993,0 -5.43071,-2.70771 -5.43071,-6.04784z" fill="#054800" stroke="none" stroke-width="0"/><path d="M247.99334,167.01307c2.61236,0 4.7301,2.33681 4.7301,5.21942c0,2.8826 -2.11773,5.21942 -4.7301,5.21942c-2.61236,0 -4.7301,-2.33681 -4.7301,-5.21942c0,-2.8826 2.11774,-5.21942 4.7301,-5.21942z" fill="#ffffff" stroke="#000000" stroke-width="2"/><path d="M254.03155,176.39438c1.17826,1.13497 8.32405,13.21673 8.19051,13.20208c-0.62001,-0.06798 -11.63607,-7.26691 -12.81433,-8.40187c-1.17826,-1.13497 -1.09835,-3.12959 0.17848,-4.45514c1.27684,-1.32554 3.26708,-1.48003 4.44534,-0.34507z" fill="#ffffff" stroke="#000000" stroke-width="2"/></g></g></svg>