<svg version="1.1" xmlns="http://www.w3.org/2000/svg" xmlns:xlink="http://www.w3.org/1999/xlink" width="55.75" height="70.01636" viewBox="0,0,55.75,70.01636"><g transform="translate(-207.4,-149.05864)"><g stroke-miterlimit="10"><path d="M231.005,207.64657c-2.72973,4.21476 -4.33257,1.36489 -5.81747,-3.35173c-1.4849,-4.71662 -2.28956,-9.51389 0.44018,-13.72866c2.72973,-4.21476 9.58961,-8.76684 11.07451,-4.05022c1.4849,4.71662 -2.96748,16.91585 -5.69722,21.1306z" fill="#66a8fe" stroke="#000000" stroke-width="2.5"/><path d="M232.21276,202.89123c-2.11153,3.26025 -3.35138,1.05578 -4.49999,-2.59267c-1.14862,-3.64845 -1.77105,-7.35929 0.34049,-10.61954c2.11153,-3.26025 7.41786,-6.78142 8.56648,-3.13297c1.14862,3.64845 -2.29544,13.08493 -4.40697,16.34518z" fill="#9cdffa" stroke="#000000" stroke-width="0"/><path d="M237.30901,178.82733c-1.64767,13.60444 -3.65884,21.90194 -8.71786,18.89696c-5.05902,-3.00499 -6.81631,-12.24653 -5.16864,-25.85097c0.03983,-0.32885 0.26656,-6.52278 1.59409,-11.91608c1.30246,-5.29145 2.15475,-9.50833 3.94003,-9.6486c3.82093,-0.3002 5.52834,7.34037 7.04183,14.48371c0.89669,4.23217 1.92355,8.97356 1.31055,14.03498z" fill="#9cdffa" stroke="#000000" stroke-width="2.5"/><path d="M234.74373,176.14712c0.04271,8.83732 -1.88675,16.04794 -4.30955,16.10536c-2.4228,0.05742 -4.4215,-7.0601 -4.4642,-15.89743c-0.04271,-8.83732 1.88675,-16.04794 4.30955,-16.10536c2.4228,-0.05742 4.4215,7.0601 4.4642,15.89742z" fill="#67acfa" stroke="none" stroke-width="0"/><path d="M238.41114,189.15249c1.79948,-2.79124 7.34809,3.42843 9.30381,7.64738c1.95571,4.21895 0.74536,7.35793 -1.05412,10.14917c-1.79948,2.79124 -3.50665,4.17776 -5.46237,-0.04119c-1.95571,-4.21895 -4.5868,-14.96413 -2.78732,-17.75537z" fill="#66a8fe" stroke="#000000" stroke-width="2.5"/><path d="M238.48044,189.20937c1.39195,-2.15912 5.68397,2.652 7.19678,5.91549c1.51281,3.26349 0.57655,5.69159 -0.8154,7.8507c-1.39195,2.15912 -2.7125,3.23163 -4.22531,-0.03186c-1.51281,-3.26349 -3.54803,-11.57521 -2.15608,-13.73433z" fill="#9cdffa" stroke="#000000" stroke-width="0"/><path d="M247.52896,165.51555c3.33183,-2.36751 6.94968,-4.78507 9.18262,0.34724c1.04332,2.39801 0.14289,6.05738 -0.84466,10.95113c-1.00656,4.98793 -2.95538,9.03481 -3.04187,9.28567c-3.57811,10.37813 -7.76595,13.70115 -11.86905,8.96749c-4.1031,-4.73366 -2.53546,-12.36708 1.04266,-22.74521c1.33121,-3.8611 3.55632,-5.40366 5.53031,-6.80632z" fill="#9cdffa" stroke="#000000" stroke-width="2.5"/><path d="M252.55336,170.17245c1.46068,3.17379 0.2094,10.04275 -2.79483,15.34226c-3.00422,5.29951 -6.62375,7.02275 -8.08443,3.84897c-1.46068,-3.17379 -0.2094,-10.04275 2.79483,-15.34226c3.00422,-5.29951 6.62375,-7.02275 8.08443,-3.84897z" fill="#67acfa" stroke="none" stroke-width="0"/><path d="M243.41447,187.42371c-1.65311,6.81567 -8.72633,10.90882 -8.63061,10.97353c0.25224,0.17052 -4.39447,-6.91609 -2.74137,-13.73176c1.65311,-6.81567 6.33725,-11.63912 8.75285,-11.05323c2.4156,0.58589 4.27223,6.99578 2.61912,13.81145z" fill="#2ed5e7" stroke="#000000" stroke-width="1.5"/><path d="M247.89677,174.92799c-0.90325,3.72405 -4.73602,5.99097 -8.56072,5.06331c-3.82471,-0.92766 -6.19301,-4.69863 -5.28975,-8.42268c0.90325,-3.72405 4.73602,-5.99097 8.56072,-5.06331c3.82471,0.92766 6.19301,4.69863 5.28975,8.42268z" fill="#7888bc" stroke="#000000" stroke-width="1.5"/><path d="M248.20111,175.08757c-0.67541,2.78465 -3.48034,4.49453 -6.26499,3.81913c-2.78465,-0.67541 -4.49453,-3.48034 -3.81913,-6.26499c0.67541,-2.78465 3.48034,-4.49453 6.26499,-3.81913c2.78465,0.67541 4.49453,3.48034 3.81913,6.26499z" fill="#dcf9ff" stroke="#000000" stroke-width="1.5"/><path d="M232.79953,185.19513l0.39122,-1.61296c0,0 2.18529,3.10289 3.78447,3.49076c1.63968,0.3977 5.93516,-1.13331 5.93516,-1.13331l-0.39122,1.61296c0,0 -4.33095,1.90833 -6.02356,1.4978c-1.53103,-0.37134 -3.69607,-3.85525 -3.69607,-3.85525z" fill="#67acfa" stroke="#000000" stroke-width="0"/><path d="M235.13683,197.3044c0,0 -0.97587,-2.40757 -1.31594,-3.49741c-0.30822,-0.98775 -0.63837,-2.76552 -0.63837,-2.76552c0,0 1.83942,1.69632 2.87831,1.92839c1.18027,0.26364 3.83341,-0.42913 3.83341,-0.42913c0,0 -1.03596,1.25416 -1.58785,1.80677c-0.87747,0.87863 -3.16956,2.95691 -3.16956,2.95691z" fill="#67acfa" stroke="none" stroke-width="0"/><path d="M263.15,216.7c0,1.31168 -12.48006,2.375 -27.875,2.375c-15.39494,0 -27.875,-1.06332 -27.875,-2.375c0,-1.31168 12.48006,-2.375 27.875,-2.375c15.39494,0 27.875,1.06332 27.875,2.375z" fill-opacity="0.85098" fill="#423b34" stroke="#000000" stroke-width="0"/></g></g></svg>