<svg version="1.1" xmlns="http://www.w3.org/2000/svg" xmlns:xlink="http://www.w3.org/1999/xlink" width="49.71033" height="52.03528" viewBox="0,0,49.71033,52.03528"><g transform="translate(-217.28176,-158.1973)"><g stroke-miterlimit="10"><path d="M266.71166,202.91467c0,4.04157 -10.16285,7.31792 -22.69936,7.31792c-12.53652,0 -22.69936,-3.27634 -22.69936,-7.31792c0,-4.04157 10.16285,-7.31793 22.69937,-7.31793c12.53652,0 22.69937,3.27635 22.69937,7.31793z" fill-opacity="0.85098" fill="#423b34" stroke="#2c7fb5" stroke-width="0"/><path d="M218.78176,176.13023c1.13779,-10.14896 10.28752,-17.45395 20.43648,-16.31616c10.14896,1.13779 17.45397,10.2875 16.31617,20.43646c-1.1378,10.14894 -10.28751,17.45395 -20.43647,16.31617c-10.14894,-1.1378 -17.45397,-10.28752 -16.31618,-20.43648z" fill="#33ccfd" stroke="#2c7fb5" stroke-width="3"/><path d="M230.98385,174.70372c0.52496,-4.68261 4.74654,-8.05305 9.42915,-7.52808c4.68261,0.52496 8.05305,4.74653 7.52809,9.42914c-0.52496,4.68261 -4.74652,8.05304 -9.42914,7.52809c-4.68261,-0.52496 -8.05305,-4.74652 -7.5281,-9.42914z" fill="#24a4eb" stroke="#2c7fb5" stroke-width="0"/><path d="M239.07658,193.39416c-0.73078,2.00842 -3.57686,2.65425 -6.70374,1.5165c-1.81242,-0.65947 -3.88969,-1.59345 -4.61634,-2.82151c-0.52698,-0.89065 -0.31055,-1.97087 -0.00335,-2.81515c0.73078,-2.00842 3.85802,-2.71422 6.98491,-1.57647c3.12688,1.13776 5.06932,3.68821 4.33854,5.69662z" fill="#33bcf1" stroke="#2c7fb5" stroke-width="0"/><path d="M226.32608,172.5408c-1.24251,2.63367 -3.22522,4.30846 -4.42853,3.74077c-0.48652,-0.22953 -1.04216,-0.82088 -1.1265,-1.58183c-0.12422,-1.12112 0.45731,-2.64592 1.19744,-4.21474c0.78109,-1.65563 1.69428,-3.13327 2.68289,-3.71213c0.58401,-0.34196 1.29877,-0.23945 1.74564,-0.02863c1.20332,0.5677 1.17156,3.16291 -0.07096,5.79659z" fill="#33bcf1" stroke="#2c7fb5" stroke-width="0"/><path d="M250.94568,168.91036c-0.63031,1.05633 -2.89992,0.43836 -5.33594,-1.01521c-2.43601,-1.45355 -3.75379,-3.975 -3.12349,-5.03133c0.07288,-0.12213 0.16943,-0.46982 0.46226,-0.47293c0.85555,-0.0091 2.59424,0.7662 4.06671,1.69586c2.38239,1.50412 4.27497,4.24626 3.93046,4.8236z" fill="#33bcf1" stroke="#2c7fb5" stroke-width="0"/><path d="M252.72881,195.13805c0.17274,2.48948 -0.93308,10.16852 -3.0669,10.31656c-2.13383,0.14805 -4.48764,-7.29097 -4.66039,-9.78044c-0.17274,-2.48948 1.41706,-4.62759 3.55088,-4.77566c2.13383,-0.14805 4.00365,1.75005 4.17638,4.23951z" fill="#000000" stroke="#000000" stroke-width="1.5"/><path d="M264.43944,190.72485c1.07803,2.25057 2.88,9.79668 0.95094,10.72069c-1.92909,0.92402 -6.85873,-5.12395 -7.93674,-7.37454c-1.07803,-2.25057 -0.38807,-4.82412 1.54098,-5.74813c1.92909,-0.92402 4.36681,0.1514 5.44482,2.40198z" fill="#000000" stroke="#000000" stroke-width="1.5"/><path d="M264.56592,181.26338c1.43748,6.01219 -2.38992,12.07977 -8.54872,13.55231c-6.15882,1.47255 -12.31684,-2.20757 -13.75434,-8.21974c-1.43748,-6.01219 2.38992,-12.07977 8.54872,-13.55231c6.15882,-1.47255 12.31684,2.20757 13.75434,8.21974z" fill="#2c415e" stroke="#000000" stroke-width="2.5"/><path d="M262.0956,177.12205c0.31304,1.30934 -0.45212,2.61445 -1.70913,2.91496c-1.25697,0.30054 -2.52975,-0.51727 -2.84282,-1.82664c-0.31304,-1.30934 0.45212,-2.61445 1.70913,-2.91496c1.25697,-0.30054 2.52975,0.51727 2.84282,1.82664z" fill="#ddffff" stroke="#000000" stroke-width="1.5"/><path d="M264.66796,182.37252c0.39423,1.64882 -0.56936,3.29225 -2.15222,3.6707c-1.58287,0.37847 -3.18562,-0.65138 -3.57984,-2.30018c-0.39423,-1.64882 0.56936,-3.29225 2.15222,-3.6707c1.58287,-0.37847 3.18561,0.65138 3.57984,2.30018z" fill="#ddffff" stroke="#000000" stroke-width="1.5"/><path d="M256.12523,184.6181c0.4406,1.84281 -0.63635,3.6796 -2.40543,4.10255c-1.76909,0.42299 -3.56039,-0.728 -4.001,-2.5708c-0.4406,-1.84281 0.63636,-3.67958 2.40542,-4.10254c1.76909,-0.42299 3.56039,0.728 4.001,2.57079z" fill="#ddffff" stroke="#000000" stroke-width="1.5"/><path d="M254.78166,179.1744c0.28166,1.17803 -0.40678,2.35218 -1.53768,2.62257c-1.13089,0.27038 -2.276,-0.46538 -2.55765,-1.6434c-0.28166,-1.17803 0.40677,-2.35217 1.53768,-2.62257c1.13089,-0.27038 2.276,0.46538 2.55765,1.64339z" fill="#ddffff" stroke="#000000" stroke-width="1.5"/><path d="M249.76492,194.85114c0.14717,2.4911 -1.03742,10.15841 -3.17263,10.28455c-2.13525,0.12614 -4.41257,-7.33665 -4.55974,-9.82775c-0.14717,-2.4911 1.46451,-4.61281 3.59974,-4.73894c2.13525,-0.12614 3.9855,1.79105 4.13264,4.28217z" fill="#7888ab" stroke="#000000" stroke-width="1.5"/><path d="M239.60211,196.20055c-0.68401,2.39985 -4.33496,9.24539 -6.39198,8.65909c-2.05705,-0.5863 -1.74122,-8.38244 -1.05717,-10.78229c0.68401,-2.39985 2.90609,-3.87004 4.96314,-3.28375c2.05705,0.5863 3.17006,3.00711 2.48603,5.40695z" fill="#7888ab" stroke="#000000" stroke-width="1.5"/></g></g></svg>