<svg version="1.1" xmlns="http://www.w3.org/2000/svg" xmlns:xlink="http://www.w3.org/1999/xlink" width="58.63187" height="44.29194" viewBox="0,0,58.63187,44.29194"><g transform="translate(-211.15188,-157.259)"><g data-paper-data="{&quot;isPaintingLayer&quot;:true}" fill-rule="nonzero" stroke-linejoin="miter" stroke-miterlimit="10" stroke-dasharray="" stroke-dashoffset="0" style="mix-blend-mode: normal"><path d="M268.97418,171.29549c0.40637,0.33886 0.32492,0.67887 -0.19043,0.67263c-1.66863,-0.02017 -10.60713,-0.12823 -10.60713,-0.12823l3.99223,-6.21902c0,0 5.63556,4.69922 6.80533,5.67462z" data-paper-data="{&quot;index&quot;:null}" fill="#000000" stroke="#000000" stroke-width="2" stroke-linecap="butt"/><path d="M266.74195,187.70735c-1.44196,-0.4904 -8.38893,-2.853 -8.38893,-2.853l3.22892,-6.64742c0,0 4.74853,7.57364 5.63496,8.98748c0.27378,0.43666 0.02598,0.6833 -0.47497,0.51293z" fill="#000000" stroke="#000000" stroke-width="2" stroke-linecap="butt"/><path d="M246.55565,184.60679c6.75992,0 9.25413,3.72226 9.25413,8.31391c0,2.20902 0.94762,5.0636 -0.50557,7.63024c-2.23165,1.60593 -16.85997,1.07626 -19.10521,-0.72978c-1.7994,-1.44741 -0.31181,-4.8577 -0.31181,-6.90046c0,-4.59165 3.90853,-8.31391 10.66845,-8.31391z" fill="#000000" stroke="#000000" stroke-width="2" stroke-linecap="butt"/><path d="M261.56685,190.76523h-11.85501v-30.1764h11.85501z" fill="#ababab" stroke="#000000" stroke-width="2.5" stroke-linecap="butt"/><path d="M264.48886,163.38674l-16.02269,3.54111l-2.7713,-6.95005c0,0 11.80891,-1.20198 14.49339,-1.47523c1.03277,-0.10512 2.30544,0.55832 2.44379,1.22864c0.31507,1.52654 1.85681,3.65553 1.85681,3.65553z" data-paper-data="{&quot;index&quot;:null}" fill="#894444" stroke="#000000" stroke-width="2.5" stroke-linecap="butt"/><path d="M257.82212,198.76127c-2.4571,-0.2501 -12.12725,-1.42798 -12.12725,-1.42798v-14.21163l18.15116,3.36486c0,0 -4.43904,8.2757 -4.33887,10.40788c0.04443,0.94585 -0.8095,1.95598 -1.68504,1.86687z" fill="#894444" stroke="#000000" stroke-width="2.5" stroke-linecap="butt"/><path d="M222.23743,162.05379c5.84623,0 10.58555,7.79133 10.58555,17.40242c0,9.61109 -4.73931,17.40241 -10.58555,17.40241c-5.84623,0 -10.58555,-7.79132 -10.58555,-17.40241c0,-9.61109 4.73931,-17.40242 10.58555,-17.40242z" fill="#000000" stroke="#000000" stroke-width="1" stroke-linecap="butt"/><path d="M242.746,197.07881h-18.2932v-8.71215h18.2932z" fill="#894444" stroke="#000000" stroke-width="2.5" stroke-linecap="butt"/><path d="M224.03851,197.76161c-0.99318,0 -2.97329,0 -3.59407,0c-0.31371,0 -0.71458,-0.27752 -0.77766,-0.5335c-0.16197,-0.65733 -0.86689,-3.518 -0.86689,-3.518l6.75006,-0.51425c0,0 -0.67335,3.29938 -0.82056,4.0207c-0.0542,0.26558 -0.33917,0.54503 -0.69087,0.54503z" fill="#653333" stroke="#000000" stroke-width="1.5" stroke-linecap="butt"/><path d="M242.53842,189.67489c0,0 -10.63575,0 -12.8116,0c-0.74379,0 -1.49706,-0.4783 -1.49706,-1.08096c0,-3.07831 0,-28.20314 0,-28.20314h14.30867z" fill="#fcc9c4" stroke="#000000" stroke-width="1" stroke-linecap="butt"/><path d="M218.52943,187.055c-0.02457,-1.20408 -0.0666,-3.20629 -0.03539,-5.56344c0.08514,-6.43185 0.40582,-15.50639 0.39321,-18.2193c-0.00224,-0.48118 0.10958,-1.06515 0.31989,-1.40339c0.24888,-0.40024 0.62123,-1.07497 1.06066,-1.47725c0.99541,-0.91125 2.40207,-1.62084 3.86824,-1.68767c1.2851,-0.05857 2.61166,0.25484 3.70197,0.87835c0.99733,0.57033 1.81003,1.49838 2.19942,2.11557c0.15553,0.24652 0.27492,1.01893 0.2872,1.29991c0.10863,2.48593 0.04908,5.82755 0.01484,9.35115c-0.04988,5.13125 -0.13284,10.64841 -0.28599,14.4709c-0.01051,0.26242 -0.10067,1.15762 -0.20976,1.46476c-0.09933,0.27968 -0.48641,0.56262 -0.72193,0.85626c-0.13666,0.17039 -0.38247,-0.31379 -0.55127,-0.14438c-1.33916,1.34395 -3.51246,3.24331 -5.34629,3.29554c-2.41479,0.06877 -3.91598,-2.02113 -4.55883,-3.76897c-0.10438,-0.28379 -0.12939,-1.14595 -0.13597,-1.46801z" fill="#c16161" stroke="#000000" stroke-width="0" stroke-linecap="butt"/><path d="M218.30707,160.83826c0.45355,0.24035 0.44556,0.95763 -0.01783,1.6021c-0.46339,0.64447 -1.20672,0.97207 -1.66026,0.73173c-0.45355,-0.24035 -0.44556,-0.95763 0.01783,-1.6021c0.46339,-0.64447 1.20672,-0.97207 1.66027,-0.73172z" fill="#effbff" stroke="#000000" stroke-width="0" stroke-linecap="butt"/><path d="M242.02438,159.95581h-14.55572" fill="none" stroke="#000000" stroke-width="3" stroke-linecap="round"/><path d="M247.82693,197.151h-5.49333v-37.58833h7.64879c0,0 0.0469,6.3229 0.25832,8.69896c0.04517,0.50763 5.93291,6.776 4.82671,7.50618c-1.36397,0.90033 -4.61876,5.47153 -4.865,6.02514c-2.7713,6.23043 -2.37549,15.35806 -2.37549,15.35806z" fill="#ff4949" stroke="#000000" stroke-width="2.5" stroke-linecap="butt"/><path d="M215.12315,188.97024c-0.02603,-1.03259 -0.08141,-2.89065 -0.04443,-5.1032c0.09486,-5.67406 0.37724,-13.67946 0.36318,-16.07274c-0.00249,-0.42448 0.0207,-0.67237 0.02681,-0.69948c0.18611,-0.82612 2.93195,-2.38756 5.8961,-2.49452c3.26462,-0.1178 6.76945,1.303 6.84655,2.238c0.18492,2.24254 0.10754,5.50347 0.06506,8.96327c-0.05633,4.58787 -0.15052,9.52544 -0.3256,12.90186c-0.00952,0.18368 -0.08468,0.81971 -0.17193,1.03481c-0.603,1.4866 -3.03336,5.05036 -5.85682,5.11404c-2.59003,0.05841 -5.69462,-2.96753 -6.56181,-4.59287c-0.17989,-0.33717 -0.23214,-1.09172 -0.23712,-1.28917z" fill="#439fc0" stroke="#000000" stroke-width="0" stroke-linecap="butt"/><path d="M215.15299,185.58306c-0.01234,-0.83346 -0.09936,-2.96607 -0.0553,-5.60172c0.09486,-5.67406 0.37723,-13.67947 0.36318,-16.07275c-0.00249,-0.42448 0.02071,-0.67237 0.02681,-0.69948c0.18611,-0.82612 2.93194,-2.38756 5.8961,-2.49452c3.26462,-0.1178 6.76945,1.303 6.84654,2.238c0.18492,2.24254 0.10754,5.50347 0.06507,8.96328c-0.05939,4.83745 -0.16088,10.06369 -0.35489,13.43874c-0.05059,0.87998 -2.76747,5.41046 -5.99945,5.48334c-3.12731,0.07053 -7.00483,-4.22706 -6.78807,-5.25488z" fill="#50bee6" stroke="#000000" stroke-width="0" stroke-linecap="butt"/><path d="M215.83301,184.16721c-0.02457,-1.06222 -0.0666,-2.82853 -0.03539,-4.90797c0.08514,-5.67406 0.40582,-13.67946 0.39321,-16.07274c-0.00224,-0.42448 0.10958,-0.93966 0.31989,-1.23805c0.24888,-0.35309 0.62123,-0.94831 1.06066,-1.30321c0.99541,-0.80389 2.40207,-1.42988 3.86824,-1.48883c1.2851,-0.05167 2.61167,0.22482 3.70197,0.77487c0.99733,0.50313 1.81003,1.32184 2.19942,1.86632c0.15553,0.21747 0.27492,0.89888 0.28719,1.14676c0.10863,2.19305 0.04909,5.14096 0.01484,8.24942c-0.04988,4.52669 -0.13284,9.39383 -0.28599,12.76597c-0.01051,0.2315 -0.10067,1.02122 -0.20976,1.29218c-0.61423,1.5257 -2.74417,4.80203 -5.20752,4.86392c-2.41479,0.06067 -5.32795,-3.11167 -5.97081,-4.65358c-0.10438,-0.25035 -0.12939,-1.01093 -0.13597,-1.29506z" fill="#ffffff" stroke="#000000" stroke-width="0" stroke-linecap="butt"/><path d="M216.77298,184.27059c-0.02457,-1.0394 -0.0666,-2.76778 -0.03539,-4.80256c0.08514,-5.5522 0.40582,-13.38567 0.39321,-15.72755c-0.00224,-0.41537 0.10958,-0.91947 0.31989,-1.21146c0.24888,-0.34551 0.62123,-0.92795 1.06066,-1.27521c0.99541,-0.78662 2.40207,-1.39917 3.86824,-1.45685c1.2851,-0.05056 2.61166,0.21999 3.70197,0.75823c0.99733,0.49232 1.81003,1.29345 2.19942,1.82623c0.15553,0.21281 0.27492,0.87957 0.2872,1.12213c0.10863,2.14595 0.04908,5.03055 0.01484,8.07225c-0.04988,4.42948 -0.13284,9.19208 -0.28599,12.4918c-0.01051,0.22653 -0.10067,0.99929 -0.20976,1.26443c-0.61423,1.49293 -2.74417,4.6989 -5.20752,4.75946c-2.41479,0.05937 -5.32795,-3.04484 -5.97081,-4.55364c-0.10438,-0.24498 -0.12939,-0.98922 -0.13597,-1.26724z" fill="#6cd8ff" stroke="#000000" stroke-width="0" stroke-linecap="butt"/><path d="M228.15334,181.47467l-12.92455,-3.35653l0.24393,-9.71628l12.86973,2.91489z" fill="#effbff" stroke="none" stroke-width="0" stroke-linecap="butt"/><path d="M215.10956,188.18169c-0.02603,-1.2345 -0.08141,-3.45586 -0.04443,-6.10105c0.09486,-6.78354 0.37724,-16.35428 0.36319,-19.21553c-0.00249,-0.50749 0.23328,-1.31446 0.49805,-1.58961c0.93619,-0.97289 3.1142,-2.12926 5.42487,-2.22895c2.709,-0.11687 5.58342,1.03288 6.52741,2.06634c0.19361,0.21197 0.34426,0.99907 0.35491,1.20296c0.13826,2.64632 0.06874,6.2818 0.0293,10.12223c-0.05633,5.48497 -0.15052,11.38801 -0.3256,15.42463c-0.00952,0.21959 -0.08468,0.98 -0.17193,1.23715c-0.603,1.77728 -3.10826,5.39475 -5.93173,5.47087c-2.59003,0.06983 -5.61971,-2.90464 -6.48689,-4.84779c-0.17989,-0.4031 -0.23215,-1.30519 -0.23712,-1.54126z" fill="none" stroke="#000000" stroke-width="3" stroke-linecap="butt"/><path d="M231.0618,189.36118c0,0 -0.4155,0.05272 -0.80942,0.01559c-0.12914,-0.01218 -0.28216,0.03569 -0.39126,0.00635c-0.09494,-0.02554 -0.30749,-0.03156 -0.36545,-0.04182c-0.18401,-0.03258 -0.48101,-0.14122 -0.48101,-0.14122c0,0 0.25394,-0.24807 0.2962,-0.33032c0.10488,-0.20414 0.58949,-1.06618 0.58949,-1.06618c0,0 0.01925,0.09356 -0.00172,0.22637c-0.04351,0.27562 -0.12236,0.72029 0.06057,0.84884c0.28868,0.20285 1.10258,0.48239 1.10258,0.48239z" fill="#c16161" stroke="#000000" stroke-width="0" stroke-linecap="butt"/><path d="M218.76894,160.88957c0.45355,0.24035 0.44556,0.95763 -0.01783,1.6021c-0.46339,0.64447 -1.20672,0.97207 -1.66026,0.73173c-0.45355,-0.24035 -0.44556,-0.95763 0.01783,-1.6021c0.46339,-0.64447 1.20672,-0.97207 1.66027,-0.73172z" fill="#effbff" stroke="#000000" stroke-width="0" stroke-linecap="butt"/><path d="M243.02268,196.65259v-36.33484h1.95018z" fill="#f27a7a" stroke="none" stroke-width="NaN" stroke-linecap="butt"/><g fill="none" stroke="#000000" stroke-width="2" stroke-linecap="round"><path d="M236.9707,165.94598l-4.94137,4.94137"/><path d="M236.9707,170.88735l-4.94137,-4.94137"/></g><g fill="none" stroke="#000000" stroke-width="2" stroke-linecap="round"><path d="M236.63737,179.61265l-4.94137,4.94137"/><path d="M236.63738,184.55402l-4.94137,-4.94137"/></g></g></g></svg>