<svg version="1.1" xmlns="http://www.w3.org/2000/svg" xmlns:xlink="http://www.w3.org/1999/xlink" width="79.83939" height="37.50999" viewBox="0,0,79.83939,37.50999"><g transform="translate(-200.08588,-180.356)"><g data-paper-data="{&quot;isPaintingLayer&quot;:true}" fill-rule="nonzero" stroke-linecap="butt" stroke-linejoin="miter" stroke-miterlimit="10" stroke-dasharray="" stroke-dashoffset="0" style="mix-blend-mode: normal"><path d="M276.0014,210.48958c5.48846,2.04395 1.77736,3.24411 -4.36463,4.35596c-6.14199,1.11185 -12.389,1.71436 -17.87748,-0.32959c-5.48846,-2.04395 -11.41619,-7.18043 -5.2742,-8.29228c6.14199,-1.11185 22.02784,2.22197 27.51629,4.26592z" fill="#ffa766" stroke="#000000" stroke-width="2.5"/><path d="M269.80899,209.58525c4.2455,1.58105 1.37484,2.50941 -3.37618,3.36946c-4.75102,0.86005 -9.58328,1.32611 -13.82878,-0.25495c-4.2455,-1.58105 -8.83077,-5.55428 -4.07976,-6.41434c4.75102,-0.86005 17.03921,1.71876 21.28471,3.29981z" fill="#f0fa9b" stroke="#000000" stroke-width="0"/><path d="M238.47296,205.76932c17.71572,1.23373 28.52073,2.73964 24.60764,6.52769c-3.9131,3.78805 -15.94744,5.10386 -33.66316,3.87013c-0.42823,-0.02982 -8.49397,-0.19959 -15.51713,-1.19361c-6.89053,-0.97525 -12.38176,-1.61341 -12.56442,-2.95018c-0.39092,-2.86101 9.55864,-4.13947 18.8607,-5.27273c5.51114,-0.67141 11.68538,-1.4403 18.27637,-0.9813z" fill="#f0fa9b" stroke="#000000" stroke-width="2.5"/><path d="M234.98279,207.69013c11.50797,-0.03198 20.89764,1.41275 20.97242,3.22687c0.07477,1.81412 -9.19367,3.3107 -20.70165,3.34267c-11.50797,0.03198 -20.89764,-1.41275 -20.97242,-3.22687c-0.07477,-1.81412 9.19367,-3.3107 20.70164,-3.34267z" fill="#ffa766" stroke="none" stroke-width="0"/><path d="M244.67224,205.43686c-4.03275,-2.34328 4.95335,-9.56869 11.04884,-12.11543c6.09548,-2.54673 10.63063,-0.97061 14.66338,1.37268c4.03275,2.34328 6.03597,4.56636 -0.05951,7.1131c-6.09548,2.54673 -21.61998,5.97294 -25.65272,3.62965z" data-paper-data="{&quot;index&quot;:null}" fill="#ffa766" stroke="#000000" stroke-width="2.5"/><path d="M246.23375,204.34661c-3.11947,-1.8126 3.83158,-7.40167 8.54662,-9.37165c4.71505,-1.96998 8.22313,-0.75078 11.34259,1.06181c3.11947,1.8126 4.66901,3.53222 -0.04603,5.5022c-4.71505,1.96998 -16.72371,4.62025 -19.84318,2.80765z" data-paper-data="{&quot;index&quot;:null}" fill="#f0fa9b" stroke="#000000" stroke-width="0"/><path d="M210.52192,193.56362c-3.42054,-4.33871 -6.9134,-9.04988 0.50169,-11.95762c3.46461,-1.35861 8.75162,-0.18607 15.82204,1.09992c7.2065,1.31074 13.05337,3.8485 13.41581,3.96113c14.99418,4.65942 19.79523,10.11283 12.9561,15.45589c-6.83913,5.34306 -17.86778,3.30168 -32.86198,-1.35775c-5.57847,-1.7335 -7.80713,-4.63104 -9.83368,-7.20158z" data-paper-data="{&quot;index&quot;:null}" fill="#f0fa9b" stroke="#000000" stroke-width="2.5"/><path d="M217.25014,187.02084c4.58545,-1.9021 14.50963,-0.27268 22.16629,3.63943c7.65666,3.9121 10.14637,8.62545 5.56094,10.52755c-4.58545,1.9021 -14.50963,0.27268 -22.16629,-3.63943c-7.65666,-3.9121 -10.14637,-8.62545 -5.56094,-10.52755z" data-paper-data="{&quot;index&quot;:null}" fill="#ffa766" stroke="none" stroke-width="0"/><path d="M249.66717,197.92152c8.87537,2.15268 14.20548,11.36344 14.28974,11.23879c0.22205,-0.32847 -9.00614,5.72248 -17.88151,3.56981c-8.87537,-2.15268 -15.15647,-8.25237 -14.39353,-11.39797c0.76295,-3.1456 9.10991,-5.5633 17.98528,-3.41062z" fill="#ff9900" stroke="#000000" stroke-width="1.5"/><path d="M233.39523,192.08466c4.84946,1.17621 7.80145,6.16725 6.59345,11.14778c-1.208,4.98054 -6.11856,8.06454 -10.96802,6.88832c-4.84946,-1.17621 -7.80145,-6.16725 -6.59345,-11.14778c1.208,-4.98054 6.11856,-8.06454 10.96802,-6.88832z" fill="#ffcc87" stroke="#000000" stroke-width="1.5"/><path d="M233.21166,197.29343c3.62617,0.87952 5.85278,4.5321 4.97328,8.15828c-0.87952,3.62617 -4.5321,5.85278 -8.15828,4.97328c-3.62617,-0.87952 -5.85278,-4.5321 -4.97328,-8.15828c0.87952,-3.62617 4.5321,-5.85278 8.15828,-4.97328z" fill="#dcf9ff" stroke="#000000" stroke-width="1.5"/><path d="M246.76511,211.7443l-2.1004,-0.50945c0,0 4.04059,-2.84569 4.54567,-4.92814c0.51789,-2.13519 -1.4758,-7.72877 -1.4758,-7.72877l2.1004,0.50945c0,0 2.48503,5.63977 1.95044,7.84389c-0.48356,1.99371 -5.02031,4.81303 -5.02031,4.81303z" fill="#c58c32" stroke="#000000" stroke-width="0"/><path d="M262.53382,208.70067c0,0 -3.13514,1.27078 -4.55433,1.71362c-1.28625,0.40136 -3.60126,0.83129 -3.60126,0.83129c0,0 2.20895,-2.39529 2.51115,-3.74814c0.34331,-1.53695 -0.55881,-4.99187 -0.55881,-4.99187c0,0 1.63317,1.34903 2.35278,2.0677c1.14415,1.14264 3.85049,4.1274 3.85049,4.1274z" fill="#c58c32" stroke="none" stroke-width="0"/></g></g></svg>