<svg version="1.1" xmlns="http://www.w3.org/2000/svg" xmlns:xlink="http://www.w3.org/1999/xlink" width="69.88254" height="70.01636" viewBox="0,0,69.88254,70.01636"><g transform="translate(-204.63309,-149.05864)"><g stroke-miterlimit="10"><path d="M239.78942,189.15249c3.29171,-2.79124 13.44155,3.42843 17.01906,7.64738c3.57751,4.21895 1.36345,7.35793 -1.92826,10.14917c-3.29171,2.79124 -6.41457,4.17776 -9.99208,-0.04119c-3.57751,-4.21895 -8.39044,-14.96413 -5.09873,-17.75537z" fill="#66a8fe" stroke="#000000" stroke-width="1.5"/><path d="M239.91618,189.20937c2.54624,-2.15912 10.39746,2.652 13.16477,5.91549c2.76731,3.26349 1.05467,5.69159 -1.49157,7.8507c-2.54624,2.15912 -4.96187,3.23163 -7.72918,-0.03186c-2.76731,-3.26349 -6.49026,-11.57521 -3.94402,-13.73433z" fill="#9cdffa" stroke="#000000" stroke-width="0"/><path d="M224.00275,207.64657c-6.04524,4.21476 -9.59486,1.36489 -12.8833,-3.35173c-3.28844,-4.71662 -5.07043,-9.51389 0.97481,-13.72866c6.04524,-4.21476 21.23705,-8.76684 24.52548,-4.05022c3.28844,4.71662 -6.57175,16.91585 -12.617,21.1306z" fill="#66a8fe" stroke="#000000" stroke-width="2.5"/><path d="M226.67746,202.89123c-4.67618,3.26025 -7.42193,1.05578 -9.96563,-2.59267c-2.54371,-3.64845 -3.92214,-7.35929 0.75404,-10.61954c4.67618,-3.26025 16.42751,-6.78142 18.97123,-3.13297c2.54371,3.64845 -5.08345,13.08493 -9.75963,16.34518z" fill="#9cdffa" stroke="#000000" stroke-width="0"/><path d="M237.96354,178.82733c-3.64891,13.60444 -8.10283,21.90194 -19.30649,18.89696c-11.20366,-3.00499 -15.09532,-12.24653 -11.44641,-25.85097c0.0882,-0.32885 0.59032,-6.52278 3.53025,-11.91608c2.88442,-5.29145 4.77189,-9.50833 8.72555,-9.6486c8.46179,-0.3002 12.243,7.34037 15.59476,14.48371c1.9858,4.23217 4.25988,8.97356 2.90233,14.03498z" fill="#9cdffa" stroke="#000000" stroke-width="2.5"/><path d="M232.28252,176.14712c0.09457,8.83732 -4.17837,16.04794 -9.54389,16.10536c-5.36552,0.05742 -9.7918,-7.0601 -9.88637,-15.89743c-0.09457,-8.83732 4.17837,-16.04794 9.54389,-16.10536c5.36552,-0.05742 9.7918,7.0601 9.88637,15.89742z" fill="#67acfa" stroke="none" stroke-width="0"/><path d="M256.46824,165.51555c6.09477,-2.36751 12.71275,-4.78507 16.79739,0.34724c1.90849,2.39801 0.26138,6.05738 -1.54511,10.95113c-1.84126,4.98793 -5.40615,9.03481 -5.56437,9.28567c-6.54529,10.37813 -14.20592,13.70115 -21.71155,8.96749c-7.50563,-4.73366 -4.638,-12.36708 1.90729,-22.74521c2.43513,-3.8611 6.50543,-5.40366 10.11636,-6.80632z" fill="#9cdffa" stroke="#000000" stroke-width="2.5"/><path d="M265.65918,170.17245c2.67196,3.17379 0.38304,10.04275 -5.11247,15.34226c-5.4955,5.29951 -12.11654,7.02275 -14.7885,3.84897c-2.67196,-3.17379 -0.38304,-10.04275 5.11247,-15.34226c5.4955,-5.29951 12.11654,-7.02275 14.7885,-3.84897z" fill="#67acfa" stroke="none" stroke-width="0"/><path d="M244.29447,187.42371c-1.65311,6.81567 -8.72633,10.90882 -8.63061,10.97353c0.25224,0.17052 -4.39447,-6.91609 -2.74137,-13.73176c1.65311,-6.81567 6.33725,-11.63912 8.75285,-11.05323c2.4156,0.58589 4.27223,6.99578 2.61912,13.81145z" fill="#2ed5e7" stroke="#000000" stroke-width="1.5"/><path d="M248.77676,174.92799c-0.90325,3.72405 -4.73602,5.99097 -8.56072,5.06331c-3.82471,-0.92766 -6.19301,-4.69863 -5.28975,-8.42268c0.90325,-3.72405 4.73602,-5.99097 8.56072,-5.06331c3.82471,0.92766 6.19301,4.69863 5.28975,8.42268z" fill="#7888bc" stroke="#000000" stroke-width="1.5"/><path d="M249.08111,175.08757c-0.67541,2.78465 -3.48034,4.49453 -6.26499,3.81913c-2.78465,-0.67541 -4.49453,-3.48034 -3.81913,-6.26499c0.67541,-2.78465 3.48034,-4.49453 6.26499,-3.81913c2.78465,0.67541 4.49453,3.48034 3.81913,6.26499z" fill="#dcf9ff" stroke="#000000" stroke-width="1.5"/><path d="M233.67953,185.19513l0.39122,-1.61296c0,0 2.18529,3.10289 3.78447,3.49076c1.63968,0.3977 5.93516,-1.13331 5.93516,-1.13331l-0.39122,1.61296c0,0 -4.33095,1.90833 -6.02356,1.4978c-1.53103,-0.37134 -3.69607,-3.85525 -3.69607,-3.85525z" fill="#67acfa" stroke="#000000" stroke-width="0"/><path d="M236.01683,197.3044c0,0 -0.97587,-2.40757 -1.31594,-3.49741c-0.30822,-0.98775 -0.63837,-2.76552 -0.63837,-2.76552c0,0 1.83942,1.69632 2.87831,1.92839c1.18027,0.26364 3.83341,-0.42913 3.83341,-0.42913c0,0 -1.03596,1.25416 -1.58785,1.80677c-0.87747,0.87863 -3.16956,2.95691 -3.16956,2.95691z" fill="#67acfa" stroke="none" stroke-width="0"/><path d="M263.15,216.7c0,1.31168 -12.48006,2.375 -27.875,2.375c-15.39494,0 -27.875,-1.06332 -27.875,-2.375c0,-1.31168 12.48006,-2.375 27.875,-2.375c15.39494,0 27.875,1.06332 27.875,2.375z" fill-opacity="0.85098" fill="#423b34" stroke="#000000" stroke-width="0"/></g></g></svg>