<svg version="1.1" xmlns="http://www.w3.org/2000/svg" xmlns:xlink="http://www.w3.org/1999/xlink" width="89.92341" height="89.41441" viewBox="0,0,89.92341,89.41441"><g transform="translate(-194.48608,-140.22786)"><g data-paper-data="{&quot;isPaintingLayer&quot;:true}" fill-rule="nonzero" stroke-linecap="butt" stroke-linejoin="miter" stroke-miterlimit="10" stroke-dasharray="" stroke-dashoffset="0" style="mix-blend-mode: normal"><path d="M267.7846,217.07626c0,5.14508 -15.33425,9.316 -34.25,9.316c-18.91575,0 -34.25,-4.17092 -34.25,-9.316c0,-5.14508 15.33425,-9.316 34.25,-9.316c18.91575,0 34.25,4.17092 34.25,9.316z" fill="none" stroke="#f71933" stroke-width="6.5"/><path d="M239.72679,191.87462c4.27073,-3.62141 17.43933,4.44811 22.08086,9.92186c4.64153,5.47375 1.76897,9.54632 -2.50176,13.16773c-4.27073,3.62141 -8.32239,5.42031 -12.96392,-0.05344c-4.64153,-5.47375 -10.88592,-19.41475 -6.61519,-23.03616z" data-paper-data="{&quot;index&quot;:null}" fill="#ffa766" stroke="#000000" stroke-width="1.5"/><path d="M239.89125,191.94842c3.30354,-2.80128 13.48987,3.44076 17.08023,7.67487c3.59036,4.23412 1.36835,7.38438 -1.93519,10.18565c-3.30354,2.80128 -6.43763,4.19278 -10.02799,-0.04134c-3.59036,-4.23412 -8.42059,-15.0179 -5.11705,-17.81919z" data-paper-data="{&quot;index&quot;:null}" fill="#f0fa9b" stroke="#000000" stroke-width="0"/><path d="M219.24486,215.8692c-7.84321,5.46831 -12.44856,1.77083 -16.71504,-4.3486c-4.26649,-6.11943 -6.57847,-12.3435 1.26474,-17.81183c7.84321,-5.46831 27.55336,-11.37427 31.81983,-5.25483c4.26649,6.11943 -8.52632,21.94695 -16.36954,27.41525z" fill="#ffa766" stroke="#000000" stroke-width="2.5"/><path d="M222.71508,209.69953c-6.06697,4.22991 -9.62936,1.36979 -12.9296,-3.36378c-3.30026,-4.73357 -5.08866,-9.54809 0.97831,-13.778c6.06697,-4.22991 21.31337,-8.79835 24.61364,-4.06478c3.30026,4.73357 -6.59537,16.97664 -12.66233,21.20655z" fill="#f0fa9b" stroke="#000000" stroke-width="0"/><path d="M237.35786,178.47856c-4.73417,17.65066 -10.51277,28.416 -25.04861,24.51728c-14.53585,-3.89873 -19.58496,-15.88888 -14.85079,-33.53955c0.11443,-0.42666 0.76589,-8.46278 4.58021,-15.46015c3.7423,-6.86523 6.19114,-12.33629 11.3207,-12.51828c10.97849,-0.38949 15.88431,9.52354 20.23294,18.79145c2.57642,5.4909 5.52685,11.64247 3.76554,18.20925z" fill="#f0fa9b" stroke="#000000" stroke-width="2.5"/><path d="M229.9872,175.0012c0.1227,11.46571 -5.4211,20.82091 -12.38243,20.89541c-6.96133,0.0745 -12.70407,-9.15991 -12.82677,-20.62563c-0.1227,-11.46571 5.4211,-20.82091 12.38243,-20.89541c6.96133,-0.0745 12.70407,9.15991 12.82677,20.62562z" fill="#ffa766" stroke="none" stroke-width="0"/><path d="M261.36622,161.2076c7.90747,-3.07165 16.49377,-6.20824 21.79326,0.45052c2.47611,3.11122 0.33912,7.85896 -2.00466,14.20821c-2.38889,6.47144 -7.01404,11.72194 -7.21932,12.04741c-8.49199,13.46479 -18.43104,17.77614 -28.16898,11.63459c-9.73795,-6.14154 -6.01743,-16.04529 2.47455,-29.51008c3.15938,-5.00947 8.44027,-7.01081 13.12516,-8.83065z" data-paper-data="{&quot;index&quot;:null}" fill="#f0fa9b" stroke="#000000" stroke-width="2.5"/><path d="M273.29072,167.24955c3.46665,4.11774 0.49696,13.02966 -6.63302,19.90534c-7.12997,6.87569 -15.72023,9.11145 -19.18689,4.99373c-3.46665,-4.11774 -0.49696,-13.02966 6.63302,-19.90534c7.12997,-6.87569 15.72023,-9.11145 19.18689,-4.99373z" data-paper-data="{&quot;index&quot;:null}" fill="#ffa766" stroke="none" stroke-width="0"/><path d="M245.57173,189.63167c-2.14478,8.84278 -11.32171,14.15331 -11.19752,14.23727c0.32726,0.22124 -5.70147,-8.97307 -3.55671,-17.81585c2.14478,-8.84278 8.22207,-15.10082 11.35612,-14.34067c3.13405,0.76015 5.54287,9.07646 3.3981,17.91924z" fill="#ff9900" stroke="#000000" stroke-width="1.5"/><path d="M251.38714,173.41948c-1.17189,4.83165 -6.1446,7.7728 -11.10684,6.56924c-4.96225,-1.20356 -8.03493,-6.09609 -6.86302,-10.92775c1.17189,-4.83165 6.1446,-7.7728 11.10684,-6.56924c4.96225,1.20356 8.03493,6.09609 6.86302,10.92775z" fill="#ffcc87" stroke="#000000" stroke-width="1.5"/><path d="M251.78201,173.62652c-0.87629,3.61286 -4.51546,5.83129 -8.12832,4.95501c-3.61286,-0.87629 -5.83129,-4.51546 -4.95501,-8.12832c0.87629,-3.61286 4.51546,-5.83129 8.12832,-4.95501c3.61286,0.87629 5.83129,4.51546 4.95501,8.12832z" fill="#dcf9ff" stroke="#000000" stroke-width="1.5"/><path d="M231.7997,186.74026l0.50758,-2.09269c0,0 2.83524,4.02575 4.91004,4.52898c2.12735,0.51598 7.70039,-1.47038 7.70039,-1.47038l-0.50758,2.09269c0,0 -5.61906,2.4759 -7.81508,1.94327c-1.98639,-0.48178 -4.79535,-5.00188 -4.79535,-5.00188z" fill="#c58c32" stroke="#000000" stroke-width="0"/><path d="M234.83216,202.45106c0,0 -1.26611,-3.12363 -1.70733,-4.53761c-0.39989,-1.28153 -0.82823,-3.58804 -0.82823,-3.58804c0,0 2.3865,2.20084 3.73438,2.50193c1.53131,0.34205 4.97354,-0.55676 4.97354,-0.55676c0,0 -1.34407,1.62717 -2.06011,2.34414c-1.13845,1.13995 -4.11225,3.83635 -4.11225,3.83635z" fill="#c58c32" stroke="none" stroke-width="0"/></g></g></svg>