<svg version="1.1" xmlns="http://www.w3.org/2000/svg" xmlns:xlink="http://www.w3.org/1999/xlink" width="41.16528" height="44.01376" viewBox="0,0,41.16528,44.01376"><g transform="translate(-221.97576,-157.99312)"><g data-paper-data="{&quot;isPaintingLayer&quot;:true}" fill-rule="nonzero" stroke-linecap="butt" stroke-linejoin="miter" stroke-miterlimit="10" stroke-dasharray="" stroke-dashoffset="0" style="mix-blend-mode: normal"><path d="M237.89227,170.127c1.56776,5.68884 -0.40616,10.41087 -4.40888,10.54693c-4.00272,0.13607 -8.51848,-4.36533 -10.08625,-10.05418c-1.56776,-5.68884 0.40616,-10.41087 4.40887,-10.54693c4.00273,-0.13607 8.51849,4.36534 10.08625,10.05418z" data-paper-data="{&quot;index&quot;:null}" fill="#ffffff" stroke="#000000" stroke-width="2"/><path d="M236.58609,166.81272c0.13745,-6.20017 2.59605,-7.95901 5.33099,-7.81114c0.29141,0.01576 0.5742,0.05252 0.84674,0.11314c2.28523,0.50833 3.84919,2.69394 3.72638,8.23348c-0.13745,6.20017 -7.67441,12.13496 -5.20093,10.95866c0.72653,-0.34551 -4.84063,-5.29396 -4.70318,-11.49414z" data-paper-data="{&quot;index&quot;:null}" fill="#ffffff" stroke="#000000" stroke-width="2"/><path d="M254.45934,169.65664c2.10175,0 3.80555,1.88006 3.80555,4.19923c0,2.31917 -1.70381,4.19923 -3.80555,4.19923c-2.10175,0 -3.80555,-1.88006 -3.80555,-4.19923c0,-2.31917 1.70381,-4.19923 3.80555,-4.19923z" data-paper-data="{&quot;index&quot;:null}" fill="#ffffff" stroke="#000000" stroke-width="2"/><path d="M238.77429,168.70692c8.72528,0 15.79852,7.23059 15.79852,16.14998c0,8.91939 -7.07324,16.14998 -15.79852,16.14998c-8.72528,0 -15.79853,-7.23059 -15.79853,-16.14998c0,-8.91939 7.07324,-16.14998 15.79853,-16.14998z" data-paper-data="{&quot;index&quot;:null}" fill="#7aff3a" stroke="#000000" stroke-width="2"/><path d="M240.6643,184.67253c4.21359,4.01017 5.24791,9.76333 2.31022,12.85002c-2.93769,3.08669 -8.73494,2.33807 -12.94852,-1.6721c-4.21359,-4.01017 -5.24791,-9.76333 -2.31022,-12.85002c2.93769,-3.08669 8.73494,-2.33807 12.94852,1.6721z" data-paper-data="{&quot;index&quot;:null}" fill="#3dd831" stroke="none" stroke-width="0"/><path d="M241.20004,190.50643c-3.34968,0 -6.06514,-2.85123 -6.06514,-6.3684c0,-3.51717 2.71547,-6.36839 6.06515,-6.36839c3.34968,0 6.06514,2.85122 6.06514,6.36839c0,3.51717 -2.71546,6.3684 -6.06514,6.3684z" data-paper-data="{&quot;index&quot;:null}" fill="#29b51e" stroke="none" stroke-width="0"/><path d="M244.44394,193.11768c2.09735,-1.41606 4.11043,-1.59468 4.49633,-0.39896c0.3859,1.19572 -1.00149,3.31299 -3.09885,4.72906c-2.09735,1.41606 -4.11043,1.59468 -4.49633,0.39896c-0.3859,-1.19572 1.00149,-3.31299 3.09885,-4.72905z" data-paper-data="{&quot;index&quot;:null}" fill="#29b51e" stroke="none" stroke-width="0"/><path d="M228.85428,185.60767c0.94693,0 1.71456,1.20628 1.71456,2.69431c0,1.48803 -0.76764,2.69432 -1.71456,2.69432c-0.94693,0 -1.71456,-1.20629 -1.71456,-2.69432c0,-1.48803 0.76764,-2.69431 1.71456,-2.69431z" data-paper-data="{&quot;index&quot;:null}" fill="#29b51e" stroke="none" stroke-width="0"/><path d="M229.62996,174.38919c1.62966,-1.5252 3.70012,-1.96095 4.62447,-0.97327c0.92436,0.98767 0.3526,3.02476 -1.27706,4.54996c-1.62966,1.5252 -3.70012,1.96095 -4.62447,0.97327c-0.92436,-0.98767 -0.3526,-3.02476 1.27706,-4.54996z" data-paper-data="{&quot;index&quot;:null}" fill="#ffffff" stroke="none" stroke-width="0"/><path d="M242.08095,178.87186c0,-0.39465 -0.2582,-0.83249 -0.27653,-1.29765c-0.11363,-2.88355 -0.74016,-6.5718 0.76099,-7.77091c0.29033,-0.23191 1.13181,-0.6065 1.55668,-0.6065c2.97607,0 8.81777,6.85069 8.81777,10.16494c0,3.31426 -2.49422,5.51112 -5.47028,5.51112c-2.97607,0 -5.38864,-2.68673 -5.38864,-6.00099z" data-paper-data="{&quot;index&quot;:null}" fill="#054800" stroke="none" stroke-width="0"/><path d="M248.02071,167.12441c2.59212,0 4.69346,2.31871 4.69346,5.17898c0,2.86027 -2.10133,5.17898 -4.69346,5.17898c-2.59212,0 -4.69346,-2.31871 -4.69346,-5.17898c0,-2.86027 2.10133,-5.17898 4.69346,-5.17898z" data-paper-data="{&quot;index&quot;:null}" fill="#ffffff" stroke="#000000" stroke-width="2"/><path d="M254.01215,176.43303c1.16913,1.12617 8.25956,13.11434 8.12706,13.0998c-0.61521,-0.06745 -11.54592,-7.21062 -12.71506,-8.33678c-1.16913,-1.12617 -1.08984,-3.10535 0.1771,-4.42063c1.26695,-1.31527 3.24177,-1.46857 4.4109,-0.3424z" data-paper-data="{&quot;index&quot;:null}" fill="#ffffff" stroke="#000000" stroke-width="2"/></g></g></svg>