<svg version="1.1" xmlns="http://www.w3.org/2000/svg" xmlns:xlink="http://www.w3.org/1999/xlink" width="85.81633" height="89.58102" viewBox="0,0,85.81633,89.58102"><g transform="translate(-196.03459,-140.06124)"><g data-paper-data="{&quot;isPaintingLayer&quot;:true}" fill-rule="nonzero" stroke-linecap="butt" stroke-linejoin="miter" stroke-miterlimit="10" stroke-dasharray="" stroke-dashoffset="0" style="mix-blend-mode: normal"><path d="M267.7846,217.07627c0,5.14508 -15.33425,9.316 -34.25,9.316c-18.91575,0 -34.25,-4.17092 -34.25,-9.316c0,-5.14508 15.33425,-9.316 34.25,-9.316c18.91575,0 34.25,4.17092 34.25,9.316z" fill="none" stroke="#f71933" stroke-width="6.5"/><path d="M219.88405,216.02434c-7.18378,5.49198 -11.4019,1.77848 -15.30968,-4.36742c-3.90778,-6.1459 -6.02536,-12.39689 1.15839,-17.88887c7.18378,-5.49196 25.23673,-11.42346 29.14449,-5.27756c3.90778,6.1459 -7.80944,22.04186 -14.99322,27.53384z" fill="#ffa766" stroke="#000000" stroke-width="2.5"/><path d="M223.06251,209.82797c-5.55688,4.24821 -8.81973,1.37571 -11.84252,-3.37833c-3.02278,-4.75404 -4.66081,-9.5894 0.89606,-13.8376c5.55688,-4.24821 19.52138,-8.83639 22.54417,-4.08234c3.02278,4.75404 -6.04084,17.05007 -11.59771,21.29828z" fill="#f0fa9b" stroke="#000000" stroke-width="0"/><path d="M236.47415,178.47197c-4.33612,17.72701 -9.62888,28.53892 -22.94257,24.62332c-13.31371,-3.9156 -17.93829,-15.95761 -13.60217,-33.68461c0.1048,-0.4285 0.7015,-8.49938 4.19512,-15.52702c3.42766,-6.89494 5.67061,-12.38965 10.36887,-12.57242c10.05544,-0.39117 14.54878,9.56473 18.5318,18.87272c2.35979,5.51465 5.06217,11.69283 3.44894,18.28801z" fill="#f0fa9b" stroke="#000000" stroke-width="2.5"/><path d="M229.72319,174.97958c0.11237,11.5153 -4.9653,20.91096 -11.34133,20.98578c-6.37603,0.07482 -11.63594,-9.19954 -11.74831,-20.71484c-0.11237,-11.5153 4.96529,-20.91096 11.34133,-20.98578c6.37603,-0.07482 11.63594,9.19953 11.74832,20.71483z" fill="#ffa766" stroke="none" stroke-width="0"/><path d="M238.72611,191.92597c4.04948,-3.63709 16.53587,4.46735 20.93692,9.96477c4.40105,5.49742 1.67734,9.58761 -2.37214,13.2247c-4.04948,3.63709 -7.89123,5.44375 -12.29231,-0.05367c-4.40107,-5.49742 -10.32195,-19.49871 -6.27248,-23.1358z" data-paper-data="{&quot;index&quot;:null}" fill="#ffa766" stroke="#000000" stroke-width="2.5"/><path d="M238.88206,192.0001c3.13238,-2.8134 12.79101,3.45564 16.19536,7.70807c3.40435,4.25243 1.29745,7.41632 -1.83494,10.22971c-3.13238,2.8134 -6.10411,4.21091 -9.50848,-0.04151c-3.40435,-4.25243 -7.98434,-15.08286 -4.85195,-17.89624z" data-paper-data="{&quot;index&quot;:null}" fill="#f0fa9b" stroke="#000000" stroke-width="0"/><path d="M259.9367,161.12334c7.49781,-3.08493 15.63929,-6.23509 20.66422,0.45246c2.34784,3.12468 0.32156,7.89295 -1.9008,14.26966c-2.26511,6.49943 -6.65068,11.77264 -6.84532,12.09952c-8.05204,13.52302 -17.4762,17.85304 -26.70965,11.68492c-9.23346,-6.16811 -5.70569,-16.11469 2.34635,-29.6377c2.99571,-5.03113 8.00302,-7.04115 12.4452,-8.86885z" data-paper-data="{&quot;index&quot;:null}" fill="#f0fa9b" stroke="#000000" stroke-width="2.5"/><path d="M270.55121,167.1944c3.28707,4.13555 0.47122,13.086 -6.28938,19.99143c-6.76059,6.90543 -14.90583,9.15086 -18.19289,5.01531c-3.28707,-4.13555 -0.47122,-13.086 6.28938,-19.99143c6.76059,-6.90543 14.90583,-9.15086 18.19288,-5.01531z" data-paper-data="{&quot;index&quot;:null}" fill="#ffa766" stroke="none" stroke-width="0"/><path d="M244.67639,189.67332c-2.15405,8.88103 -11.37068,14.21454 -11.24595,14.29885c0.32868,0.22219 -5.72613,-9.01187 -3.57209,-17.8929c2.15405,-8.88103 8.25763,-15.16615 11.40525,-14.4027c3.1476,0.76343 5.56685,9.11572 3.41278,17.99675z" fill="#ff9900" stroke="#000000" stroke-width="1.5"/><path d="M250.51697,173.39102c-1.17696,4.85255 -6.17118,7.80642 -11.15488,6.59765c-4.9837,-1.20877 -8.06968,-6.12246 -6.89272,-10.97501c1.17696,-4.85255 6.17118,-7.80642 11.15488,-6.59765c4.9837,1.20877 8.06968,6.12246 6.89272,10.97501z" fill="#ffcc87" stroke="#000000" stroke-width="1.5"/><path d="M250.91353,173.59894c-0.88008,3.62849 -4.53498,5.85651 -8.16346,4.97644c-3.62849,-0.88008 -5.85651,-4.53499 -4.97644,-8.16348c0.88008,-3.62849 4.53499,-5.85651 8.16348,-4.97644c3.62849,0.88008 5.85651,4.53498 4.97644,8.16346z" fill="#dcf9ff" stroke="#000000" stroke-width="1.5"/><path d="M230.8448,186.76942l0.50976,-2.10174c0,0 2.84749,4.04316 4.93128,4.54857c2.13655,0.5182 7.73371,-1.47674 7.73371,-1.47674l-0.50977,2.10174c0,0 -5.64336,2.48661 -7.84889,1.95167c-1.99497,-0.48387 -4.81609,-5.02351 -4.81609,-5.02351z" fill="#c58c32" stroke="#000000" stroke-width="0"/><path d="M233.89037,202.54816c0,0 -1.27158,-3.13714 -1.71471,-4.55723c-0.40162,-1.28706 -0.8318,-3.60356 -0.8318,-3.60356c0,0 2.39682,2.21034 3.75053,2.51274c1.53792,0.34353 4.99505,-0.55917 4.99505,-0.55917c0,0 -1.3499,1.63421 -2.06902,2.35428c-1.14337,1.14488 -4.13003,3.85295 -4.13003,3.85295z" fill="#c58c32" stroke="none" stroke-width="0"/></g></g></svg>