<svg version="1.1" xmlns="http://www.w3.org/2000/svg" xmlns:xlink="http://www.w3.org/1999/xlink" width="180" height="110.89035" viewBox="0,0,180,110.89035"><defs><radialGradient cx="239.78571" cy="178.94641" r="90" gradientUnits="userSpaceOnUse" id="color-1"><stop offset="0" stop-color="#ff0000"/><stop offset="1" stop-color="#ff0000" stop-opacity="0"/></radialGradient></defs><g transform="translate(-149.78571,-94.1938)"><g data-paper-data="{&quot;isPaintingLayer&quot;:true}" fill-rule="nonzero" stroke-linecap="butt" stroke-linejoin="miter" stroke-miterlimit="10" stroke-dasharray="" stroke-dashoffset="0" style="mix-blend-mode: normal"><path d="M149.78571,203.44641v-49h180v49z" fill="url(#color-1)" stroke="none" stroke-width="NaN"/><text transform="translate(182.6648,188.60028) scale(0.71669,0.71669)" font-size="40" xml:space="preserve" fill="#ffffff" fill-rule="nonzero" stroke="#000000" stroke-width="10" stroke-linecap="butt" stroke-linejoin="miter" stroke-miterlimit="10" stroke-dasharray="" stroke-dashoffset="0" font-family="&quot;ヒラギノ角ゴ Pro W3&quot;, &quot;Hiragino Kaku Gothic Pro&quot;, Osaka, &quot;メイリオ&quot;, Meiryo, &quot;ＭＳ Ｐゴシック&quot;, &quot;MS PGothic&quot;" font-weight="normal" text-anchor="start" style="mix-blend-mode: normal"><tspan x="0" dy="0">ボス襲来</tspan></text><text transform="translate(182.6656,188.60016) scale(0.71668,0.71668)" font-size="40" xml:space="preserve" fill="#ffffff" fill-rule="nonzero" stroke="none" stroke-width="1" stroke-linecap="butt" stroke-linejoin="miter" stroke-miterlimit="10" stroke-dasharray="" stroke-dashoffset="0" font-family="&quot;ヒラギノ角ゴ Pro W3&quot;, &quot;Hiragino Kaku Gothic Pro&quot;, Osaka, &quot;メイリオ&quot;, Meiryo, &quot;ＭＳ Ｐゴシック&quot;, &quot;MS PGothic&quot;" font-weight="normal" text-anchor="start" style="mix-blend-mode: normal"><tspan x="0" dy="0">ボス襲来</tspan></text><text transform="translate(182.6648,188.60028) scale(0.71669,0.71669)" font-size="40" xml:space="preserve" fill="#ffffff" fill-rule="nonzero" stroke="#ffffff" stroke-width="1" stroke-linecap="butt" stroke-linejoin="miter" stroke-miterlimit="10" stroke-dasharray="" stroke-dashoffset="0" font-family="&quot;ヒラギノ角ゴ Pro W3&quot;, &quot;Hiragino Kaku Gothic Pro&quot;, Osaka, &quot;メイリオ&quot;, Meiryo, &quot;ＭＳ Ｐゴシック&quot;, &quot;MS PGothic&quot;" font-weight="normal" text-anchor="start" style="mix-blend-mode: normal"><tspan x="0" dy="0">ボス襲来</tspan></text><path d="M212.21863,137.39891c7.23377,-10.27824 18.72996,-30.44595 23.18894,-37.0794c2.39959,-3.56978 7.26561,-4.28538 9.34179,-1.19672c3.77702,5.61892 15.33731,24.67628 23.28019,36.49258c3.83575,5.70629 2.00523,9.72391 -4.67466,9.72391c-16.21803,0 -39.95581,0.33731 -47.40238,0c-4.75514,-0.21539 -6.79966,-3.58432 -3.73389,-7.94037z" fill="#ffffff" stroke="#ff0000" stroke-width="8.5"/><path d="M207.20193,139.73035c8.39594,-11.92953 22.02025,-35.33738 27.19562,-43.03655c2.78511,-4.1433 8.4329,-4.97386 10.84264,-1.38898c4.38383,6.52165 18.00223,28.64075 27.2212,42.35545c4.452,6.62306 2.32739,11.28615 -5.42569,11.28615c-18.82361,0 -46.85706,0.3915 -55.5,0c-5.51909,-0.25 -7.89209,-4.16017 -4.33378,-9.21607z" fill="none" stroke="#000000" stroke-width="5"/><text transform="translate(226.23635,137.99234) scale(1.94695,0.8137)" font-size="40" xml:space="preserve" fill="#000000" fill-rule="nonzero" stroke="none" stroke-width="1" stroke-linecap="butt" stroke-linejoin="miter" stroke-miterlimit="10" stroke-dasharray="" stroke-dashoffset="0" font-family="&quot;ヒラギノ角ゴ Pro W3&quot;, &quot;Hiragino Kaku Gothic Pro&quot;, Osaka, &quot;メイリオ&quot;, Meiryo, &quot;ＭＳ Ｐゴシック&quot;, &quot;MS PGothic&quot;" font-weight="normal" text-anchor="start" style="mix-blend-mode: normal"><tspan x="0" dy="0">!</tspan></text></g></g></svg>