<svg version="1.1" xmlns="http://www.w3.org/2000/svg" xmlns:xlink="http://www.w3.org/1999/xlink" width="46.41013" height="44.28427" viewBox="0,0,46.41013,44.28427"><g transform="translate(-216.79493,-157.85786)"><g data-paper-data="{&quot;isPaintingLayer&quot;:true}" fill-rule="nonzero" stroke-linecap="butt" stroke-linejoin="miter" stroke-miterlimit="10" stroke-dasharray="" stroke-dashoffset="0" style="mix-blend-mode: normal"><path d="M233.56116,168.43102c2.81289,5.23396 1.93228,10.31175 -1.96691,11.34155c-3.89918,1.02981 -9.34038,-2.37833 -12.15328,-7.61229c-2.81289,-5.23396 -1.93228,-10.31175 1.9669,-11.34155c3.89919,-1.02981 9.34039,2.37833 12.15328,7.61229z" data-paper-data="{&quot;index&quot;:null}" fill="#ffffff" stroke="#000000" stroke-width="2"/><path d="M236.95362,165.60517c1.4492,-6.07432 4.24217,-7.28472 6.90312,-6.5596c0.28353,0.07727 0.55411,0.17338 0.80955,0.29081c2.14186,0.98466 3.21827,3.4676 1.92348,8.89471c-1.4492,6.07432 -10.12625,10.31937 -7.44208,9.68558c0.78842,-0.18616 -3.64326,-6.23718 -2.19406,-12.31151z" data-paper-data="{&quot;index&quot;:null}" fill="#ffffff" stroke="#000000" stroke-width="2"/><path d="M254.46995,169.57393c2.11636,0 3.83201,1.89313 3.83201,4.22843c0,2.3353 -1.71565,4.22842 -3.83201,4.22842c-2.11637,0 -3.83201,-1.89313 -3.83201,-4.22842c0,-2.3353 1.71565,-4.22843 3.83201,-4.22843z" data-paper-data="{&quot;index&quot;:null}" fill="#ffffff" stroke="#000000" stroke-width="2"/><path d="M238.67585,168.61761c8.78595,0 15.90836,7.28086 15.90836,16.26226c0,8.9814 -7.12241,16.26226 -15.90836,16.26226c-8.78595,0 -15.90837,-7.28086 -15.90837,-16.26226c0,-8.9814 7.12242,-16.26226 15.90837,-16.26226z" data-paper-data="{&quot;index&quot;:null}" fill="#c81a86" stroke="#000000" stroke-width="2"/><path d="M240.579,184.69422c4.24288,4.03805 5.28439,9.83121 2.32629,12.93936c-2.95811,3.10815 -8.79567,2.35433 -13.03855,-1.68373c-4.24288,-4.03805 -5.28439,-9.83121 -2.32629,-12.93936c2.95811,-3.10815 8.79566,-2.35433 13.03855,1.68373z" data-paper-data="{&quot;index&quot;:null}" fill="#fc2893" stroke="none" stroke-width="0"/><path d="M241.11846,190.56868c-3.37297,0 -6.10731,-2.87105 -6.10731,-6.41268c0,-3.54163 2.73435,-6.41267 6.10732,-6.41267c3.37297,0 6.10731,2.87104 6.10731,6.41267c0,3.54163 -2.73434,6.41268 -6.10731,6.41268z" data-paper-data="{&quot;index&quot;:null}" fill="#ab1070" stroke="none" stroke-width="0"/><path d="M244.38492,193.19808c2.11193,-1.42591 4.139,-1.60577 4.52759,-0.40173c0.38858,1.20404 -1.00846,3.33603 -3.1204,4.76193c-2.11193,1.42591 -4.139,1.60577 -4.52759,0.40173c-0.38858,-1.20404 1.00846,-3.33602 3.1204,-4.76193z" data-paper-data="{&quot;index&quot;:null}" fill="#ab1070" stroke="none" stroke-width="0"/><path d="M228.68688,185.63586c0.95352,0 1.72648,1.21467 1.72648,2.71305c0,1.49838 -0.77298,2.71305 -1.72648,2.71305c-0.95352,0 -1.72648,-1.21468 -1.72648,-2.71305c0,-1.49838 0.77298,-2.71305 1.72648,-2.71305z" data-paper-data="{&quot;index&quot;:null}" fill="#ab1070" stroke="none" stroke-width="0"/><path d="M229.46794,174.33939c1.64099,-1.5358 3.72584,-1.97458 4.65663,-0.98003c0.93079,0.99454 0.35505,3.04579 -1.28594,4.58159c-1.64099,1.5358 -3.72584,1.97458 -4.65663,0.98003c-0.93079,-0.99454 -0.35505,-3.04579 1.28594,-4.58159z" data-paper-data="{&quot;index&quot;:null}" fill="#ffffff" stroke="none" stroke-width="0"/><path d="M242.0055,178.85322c0,-0.39739 -0.26,-0.83828 -0.27845,-1.30667c-0.11442,-2.9036 -0.7453,-6.61749 0.76628,-7.82494c0.29235,-0.23352 1.13968,-0.61072 1.5675,-0.61072c2.99676,0 8.87908,6.89832 8.87908,10.23561c0,3.3373 -2.51156,5.54943 -5.50832,5.54943c-2.99676,0 -5.4261,-2.70541 -5.4261,-6.04271z" data-paper-data="{&quot;index&quot;:null}" fill="#590e31" stroke="none" stroke-width="0"/><path d="M247.98655,167.02409c2.61014,0 4.72609,2.33483 4.72609,5.21499c0,2.88016 -2.11594,5.21499 -4.72609,5.21499c-2.61014,0 -4.72609,-2.33483 -4.72609,-5.21499c0,-2.88016 2.11594,-5.21499 4.72609,-5.21499z" data-paper-data="{&quot;index&quot;:null}" fill="#ffffff" stroke="#000000" stroke-width="2"/><path d="M254.01965,176.39743c1.17726,1.134 8.31699,13.20551 8.18357,13.19088c-0.61949,-0.06792 -11.6262,-7.26075 -12.80346,-8.39474c-1.17726,-1.134 -1.09742,-3.12694 0.17833,-4.45136c1.27576,-1.32442 3.26431,-1.47878 4.44157,-0.34478z" data-paper-data="{&quot;index&quot;:null}" fill="#ffffff" stroke="#000000" stroke-width="2"/></g></g></svg>