<svg version="1.1" xmlns="http://www.w3.org/2000/svg" xmlns:xlink="http://www.w3.org/1999/xlink" width="75" height="89.62785" viewBox="0,0,75,89.62785"><g transform="translate(-196.0346,-140.01442)"><g stroke-miterlimit="10"><path d="M258.81001,217.03077c0,2.24384 -11.24157,4.06283 -25.10874,4.06283c-13.86718,0 -25.10874,-1.81899 -25.10874,-4.06283c0,-2.24384 11.24157,-4.06283 25.10875,-4.06283c13.86718,0 25.10875,1.81899 25.10875,4.06283z" fill-opacity="0.85098" fill="#423b34" stroke="#000000" stroke-width="0"/><path d="M267.78461,217.07627c0,5.14508 -15.33425,9.316 -34.25,9.316c-18.91575,0 -34.25,-4.17092 -34.25,-9.316c0,-5.14508 15.33425,-9.316 34.25,-9.316c18.91575,0 34.25,4.17092 34.25,9.316z" fill="none" stroke="#f71933" stroke-width="6.5"/><path d="M223.82729,216.06794c-4.52245,5.49861 -7.17791,1.78065 -9.638,-4.37269c-2.46009,-6.15334 -3.79319,-12.4119 0.72926,-17.91052c4.52245,-5.49861 15.88742,-11.43729 18.3475,-5.28395c2.46009,6.15334 -4.91632,22.06855 -9.43876,27.56715z" fill="#ffa766" stroke="#000000" stroke-width="2.5"/><path d="M225.82824,209.86408c-3.49825,4.25335 -5.55233,1.37738 -7.45529,-3.38242c-1.90295,-4.7598 -2.93415,-9.60099 0.5641,-13.85434c3.49825,-4.25335 12.28941,-8.84709 14.19236,-4.0873c1.90295,4.7598 -3.80293,17.0707 -7.30117,21.32405z" fill="#f0fa9b" stroke="#000000" stroke-width="0"/><path d="M234.27136,178.47013c-2.72975,17.74846 -6.06173,28.57345 -14.44317,24.65312c-8.38145,-3.92033 -11.2928,-15.97692 -8.56306,-33.72538c0.06599,-0.42902 0.44162,-8.50967 2.64098,-15.54581c2.15783,-6.90327 3.56984,-12.40464 6.52758,-12.58764c6.33026,-0.39164 9.15897,9.57631 11.66644,18.89556c1.48557,5.52132 3.18682,11.70698 2.17123,18.31015z" fill="#f0fa9b" stroke="#000000" stroke-width="2.5"/><path d="M230.02137,174.9735c0.07075,11.52924 -3.12584,20.93627 -7.13978,21.01118c-4.01394,0.07491 -7.32524,-9.21066 -7.39599,-20.73991c-0.07075,-11.52924 3.12584,-20.93627 7.13977,-21.01118c4.01394,-0.07491 7.32524,9.21066 7.39599,20.7399z" fill="#ffa766" stroke="none" stroke-width="0"/><path d="M236.06843,191.94041c3.22767,-3.64147 13.18002,4.47276 16.68792,9.97683c3.5079,5.50408 1.33692,9.59921 -1.89074,13.24069c-3.22767,3.64147 -6.28976,5.45034 -9.79766,-0.05374c-3.5079,-5.50408 -8.22718,-19.52232 -4.99952,-23.1638z" fill="#ffa766" stroke="#000000" stroke-width="2.5"/><path d="M236.19273,192.01462c2.49669,-2.81681 10.19516,3.45982 12.90863,7.7174c2.71348,4.25758 1.03415,7.42529 -1.46254,10.24209c-2.49669,2.81681 -4.86533,4.21601 -7.57879,-0.04156c-2.71348,-4.25758 -6.36398,-15.10111 -3.86729,-17.91792z" fill="#f0fa9b" stroke="#000000" stroke-width="0"/><path d="M252.42275,161.10347c5.97619,-3.08867 12.4654,-6.24264 16.47057,0.45301c1.87136,3.12846 0.25629,7.90251 -1.51504,14.28693c-1.80543,6.50729 -5.30097,11.78689 -5.45611,12.11416c-6.41794,13.53939 -13.92952,17.87463 -21.28911,11.69906c-7.35959,-6.17557 -4.54776,-16.13419 1.87018,-29.67358c2.38775,-5.03722 6.37885,-7.04966 9.91952,-8.87958z" fill="#f0fa9b" stroke="#000000" stroke-width="2.5"/><path d="M261.43485,167.1789c2.61997,4.14055 0.37558,13.10185 -5.013,20.01563c-5.38858,6.91378 -11.88079,9.16194 -14.50077,5.0214c-2.61997,-4.14055 -0.37558,-13.10185 5.013,-20.01563c5.38858,-6.91378 11.88079,-9.16194 14.50077,-5.0214z" fill="#ffa766" stroke="none" stroke-width="0"/><path d="M242.30195,189.68503c-2.15666,8.89178 -11.38444,14.23173 -11.25956,14.31615c0.32907,0.22246 -5.73306,-9.02279 -3.57641,-17.91456c2.15666,-8.89178 8.26763,-15.18449 11.41904,-14.42013c3.15141,0.76436 5.57359,9.12675 3.41692,18.01853z" fill="#ff9900" stroke="#000000" stroke-width="1.5"/><path d="M248.14959,173.38302c-1.17839,4.85843 -6.17865,7.81587 -11.16838,6.60563c-4.98975,-1.21023 -8.07945,-6.12987 -6.90105,-10.9883c1.17839,-4.85843 6.17865,-7.81587 11.16838,-6.60563c4.98975,1.21023 8.07945,6.12987 6.90105,10.9883z" fill="#ffcc87" stroke="#000000" stroke-width="1.5"/><path d="M248.54663,173.59121c-0.88115,3.63288 -4.54048,5.8636 -8.17336,4.98247c-3.63288,-0.88115 -5.8636,-4.54048 -4.98247,-8.17336c0.88115,-3.63288 4.54048,-5.8636 8.17336,-4.98247c3.63288,0.88115 5.8636,4.54048 4.98247,8.17336z" fill="#dcf9ff" stroke="#000000" stroke-width="1.5"/><path d="M228.45362,186.77761l0.51039,-2.10428c0,0 2.85095,4.04806 4.93725,4.55407c2.13914,0.51884 7.74306,-1.47853 7.74306,-1.47853l-0.51039,2.10428c0,0 -5.65019,2.48962 -7.85838,1.95404c-1.99739,-0.48445 -4.82192,-5.02959 -4.82192,-5.02959z" fill="#c58c32" stroke="#000000" stroke-width="0"/><path d="M231.50288,202.57546c0,0 -1.27313,-3.14094 -1.71679,-4.56275c-0.40211,-1.28863 -0.83282,-3.60792 -0.83282,-3.60792c0,0 2.39972,2.21303 3.75507,2.51579c1.53979,0.34395 5.0011,-0.55985 5.0011,-0.55985c0,0 -1.35152,1.63619 -2.07152,2.35713c-1.14475,1.14627 -4.13503,3.85761 -4.13503,3.85761z" fill="#c58c32" stroke="none" stroke-width="0"/></g></g></svg>