<svg version="1.1" xmlns="http://www.w3.org/2000/svg" xmlns:xlink="http://www.w3.org/1999/xlink" width="78.3314" height="89.24777" viewBox="0,0,78.3314,89.24777"><g transform="translate(-196.03459,-140.3945)"><g data-paper-data="{&quot;isPaintingLayer&quot;:true}" fill-rule="nonzero" stroke-linecap="butt" stroke-linejoin="miter" stroke-miterlimit="10" stroke-dasharray="" stroke-dashoffset="0" style="mix-blend-mode: normal"><path d="M267.7846,217.07627c0,5.14508 -15.33425,9.316 -34.25,9.316c-18.91575,0 -34.25,-4.17092 -34.25,-9.316c0,-5.14508 15.33425,-9.316 34.25,-9.316c18.91575,0 34.25,4.17092 34.25,9.316z" fill="none" stroke="#f71933" stroke-width="6.5"/><path d="M223.55955,215.71407c-5.85286,5.44466 -9.28952,1.76318 -12.47331,-4.32979c-3.18379,-6.09297 -4.90908,-12.29012 0.94379,-17.73479c5.85286,-5.44466 20.5612,-11.32507 23.74499,-5.23211c3.18379,6.09297 -6.36262,21.85202 -12.21548,27.29667z" fill="#ffa766" stroke="#000000" stroke-width="2.5"/><path d="M226.14913,209.57109c-4.52737,4.21162 -7.18573,1.36386 -9.64849,-3.34923c-2.46275,-4.7131 -3.79732,-9.50679 0.73005,-13.7184c4.52737,-4.21162 15.90472,-8.76029 18.36749,-4.04719c2.46275,4.7131 -4.92167,16.90321 -9.44904,21.11483z" fill="#f0fa9b" stroke="#000000" stroke-width="0"/><path d="M237.07605,178.48516c-3.53278,17.57432 -7.84497,28.29309 -18.69208,24.41124c-10.84712,-3.88187 -14.61493,-15.82016 -11.08215,-33.39448c0.08539,-0.42481 0.57153,-8.42618 3.4179,-15.39328c2.79263,-6.83554 4.62003,-12.28293 8.44787,-12.46414c8.1925,-0.3878 11.85337,9.48235 15.09848,18.71017c1.9226,5.46715 4.12432,11.59211 2.80997,18.13049z" fill="#f0fa9b" stroke="#000000" stroke-width="2.5"/><path d="M231.57581,175.02284c0.09156,11.41612 -4.0454,20.73085 -9.24017,20.80503c-5.19477,0.07418 -9.48019,-9.12029 -9.57175,-20.53642c-0.09156,-11.41612 4.0454,-20.73085 9.24016,-20.80503c5.19477,-0.07418 9.48019,9.12029 9.57175,20.53641z" fill="#ffa766" stroke="none" stroke-width="0"/><path d="M239.00189,191.82328c3.35444,-3.60575 13.69768,4.42887 17.34336,9.87894c3.64567,5.45007 1.38943,9.50503 -1.96499,13.11078c-3.35444,3.60575 -6.53681,5.39686 -10.18248,-0.05321c-3.64567,-5.45007 -8.55032,-19.33078 -5.19588,-22.93652z" data-paper-data="{&quot;index&quot;:null}" fill="#ffa766" stroke="#000000" stroke-width="2.5"/><path d="M239.13106,191.89676c2.59475,-2.78917 10.59559,3.42587 13.41563,7.64168c2.82004,4.2158 1.07477,7.35244 -1.51999,10.14159c-2.59475,2.78917 -5.05641,4.17464 -7.87646,-0.04116c-2.82004,-4.2158 -6.61394,-14.95294 -4.01918,-17.74211z" data-paper-data="{&quot;index&quot;:null}" fill="#f0fa9b" stroke="#000000" stroke-width="0"/><path d="M255.99853,161.2889c6.21091,-3.05837 12.955,-6.18139 17.11747,0.44857c1.94486,3.09777 0.26636,7.82497 -1.57456,14.14675c-1.87634,6.44345 -5.50917,11.67124 -5.6704,11.9953c-6.67,13.40655 -14.47662,17.69925 -22.12527,11.58427c-7.64865,-6.11498 -4.72638,-15.97589 1.94364,-29.38244c2.48152,-4.9878 6.62939,-6.98049 10.30913,-8.79246z" data-paper-data="{&quot;index&quot;:null}" fill="#f0fa9b" stroke="#000000" stroke-width="2.5"/><path d="M265.3646,167.30472c2.72287,4.09993 0.39033,12.9733 -5.20989,19.81925c-5.60022,6.84595 -12.34742,9.07204 -15.07031,4.97213c-2.72287,-4.09993 -0.39033,-12.9733 5.20989,-19.81925c5.60022,-6.84595 12.34742,-9.07204 15.07031,-4.97213z" data-paper-data="{&quot;index&quot;:null}" fill="#ffa766" stroke="none" stroke-width="0"/><path d="M245.12134,189.59003c-2.1355,8.80453 -11.27274,14.0921 -11.14909,14.17569c0.32585,0.22028 -5.67681,-8.93426 -3.54132,-17.73879c2.1355,-8.80453 8.18651,-15.0355 11.307,-14.27865c3.12049,0.75686 5.5189,9.0372 3.3834,17.84174z" fill="#ff9900" stroke="#000000" stroke-width="1.5"/><path d="M250.91161,173.44796c-1.16683,4.81076 -6.11803,7.73918 -11.0588,6.54082c-4.94079,-1.19836 -8.00018,-6.06973 -6.83334,-10.88048c1.16683,-4.81076 6.11803,-7.73918 11.0588,-6.54082c4.94079,1.19836 8.00018,6.06973 6.83334,10.88048z" fill="#ffcc87" stroke="#000000" stroke-width="1.5"/><path d="M251.30476,173.65411c-0.8725,3.59723 -4.49593,5.80607 -8.09316,4.93358c-3.59723,-0.8725 -5.80607,-4.49593 -4.93358,-8.09316c0.8725,-3.59723 4.49593,-5.80607 8.09316,-4.93358c3.59723,0.8725 5.80607,4.49593 4.93358,8.09316z" fill="#dcf9ff" stroke="#000000" stroke-width="1.5"/><path d="M231.40888,186.71113l0.50538,-2.08363c0,0 2.82297,4.00834 4.88881,4.50939c2.11815,0.51375 7.66709,-1.46402 7.66709,-1.46402l-0.50538,2.08363c0,0 -5.59475,2.4652 -7.78128,1.93487c-1.9778,-0.4797 -4.77461,-4.98024 -4.77461,-4.98024z" fill="#c58c32" stroke="#000000" stroke-width="0"/><path d="M234.42822,202.35398c0,0 -1.26064,-3.11012 -1.69994,-4.51798c-0.39816,-1.27598 -0.82465,-3.57252 -0.82465,-3.57252c0,0 2.37618,2.19132 3.71822,2.49111c1.52468,0.34057 4.95203,-0.55435 4.95203,-0.55435c0,0 -1.33826,1.62013 -2.0512,2.334c-1.13352,1.13502 -4.09446,3.81976 -4.09446,3.81976z" fill="#c58c32" stroke="none" stroke-width="0"/></g></g></svg>